G04 #@! TF.GenerationSoftware,KiCad,Pcbnew,7.0.9-7.0.9~ubuntu20.04.1*
G04 #@! TF.CreationDate,2023-12-20T19:17:45+01:00*
G04 #@! TF.ProjectId,kicad-pmod_7seg,6b696361-642d-4706-9d6f-645f37736567,1.0*
G04 #@! TF.SameCoordinates,Original*
G04 #@! TF.FileFunction,Copper,L1,Top*
G04 #@! TF.FilePolarity,Positive*
%FSLAX46Y46*%
G04 Gerber Fmt 4.6, Leading zero omitted, Abs format (unit mm)*
G04 Created by KiCad (PCBNEW 7.0.9-7.0.9~ubuntu20.04.1) date 2023-12-20 19:17:45*
%MOMM*%
%LPD*%
G01*
G04 APERTURE LIST*
G04 #@! TA.AperFunction,ComponentPad*
%ADD10R,1.700000X1.700000*%
G04 #@! TD*
G04 #@! TA.AperFunction,ComponentPad*
%ADD11O,1.700000X1.700000*%
G04 #@! TD*
G04 #@! TA.AperFunction,ComponentPad*
%ADD12R,2.400000X1.600000*%
G04 #@! TD*
G04 #@! TA.AperFunction,ComponentPad*
%ADD13O,2.400000X1.600000*%
G04 #@! TD*
G04 #@! TA.AperFunction,ComponentPad*
%ADD14R,1.500000X1.500000*%
G04 #@! TD*
G04 #@! TA.AperFunction,ComponentPad*
%ADD15C,1.500000*%
G04 #@! TD*
G04 #@! TA.AperFunction,ComponentPad*
%ADD16C,2.000000*%
G04 #@! TD*
G04 #@! TA.AperFunction,ViaPad*
%ADD17C,0.800000*%
G04 #@! TD*
G04 #@! TA.AperFunction,Conductor*
%ADD18C,0.250000*%
G04 #@! TD*
G04 #@! TA.AperFunction,Conductor*
%ADD19C,0.500000*%
G04 #@! TD*
G04 APERTURE END LIST*
D10*
X139700000Y-50800000D03*
D11*
X139700000Y-48260000D03*
X137160000Y-50800000D03*
X137160000Y-48260000D03*
X134620000Y-50800000D03*
X134620000Y-48260000D03*
X132080000Y-50800000D03*
X132080000Y-48260000D03*
X129540000Y-50800000D03*
X129540000Y-48260000D03*
X127000000Y-50800000D03*
X127000000Y-48260000D03*
D12*
X139700000Y-64135000D03*
D13*
X139700000Y-66675000D03*
X139700000Y-69215000D03*
X139700000Y-71755000D03*
X139700000Y-74295000D03*
X139700000Y-76835000D03*
X139700000Y-79375000D03*
X139700000Y-81915000D03*
X147320000Y-81915000D03*
X147320000Y-79375000D03*
X147320000Y-76835000D03*
X147320000Y-74295000D03*
X147320000Y-71755000D03*
X147320000Y-69215000D03*
X147320000Y-66675000D03*
X147320000Y-64135000D03*
D14*
X135255000Y-90805000D03*
D15*
X135255000Y-88265000D03*
X135255000Y-85725000D03*
X135255000Y-83185000D03*
X135255000Y-80645000D03*
X135255000Y-78105000D03*
X120015000Y-78105000D03*
X120015000Y-80645000D03*
X120015000Y-83185000D03*
X120015000Y-85725000D03*
X120015000Y-88265000D03*
X120015000Y-90805000D03*
D16*
X140185000Y-55245000D03*
X146685000Y-55245000D03*
X140185000Y-59745000D03*
X146685000Y-59745000D03*
X146835000Y-113665000D03*
X140335000Y-113665000D03*
X146835000Y-109165000D03*
X140335000Y-109165000D03*
D12*
X139700000Y-86995000D03*
D13*
X139700000Y-89535000D03*
X139700000Y-92075000D03*
X139700000Y-94615000D03*
X139700000Y-97155000D03*
X139700000Y-99695000D03*
X139700000Y-102235000D03*
X139700000Y-104775000D03*
X147320000Y-104775000D03*
X147320000Y-102235000D03*
X147320000Y-99695000D03*
X147320000Y-97155000D03*
X147320000Y-94615000D03*
X147320000Y-92075000D03*
X147320000Y-89535000D03*
X147320000Y-86995000D03*
D17*
X125857000Y-79629000D03*
X125857000Y-85471000D03*
X127000000Y-99695000D03*
X125095000Y-53975000D03*
X124460000Y-86995000D03*
X138430000Y-84455000D03*
X131445000Y-81280000D03*
X142875000Y-52070000D03*
X132694500Y-90998100D03*
X127635000Y-78740000D03*
X141312300Y-80833400D03*
X141988400Y-83822400D03*
X128786100Y-90642600D03*
X130288200Y-77319700D03*
D18*
X139700000Y-92075000D02*
X141605000Y-90170000D01*
X135706700Y-77029700D02*
X130578200Y-77029700D01*
X141605000Y-90170000D02*
X141605000Y-85877800D01*
X141605000Y-85877800D02*
X136576000Y-80848800D01*
X136576000Y-80848800D02*
X136576000Y-77899000D01*
X136576000Y-77899000D02*
X135706700Y-77029700D01*
X130578200Y-77029700D02*
X130288200Y-77319700D01*
X141988400Y-83822400D02*
X142367000Y-84201000D01*
X142367000Y-84201000D02*
X142367000Y-91567000D01*
X142367000Y-91567000D02*
X140733600Y-93200400D01*
X140733600Y-93200400D02*
X138725700Y-93200400D01*
X138725700Y-93200400D02*
X136330300Y-90805000D01*
X136330300Y-90805000D02*
X135255000Y-90805000D01*
X147320000Y-92075000D02*
X146685000Y-92075000D01*
X139143200Y-49435300D02*
X138335300Y-48627400D01*
X138335300Y-48627400D02*
X138335300Y-48260000D01*
X138335300Y-48260000D02*
X137160000Y-48260000D01*
X146685000Y-92075000D02*
X145415000Y-90805000D01*
X145415000Y-90805000D02*
X145415000Y-63627000D01*
X145415000Y-63627000D02*
X148031000Y-61011000D01*
X148031000Y-61011000D02*
X148031000Y-54690100D01*
X148031000Y-54690100D02*
X142776200Y-49435300D01*
X142776200Y-49435300D02*
X139143200Y-49435300D01*
X139700000Y-76835000D02*
X137795000Y-74930000D01*
X137795000Y-67437000D02*
X136652000Y-66294000D01*
X137795000Y-74930000D02*
X137795000Y-67437000D01*
X136652000Y-66294000D02*
X136652000Y-55372000D01*
X136652000Y-55372000D02*
X132080000Y-50800000D01*
X139700000Y-79375000D02*
X140335000Y-79375000D01*
X140335000Y-79375000D02*
X141859000Y-77851000D01*
X141859000Y-77851000D02*
X141859000Y-63817800D01*
X141859000Y-63817800D02*
X138847100Y-60805900D01*
X138847100Y-60805900D02*
X138847100Y-52828200D01*
X138847100Y-52828200D02*
X139700000Y-51975300D01*
X139700000Y-51975300D02*
X139700000Y-50800000D01*
D19*
X147320000Y-86995000D02*
X147955000Y-86995000D01*
X147955000Y-64135000D02*
X147320000Y-64135000D01*
X147955000Y-86995000D02*
X149352000Y-85598000D01*
X149352000Y-85598000D02*
X149352000Y-65532000D01*
X149352000Y-65532000D02*
X147955000Y-64135000D01*
X125857000Y-79629000D02*
X125857000Y-85471000D01*
X139700000Y-69215000D02*
X139700000Y-71755000D01*
X139700000Y-71755000D02*
X139700000Y-74295000D01*
X127000000Y-48260000D02*
X127000000Y-50800000D01*
X129540000Y-48260000D02*
X129540000Y-50800000D01*
X139700000Y-81915000D02*
X143256000Y-81915000D01*
X143256000Y-81915000D02*
X143256000Y-63174000D01*
X143256000Y-63174000D02*
X146685000Y-59745000D01*
X147320000Y-94615000D02*
X147320000Y-97155000D01*
D18*
X138176000Y-51816000D02*
X138176000Y-61119598D01*
X139700000Y-62643598D02*
X139700000Y-64135000D01*
X137160000Y-50800000D02*
X138176000Y-51816000D01*
X138176000Y-61119598D02*
X139700000Y-62643598D01*
X137414000Y-54769300D02*
X134620000Y-51975300D01*
X138174700Y-66675000D02*
X137414000Y-65914300D01*
X139700000Y-66675000D02*
X138174700Y-66675000D01*
X137414000Y-65914300D02*
X137414000Y-54769300D01*
X134620000Y-51975300D02*
X134620000Y-50800000D01*
X133350000Y-80010000D02*
X135255000Y-78105000D01*
X132694500Y-90998100D02*
X133350000Y-90342600D01*
X133350000Y-90342600D02*
X133350000Y-80010000D01*
X146685000Y-55245000D02*
X140185000Y-55245000D01*
X125132000Y-79328695D02*
X125720695Y-78740000D01*
X125720695Y-78740000D02*
X127635000Y-78740000D01*
X120015000Y-88265000D02*
X125132000Y-83148000D01*
X125132000Y-83148000D02*
X125132000Y-79328695D01*
X121920000Y-76200000D02*
X120015000Y-78105000D01*
X136144000Y-76200000D02*
X121920000Y-76200000D01*
X141123900Y-80645000D02*
X138975900Y-80645000D01*
X137590600Y-79259700D02*
X137590600Y-77646600D01*
X141312300Y-80833400D02*
X141123900Y-80645000D01*
X138975900Y-80645000D02*
X137590600Y-79259700D01*
X137590600Y-77646600D02*
X136144000Y-76200000D01*
X133820200Y-90265700D02*
X133820200Y-90955000D01*
X138174700Y-86995000D02*
X135440100Y-89729600D01*
X134356300Y-89729600D02*
X133820200Y-90265700D01*
X135440100Y-89729600D02*
X134356300Y-89729600D01*
X133820200Y-90955000D02*
X133041200Y-91734000D01*
X139700000Y-86995000D02*
X138174700Y-86995000D01*
X129877500Y-91734000D02*
X128786100Y-90642600D01*
X133041200Y-91734000D02*
X129877500Y-91734000D01*
G04 #@! TA.AperFunction,Conductor*
G36*
X149101034Y-44196799D02*
G01*
X149108744Y-44197558D01*
X149133266Y-44199973D01*
X149243728Y-44212419D01*
X149265823Y-44216975D01*
X149319045Y-44233120D01*
X149398132Y-44260794D01*
X149415607Y-44268467D01*
X149468933Y-44296970D01*
X149472641Y-44299123D01*
X149534057Y-44337712D01*
X149542257Y-44342865D01*
X149548609Y-44347439D01*
X149600264Y-44389831D01*
X149604765Y-44393910D01*
X149662087Y-44451232D01*
X149666167Y-44455734D01*
X149708559Y-44507389D01*
X149713133Y-44513741D01*
X149756862Y-44583334D01*
X149759039Y-44587085D01*
X149764244Y-44596821D01*
X149787528Y-44640384D01*
X149795210Y-44657881D01*
X149822881Y-44736960D01*
X149839021Y-44790167D01*
X149843580Y-44812278D01*
X149856027Y-44922742D01*
X149859201Y-44954968D01*
X149859500Y-44961050D01*
X149859500Y-64678770D01*
X149839815Y-64745809D01*
X149787011Y-64791564D01*
X149717853Y-64801508D01*
X149654297Y-64772483D01*
X149647819Y-64766451D01*
X149058253Y-64176885D01*
X149024768Y-64115562D01*
X149022408Y-64100024D01*
X149005635Y-63908308D01*
X148946739Y-63688504D01*
X148850568Y-63482266D01*
X148720047Y-63295861D01*
X148720045Y-63295858D01*
X148559141Y-63134954D01*
X148372734Y-63004432D01*
X148372732Y-63004431D01*
X148166497Y-62908261D01*
X148166488Y-62908258D01*
X147946697Y-62849366D01*
X147946687Y-62849364D01*
X147776784Y-62834500D01*
X147391452Y-62834500D01*
X147324413Y-62814815D01*
X147278658Y-62762011D01*
X147268714Y-62692853D01*
X147297739Y-62629297D01*
X147303771Y-62622819D01*
X148058901Y-61867688D01*
X148414786Y-61511802D01*
X148427048Y-61501980D01*
X148426865Y-61501759D01*
X148432867Y-61496792D01*
X148432877Y-61496786D01*
X148480241Y-61446348D01*
X148501120Y-61425470D01*
X148505373Y-61419986D01*
X148509150Y-61415563D01*
X148541062Y-61381582D01*
X148550714Y-61364023D01*
X148561389Y-61347772D01*
X148573674Y-61331936D01*
X148592186Y-61289152D01*
X148594742Y-61283935D01*
X148617197Y-61243092D01*
X148622180Y-61223680D01*
X148628477Y-61205291D01*
X148636438Y-61186895D01*
X148643729Y-61140853D01*
X148644908Y-61135162D01*
X148656500Y-61090019D01*
X148656500Y-61069983D01*
X148658027Y-61050582D01*
X148661160Y-61030804D01*
X148656775Y-60984415D01*
X148656500Y-60978577D01*
X148656500Y-54772837D01*
X148658224Y-54757223D01*
X148657938Y-54757196D01*
X148658672Y-54749433D01*
X148656500Y-54680302D01*
X148656500Y-54650751D01*
X148656500Y-54650750D01*
X148655629Y-54643859D01*
X148655172Y-54638045D01*
X148654589Y-54619500D01*
X148653709Y-54591472D01*
X148648120Y-54572237D01*
X148644174Y-54553184D01*
X148641664Y-54533308D01*
X148624501Y-54489959D01*
X148622614Y-54484446D01*
X148609617Y-54439710D01*
X148609616Y-54439708D01*
X148599421Y-54422469D01*
X148590860Y-54404993D01*
X148583486Y-54386369D01*
X148583486Y-54386367D01*
X148573474Y-54372588D01*
X148556083Y-54348650D01*
X148552900Y-54343805D01*
X148529170Y-54303679D01*
X148529165Y-54303673D01*
X148515005Y-54289513D01*
X148502370Y-54274720D01*
X148490593Y-54258512D01*
X148454693Y-54228813D01*
X148450381Y-54224890D01*
X143277003Y-49051512D01*
X143267180Y-49039250D01*
X143266959Y-49039434D01*
X143261986Y-49033423D01*
X143211564Y-48986073D01*
X143200991Y-48975500D01*
X143190675Y-48965183D01*
X143185186Y-48960925D01*
X143180761Y-48957147D01*
X143146782Y-48925238D01*
X143146780Y-48925236D01*
X143146777Y-48925235D01*
X143129229Y-48915588D01*
X143112963Y-48904904D01*
X143108937Y-48901781D01*
X143097136Y-48892627D01*
X143097135Y-48892626D01*
X143097133Y-48892625D01*
X143054368Y-48874118D01*
X143049122Y-48871548D01*
X143008293Y-48849103D01*
X143008292Y-48849102D01*
X142988893Y-48844122D01*
X142970481Y-48837818D01*
X142952098Y-48829862D01*
X142952092Y-48829860D01*
X142906074Y-48822572D01*
X142900352Y-48821387D01*
X142855221Y-48809800D01*
X142855219Y-48809800D01*
X142835184Y-48809800D01*
X142815786Y-48808273D01*
X142808362Y-48807097D01*
X142796005Y-48805140D01*
X142796004Y-48805140D01*
X142749616Y-48809525D01*
X142743778Y-48809800D01*
X141112423Y-48809800D01*
X141045384Y-48790115D01*
X140999629Y-48737311D01*
X140989685Y-48668153D01*
X140992648Y-48653707D01*
X141012371Y-48580093D01*
X141035063Y-48495408D01*
X141055659Y-48260000D01*
X141035063Y-48024592D01*
X140973903Y-47796337D01*
X140894007Y-47625000D01*
X145329341Y-47625000D01*
X145349936Y-47860403D01*
X145349938Y-47860413D01*
X145411094Y-48088655D01*
X145411096Y-48088659D01*
X145411097Y-48088663D01*
X145457471Y-48188111D01*
X145510964Y-48302828D01*
X145510965Y-48302830D01*
X145646505Y-48496402D01*
X145813597Y-48663494D01*
X146007169Y-48799034D01*
X146007171Y-48799035D01*
X146221337Y-48898903D01*
X146449592Y-48960063D01*
X146626034Y-48975500D01*
X146743966Y-48975500D01*
X146920408Y-48960063D01*
X147148663Y-48898903D01*
X147362829Y-48799035D01*
X147556401Y-48663495D01*
X147723495Y-48496401D01*
X147859035Y-48302830D01*
X147958903Y-48088663D01*
X148020063Y-47860408D01*
X148040659Y-47625000D01*
X148020063Y-47389592D01*
X147958903Y-47161337D01*
X147859035Y-46947171D01*
X147859034Y-46947169D01*
X147723494Y-46753597D01*
X147556402Y-46586505D01*
X147362830Y-46450965D01*
X147362828Y-46450964D01*
X147255746Y-46401031D01*
X147148663Y-46351097D01*
X147148659Y-46351096D01*
X147148655Y-46351094D01*
X146920413Y-46289938D01*
X146920403Y-46289936D01*
X146743966Y-46274500D01*
X146626034Y-46274500D01*
X146449596Y-46289936D01*
X146449586Y-46289938D01*
X146221344Y-46351094D01*
X146221335Y-46351098D01*
X146007171Y-46450964D01*
X146007169Y-46450965D01*
X145813597Y-46586505D01*
X145646506Y-46753597D01*
X145646501Y-46753604D01*
X145510967Y-46947165D01*
X145510965Y-46947169D01*
X145411098Y-47161335D01*
X145411094Y-47161344D01*
X145349938Y-47389586D01*
X145349936Y-47389596D01*
X145329341Y-47624999D01*
X145329341Y-47625000D01*
X140894007Y-47625000D01*
X140874035Y-47582171D01*
X140868731Y-47574595D01*
X140738494Y-47388597D01*
X140571402Y-47221506D01*
X140571395Y-47221501D01*
X140377834Y-47085967D01*
X140377830Y-47085965D01*
X140377828Y-47085964D01*
X140163663Y-46986097D01*
X140163659Y-46986096D01*
X140163655Y-46986094D01*
X139935413Y-46924938D01*
X139935403Y-46924936D01*
X139700001Y-46904341D01*
X139699999Y-46904341D01*
X139464596Y-46924936D01*
X139464586Y-46924938D01*
X139236344Y-46986094D01*
X139236335Y-46986098D01*
X139022171Y-47085964D01*
X139022169Y-47085965D01*
X138828597Y-47221505D01*
X138661505Y-47388597D01*
X138531575Y-47574158D01*
X138476998Y-47617783D01*
X138407500Y-47624977D01*
X138345145Y-47593454D01*
X138328425Y-47574158D01*
X138198494Y-47388597D01*
X138031402Y-47221506D01*
X138031395Y-47221501D01*
X137837834Y-47085967D01*
X137837830Y-47085965D01*
X137837828Y-47085964D01*
X137623663Y-46986097D01*
X137623659Y-46986096D01*
X137623655Y-46986094D01*
X137395413Y-46924938D01*
X137395403Y-46924936D01*
X137160001Y-46904341D01*
X137159999Y-46904341D01*
X136924596Y-46924936D01*
X136924586Y-46924938D01*
X136696344Y-46986094D01*
X136696335Y-46986098D01*
X136482171Y-47085964D01*
X136482169Y-47085965D01*
X136288597Y-47221505D01*
X136121505Y-47388597D01*
X135991575Y-47574158D01*
X135936998Y-47617783D01*
X135867500Y-47624977D01*
X135805145Y-47593454D01*
X135788425Y-47574158D01*
X135658494Y-47388597D01*
X135491402Y-47221506D01*
X135491395Y-47221501D01*
X135297834Y-47085967D01*
X135297830Y-47085965D01*
X135297828Y-47085964D01*
X135083663Y-46986097D01*
X135083659Y-46986096D01*
X135083655Y-46986094D01*
X134855413Y-46924938D01*
X134855403Y-46924936D01*
X134620001Y-46904341D01*
X134619999Y-46904341D01*
X134384596Y-46924936D01*
X134384586Y-46924938D01*
X134156344Y-46986094D01*
X134156335Y-46986098D01*
X133942171Y-47085964D01*
X133942169Y-47085965D01*
X133748597Y-47221505D01*
X133581505Y-47388597D01*
X133451575Y-47574158D01*
X133396998Y-47617783D01*
X133327500Y-47624977D01*
X133265145Y-47593454D01*
X133248425Y-47574158D01*
X133118494Y-47388597D01*
X132951402Y-47221506D01*
X132951395Y-47221501D01*
X132757834Y-47085967D01*
X132757830Y-47085965D01*
X132757828Y-47085964D01*
X132543663Y-46986097D01*
X132543659Y-46986096D01*
X132543655Y-46986094D01*
X132315413Y-46924938D01*
X132315403Y-46924936D01*
X132080001Y-46904341D01*
X132079999Y-46904341D01*
X131844596Y-46924936D01*
X131844586Y-46924938D01*
X131616344Y-46986094D01*
X131616335Y-46986098D01*
X131402171Y-47085964D01*
X131402169Y-47085965D01*
X131208597Y-47221505D01*
X131041508Y-47388594D01*
X130911269Y-47574595D01*
X130856692Y-47618219D01*
X130787193Y-47625412D01*
X130724839Y-47593890D01*
X130708119Y-47574594D01*
X130578113Y-47388926D01*
X130578108Y-47388920D01*
X130411082Y-47221894D01*
X130217578Y-47086399D01*
X130003492Y-46986570D01*
X130003486Y-46986567D01*
X129790000Y-46929364D01*
X129790000Y-47824498D01*
X129682315Y-47775320D01*
X129575763Y-47760000D01*
X129504237Y-47760000D01*
X129397685Y-47775320D01*
X129290000Y-47824498D01*
X129290000Y-46929364D01*
X129289999Y-46929364D01*
X129076513Y-46986567D01*
X129076507Y-46986570D01*
X128862422Y-47086399D01*
X128862420Y-47086400D01*
X128668926Y-47221886D01*
X128668920Y-47221891D01*
X128501891Y-47388920D01*
X128501890Y-47388922D01*
X128371880Y-47574595D01*
X128317303Y-47618219D01*
X128247804Y-47625412D01*
X128185450Y-47593890D01*
X128168730Y-47574594D01*
X128038494Y-47388597D01*
X127871402Y-47221506D01*
X127871395Y-47221501D01*
X127677834Y-47085967D01*
X127677830Y-47085965D01*
X127677828Y-47085964D01*
X127463663Y-46986097D01*
X127463659Y-46986096D01*
X127463655Y-46986094D01*
X127235413Y-46924938D01*
X127235403Y-46924936D01*
X127000001Y-46904341D01*
X126999999Y-46904341D01*
X126764596Y-46924936D01*
X126764586Y-46924938D01*
X126536344Y-46986094D01*
X126536335Y-46986098D01*
X126322171Y-47085964D01*
X126322169Y-47085965D01*
X126128597Y-47221505D01*
X125961505Y-47388597D01*
X125825965Y-47582169D01*
X125825964Y-47582171D01*
X125726098Y-47796335D01*
X125726094Y-47796344D01*
X125664938Y-48024586D01*
X125664936Y-48024596D01*
X125644341Y-48259999D01*
X125644341Y-48260000D01*
X125664936Y-48495403D01*
X125664938Y-48495413D01*
X125726094Y-48723655D01*
X125726096Y-48723659D01*
X125726097Y-48723663D01*
X125805801Y-48894588D01*
X125825965Y-48937830D01*
X125825967Y-48937834D01*
X125905566Y-49051512D01*
X125961504Y-49131400D01*
X125961506Y-49131402D01*
X126128595Y-49298492D01*
X126128598Y-49298494D01*
X126128599Y-49298495D01*
X126196623Y-49346125D01*
X126240248Y-49400701D01*
X126249500Y-49447700D01*
X126249500Y-49612298D01*
X126229815Y-49679337D01*
X126196625Y-49713872D01*
X126128595Y-49761507D01*
X125961505Y-49928597D01*
X125825965Y-50122169D01*
X125825964Y-50122171D01*
X125726098Y-50336335D01*
X125726094Y-50336344D01*
X125664938Y-50564586D01*
X125664936Y-50564596D01*
X125644341Y-50799999D01*
X125644341Y-50800000D01*
X125664936Y-51035403D01*
X125664938Y-51035413D01*
X125726094Y-51263655D01*
X125726096Y-51263659D01*
X125726097Y-51263663D01*
X125805801Y-51434588D01*
X125825965Y-51477830D01*
X125825967Y-51477834D01*
X125934281Y-51632521D01*
X125961505Y-51671401D01*
X126128599Y-51838495D01*
X126225384Y-51906265D01*
X126322165Y-51974032D01*
X126322167Y-51974033D01*
X126322170Y-51974035D01*
X126536337Y-52073903D01*
X126764592Y-52135063D01*
X126948977Y-52151195D01*
X126999999Y-52155659D01*
X127000000Y-52155659D01*
X127000001Y-52155659D01*
X127039234Y-52152226D01*
X127235408Y-52135063D01*
X127463663Y-52073903D01*
X127677830Y-51974035D01*
X127871401Y-51838495D01*
X128038495Y-51671401D01*
X128168730Y-51485405D01*
X128223307Y-51441781D01*
X128292805Y-51434587D01*
X128355160Y-51466110D01*
X128371879Y-51485405D01*
X128501890Y-51671078D01*
X128668917Y-51838105D01*
X128862421Y-51973600D01*
X129076507Y-52073429D01*
X129076516Y-52073433D01*
X129290000Y-52130634D01*
X129290000Y-51235501D01*
X129397685Y-51284680D01*
X129504237Y-51300000D01*
X129575763Y-51300000D01*
X129682315Y-51284680D01*
X129790000Y-51235501D01*
X129790000Y-52130633D01*
X130003483Y-52073433D01*
X130003492Y-52073429D01*
X130217578Y-51973600D01*
X130411082Y-51838105D01*
X130578105Y-51671082D01*
X130708119Y-51485405D01*
X130762696Y-51441781D01*
X130832195Y-51434588D01*
X130894549Y-51466110D01*
X130911269Y-51485405D01*
X131041505Y-51671401D01*
X131208599Y-51838495D01*
X131305384Y-51906265D01*
X131402165Y-51974032D01*
X131402167Y-51974033D01*
X131402170Y-51974035D01*
X131616337Y-52073903D01*
X131844592Y-52135063D01*
X132028977Y-52151195D01*
X132079999Y-52155659D01*
X132080000Y-52155659D01*
X132080001Y-52155659D01*
X132119234Y-52152226D01*
X132315408Y-52135063D01*
X132415873Y-52108143D01*
X132485722Y-52109806D01*
X132535647Y-52140237D01*
X135990181Y-55594771D01*
X136023666Y-55656094D01*
X136026500Y-55682452D01*
X136026500Y-66211255D01*
X136024775Y-66226872D01*
X136025061Y-66226899D01*
X136024326Y-66234665D01*
X136026500Y-66303814D01*
X136026500Y-66333343D01*
X136026501Y-66333360D01*
X136027368Y-66340231D01*
X136027826Y-66346050D01*
X136029290Y-66392624D01*
X136029291Y-66392627D01*
X136034880Y-66411867D01*
X136038824Y-66430911D01*
X136041336Y-66450791D01*
X136058490Y-66494119D01*
X136060382Y-66499647D01*
X136073381Y-66544388D01*
X136083580Y-66561634D01*
X136092138Y-66579103D01*
X136099514Y-66597732D01*
X136126898Y-66635423D01*
X136130106Y-66640307D01*
X136153827Y-66680416D01*
X136153833Y-66680424D01*
X136167990Y-66694580D01*
X136180628Y-66709376D01*
X136192405Y-66725586D01*
X136192406Y-66725587D01*
X136228309Y-66755288D01*
X136232620Y-66759210D01*
X136794856Y-67321446D01*
X137133181Y-67659771D01*
X137166666Y-67721094D01*
X137169500Y-67747452D01*
X137169500Y-74847255D01*
X137167775Y-74862872D01*
X137168061Y-74862899D01*
X137167326Y-74870665D01*
X137169500Y-74939814D01*
X137169500Y-74969343D01*
X137169501Y-74969360D01*
X137170368Y-74976231D01*
X137170826Y-74982050D01*
X137172290Y-75028624D01*
X137172291Y-75028627D01*
X137177880Y-75047867D01*
X137181824Y-75066911D01*
X137184336Y-75086791D01*
X137201490Y-75130119D01*
X137203382Y-75135647D01*
X137216381Y-75180388D01*
X137226580Y-75197634D01*
X137235138Y-75215103D01*
X137242514Y-75233732D01*
X137269898Y-75271423D01*
X137273106Y-75276307D01*
X137296827Y-75316416D01*
X137296833Y-75316424D01*
X137310990Y-75330580D01*
X137323628Y-75345376D01*
X137335405Y-75361586D01*
X137335406Y-75361587D01*
X137371309Y-75391288D01*
X137375620Y-75395210D01*
X137756719Y-75776309D01*
X138105887Y-76125477D01*
X138139372Y-76186800D01*
X138134388Y-76256492D01*
X138130589Y-76265562D01*
X138073260Y-76388506D01*
X138073258Y-76388511D01*
X138014366Y-76608302D01*
X138014364Y-76608313D01*
X137994532Y-76834998D01*
X137994532Y-76835005D01*
X137996568Y-76858282D01*
X137982800Y-76926782D01*
X137934184Y-76976964D01*
X137866155Y-76992896D01*
X137800312Y-76969519D01*
X137785359Y-76956768D01*
X136644803Y-75816212D01*
X136634980Y-75803950D01*
X136634759Y-75804134D01*
X136629786Y-75798123D01*
X136611159Y-75780631D01*
X136579364Y-75750773D01*
X136568919Y-75740328D01*
X136558475Y-75729883D01*
X136552986Y-75725625D01*
X136548561Y-75721847D01*
X136514582Y-75689938D01*
X136514580Y-75689936D01*
X136514577Y-75689935D01*
X136497029Y-75680288D01*
X136480763Y-75669604D01*
X136464933Y-75657325D01*
X136422168Y-75638818D01*
X136416922Y-75636248D01*
X136376093Y-75613803D01*
X136376092Y-75613802D01*
X136356693Y-75608822D01*
X136338281Y-75602518D01*
X136319898Y-75594562D01*
X136319892Y-75594560D01*
X136273874Y-75587272D01*
X136268152Y-75586087D01*
X136223021Y-75574500D01*
X136223019Y-75574500D01*
X136202984Y-75574500D01*
X136183586Y-75572973D01*
X136176162Y-75571797D01*
X136163805Y-75569840D01*
X136163804Y-75569840D01*
X136117416Y-75574225D01*
X136111578Y-75574500D01*
X122002743Y-75574500D01*
X121987122Y-75572775D01*
X121987096Y-75573061D01*
X121979334Y-75572327D01*
X121979333Y-75572327D01*
X121910186Y-75574500D01*
X121880649Y-75574500D01*
X121873766Y-75575369D01*
X121867949Y-75575826D01*
X121821373Y-75577290D01*
X121802129Y-75582881D01*
X121783079Y-75586825D01*
X121763211Y-75589334D01*
X121719884Y-75606488D01*
X121714358Y-75608379D01*
X121669614Y-75621379D01*
X121669610Y-75621381D01*
X121652366Y-75631579D01*
X121634905Y-75640133D01*
X121616274Y-75647510D01*
X121616262Y-75647517D01*
X121578570Y-75674902D01*
X121573687Y-75678109D01*
X121533580Y-75701829D01*
X121519414Y-75715995D01*
X121504624Y-75728627D01*
X121488414Y-75740404D01*
X121488411Y-75740407D01*
X121458710Y-75776309D01*
X121454777Y-75780631D01*
X120388997Y-76846411D01*
X120327674Y-76879896D01*
X120269223Y-76878505D01*
X120232977Y-76868793D01*
X120015002Y-76849723D01*
X120014998Y-76849723D01*
X119876738Y-76861819D01*
X119797023Y-76868793D01*
X119797020Y-76868793D01*
X119585677Y-76925422D01*
X119585668Y-76925426D01*
X119387361Y-77017898D01*
X119387357Y-77017900D01*
X119208121Y-77143402D01*
X119053402Y-77298121D01*
X118927900Y-77477357D01*
X118927898Y-77477361D01*
X118835426Y-77675668D01*
X118835422Y-77675677D01*
X118778793Y-77887020D01*
X118778793Y-77887024D01*
X118759824Y-78103851D01*
X118759723Y-78105000D01*
X118773762Y-78265476D01*
X118778793Y-78322975D01*
X118778793Y-78322979D01*
X118835422Y-78534322D01*
X118835424Y-78534326D01*
X118835425Y-78534330D01*
X118881661Y-78633484D01*
X118927897Y-78732638D01*
X118927898Y-78732639D01*
X119053402Y-78911877D01*
X119208123Y-79066598D01*
X119387360Y-79192101D01*
X119387361Y-79192102D01*
X119538583Y-79262618D01*
X119591022Y-79308790D01*
X119610174Y-79375984D01*
X119589958Y-79442865D01*
X119538583Y-79487382D01*
X119387361Y-79557898D01*
X119387357Y-79557900D01*
X119208121Y-79683402D01*
X119053402Y-79838121D01*
X118927900Y-80017357D01*
X118927898Y-80017361D01*
X118835426Y-80215668D01*
X118835422Y-80215677D01*
X118778793Y-80427020D01*
X118778793Y-80427024D01*
X118759723Y-80644997D01*
X118759723Y-80645002D01*
X118763508Y-80688261D01*
X118776205Y-80833400D01*
X118778793Y-80862975D01*
X118778793Y-80862979D01*
X118835422Y-81074322D01*
X118835424Y-81074326D01*
X118835425Y-81074330D01*
X118836287Y-81076178D01*
X118927897Y-81272638D01*
X118927898Y-81272639D01*
X119053402Y-81451877D01*
X119208123Y-81606598D01*
X119333720Y-81694542D01*
X119387361Y-81732102D01*
X119538583Y-81802618D01*
X119591022Y-81848790D01*
X119610174Y-81915984D01*
X119589958Y-81982865D01*
X119538583Y-82027382D01*
X119387361Y-82097898D01*
X119387357Y-82097900D01*
X119208121Y-82223402D01*
X119053402Y-82378121D01*
X118927900Y-82557357D01*
X118927898Y-82557361D01*
X118835426Y-82755668D01*
X118835422Y-82755677D01*
X118778793Y-82967020D01*
X118778793Y-82967024D01*
X118759723Y-83184997D01*
X118759723Y-83185002D01*
X118778793Y-83402975D01*
X118778793Y-83402979D01*
X118835422Y-83614322D01*
X118835424Y-83614326D01*
X118835425Y-83614330D01*
X118881661Y-83713484D01*
X118927897Y-83812638D01*
X118927898Y-83812639D01*
X119053402Y-83991877D01*
X119208123Y-84146598D01*
X119370552Y-84260332D01*
X119387361Y-84272102D01*
X119538583Y-84342618D01*
X119591022Y-84388790D01*
X119610174Y-84455984D01*
X119589958Y-84522865D01*
X119538583Y-84567382D01*
X119387361Y-84637898D01*
X119387357Y-84637900D01*
X119208121Y-84763402D01*
X119053402Y-84918121D01*
X118927900Y-85097357D01*
X118927898Y-85097361D01*
X118835426Y-85295668D01*
X118835422Y-85295677D01*
X118778793Y-85507020D01*
X118778793Y-85507024D01*
X118759723Y-85724997D01*
X118759723Y-85725002D01*
X118778793Y-85942975D01*
X118778793Y-85942979D01*
X118835422Y-86154322D01*
X118835424Y-86154326D01*
X118835425Y-86154330D01*
X118876057Y-86241466D01*
X118927897Y-86352638D01*
X118944898Y-86376918D01*
X119053402Y-86531877D01*
X119208123Y-86686598D01*
X119387360Y-86812101D01*
X119387361Y-86812102D01*
X119538583Y-86882618D01*
X119591022Y-86928790D01*
X119610174Y-86995984D01*
X119589958Y-87062865D01*
X119538583Y-87107382D01*
X119387361Y-87177898D01*
X119387357Y-87177900D01*
X119208121Y-87303402D01*
X119053402Y-87458121D01*
X118927900Y-87637357D01*
X118927898Y-87637361D01*
X118835426Y-87835668D01*
X118835422Y-87835677D01*
X118778793Y-88047020D01*
X118778793Y-88047024D01*
X118759723Y-88264997D01*
X118759723Y-88265002D01*
X118762094Y-88292099D01*
X118775629Y-88446816D01*
X118778793Y-88482975D01*
X118778793Y-88482979D01*
X118835422Y-88694322D01*
X118835424Y-88694326D01*
X118835425Y-88694330D01*
X118836138Y-88695858D01*
X118927897Y-88892638D01*
X118927898Y-88892639D01*
X119053402Y-89071877D01*
X119208123Y-89226598D01*
X119387360Y-89352101D01*
X119387361Y-89352102D01*
X119538583Y-89422618D01*
X119591022Y-89468790D01*
X119610174Y-89535984D01*
X119589958Y-89602865D01*
X119538583Y-89647382D01*
X119387361Y-89717898D01*
X119387357Y-89717900D01*
X119208121Y-89843402D01*
X119053402Y-89998121D01*
X118927900Y-90177357D01*
X118927898Y-90177361D01*
X118835426Y-90375668D01*
X118835422Y-90375677D01*
X118778793Y-90587020D01*
X118778793Y-90587024D01*
X118759723Y-90804997D01*
X118759723Y-90805002D01*
X118769258Y-90913988D01*
X118777734Y-91010877D01*
X118778793Y-91022975D01*
X118778793Y-91022979D01*
X118835422Y-91234322D01*
X118835424Y-91234326D01*
X118835425Y-91234330D01*
X118873270Y-91315488D01*
X118927897Y-91432638D01*
X118927898Y-91432639D01*
X119053402Y-91611877D01*
X119208123Y-91766598D01*
X119387361Y-91892102D01*
X119585670Y-91984575D01*
X119797023Y-92041207D01*
X119979926Y-92057208D01*
X120014998Y-92060277D01*
X120015000Y-92060277D01*
X120015002Y-92060277D01*
X120043724Y-92057764D01*
X120232977Y-92041207D01*
X120444330Y-91984575D01*
X120642639Y-91892102D01*
X120821877Y-91766598D01*
X120976598Y-91611877D01*
X121102102Y-91432639D01*
X121194575Y-91234330D01*
X121251207Y-91022977D01*
X121268015Y-90830856D01*
X121270277Y-90805002D01*
X121270277Y-90804997D01*
X121265086Y-90745665D01*
X121251207Y-90587023D01*
X121194575Y-90375670D01*
X121102102Y-90177362D01*
X121102100Y-90177359D01*
X121102099Y-90177357D01*
X120976599Y-89998124D01*
X120925991Y-89947516D01*
X120821877Y-89843402D01*
X120642639Y-89717898D01*
X120491414Y-89647381D01*
X120438977Y-89601210D01*
X120419825Y-89534016D01*
X120440041Y-89467135D01*
X120491414Y-89422618D01*
X120642639Y-89352102D01*
X120821877Y-89226598D01*
X120976598Y-89071877D01*
X121102102Y-88892639D01*
X121194575Y-88694330D01*
X121251207Y-88482977D01*
X121270277Y-88265000D01*
X121251207Y-88047023D01*
X121241494Y-88010774D01*
X121243157Y-87940925D01*
X121273586Y-87891002D01*
X124894821Y-84269768D01*
X124956142Y-84236285D01*
X125025834Y-84241269D01*
X125081767Y-84283141D01*
X125106184Y-84348605D01*
X125106500Y-84357451D01*
X125106500Y-84936677D01*
X125089887Y-84998677D01*
X125029821Y-85102714D01*
X125021050Y-85129709D01*
X124971326Y-85282744D01*
X124951540Y-85471000D01*
X124971326Y-85659256D01*
X124971327Y-85659259D01*
X125029818Y-85839277D01*
X125029821Y-85839284D01*
X125124467Y-86003216D01*
X125216577Y-86105514D01*
X125251129Y-86143888D01*
X125404265Y-86255148D01*
X125404270Y-86255151D01*
X125577192Y-86332142D01*
X125577197Y-86332144D01*
X125762354Y-86371500D01*
X125762355Y-86371500D01*
X125951644Y-86371500D01*
X125951646Y-86371500D01*
X126136803Y-86332144D01*
X126309730Y-86255151D01*
X126462871Y-86143888D01*
X126589533Y-86003216D01*
X126684179Y-85839284D01*
X126742674Y-85659256D01*
X126762460Y-85471000D01*
X126742674Y-85282744D01*
X126684179Y-85102716D01*
X126653732Y-85049979D01*
X126624113Y-84998677D01*
X126607500Y-84936677D01*
X126607500Y-80163321D01*
X126624113Y-80101321D01*
X126651115Y-80054552D01*
X126684179Y-79997284D01*
X126742674Y-79817256D01*
X126762460Y-79629000D01*
X126749160Y-79502459D01*
X126761730Y-79433732D01*
X126809462Y-79382708D01*
X126872481Y-79365500D01*
X126931252Y-79365500D01*
X126998291Y-79385185D01*
X127023400Y-79406526D01*
X127029126Y-79412885D01*
X127029130Y-79412889D01*
X127182265Y-79524148D01*
X127182270Y-79524151D01*
X127355192Y-79601142D01*
X127355197Y-79601144D01*
X127540354Y-79640500D01*
X127540355Y-79640500D01*
X127729644Y-79640500D01*
X127729646Y-79640500D01*
X127914803Y-79601144D01*
X128087730Y-79524151D01*
X128240871Y-79412888D01*
X128367533Y-79272216D01*
X128462179Y-79108284D01*
X128520674Y-78928256D01*
X128540460Y-78740000D01*
X128520674Y-78551744D01*
X128462179Y-78371716D01*
X128367533Y-78207784D01*
X128240871Y-78067112D01*
X128240870Y-78067111D01*
X128087734Y-77955851D01*
X128087729Y-77955848D01*
X127914807Y-77878857D01*
X127914802Y-77878855D01*
X127769001Y-77847865D01*
X127729646Y-77839500D01*
X127540354Y-77839500D01*
X127507897Y-77846398D01*
X127355197Y-77878855D01*
X127355192Y-77878857D01*
X127182270Y-77955848D01*
X127182265Y-77955851D01*
X127029130Y-78067110D01*
X127029126Y-78067114D01*
X127023400Y-78073474D01*
X126963913Y-78110121D01*
X126931252Y-78114500D01*
X125803432Y-78114500D01*
X125787815Y-78112776D01*
X125787788Y-78113062D01*
X125780026Y-78112327D01*
X125710898Y-78114500D01*
X125681345Y-78114500D01*
X125680624Y-78114590D01*
X125674452Y-78115369D01*
X125668640Y-78115826D01*
X125622067Y-78117290D01*
X125622064Y-78117291D01*
X125602821Y-78122881D01*
X125583778Y-78126825D01*
X125563899Y-78129336D01*
X125563898Y-78129337D01*
X125520573Y-78146490D01*
X125515047Y-78148382D01*
X125470303Y-78161383D01*
X125470299Y-78161385D01*
X125453060Y-78171580D01*
X125435593Y-78180137D01*
X125416964Y-78187512D01*
X125416962Y-78187513D01*
X125379259Y-78214906D01*
X125374377Y-78218112D01*
X125334275Y-78241828D01*
X125320103Y-78256000D01*
X125305318Y-78268628D01*
X125289107Y-78280407D01*
X125259404Y-78316310D01*
X125255472Y-78320631D01*
X124748208Y-78827894D01*
X124735951Y-78837715D01*
X124736134Y-78837936D01*
X124730123Y-78842908D01*
X124682772Y-78893331D01*
X124661889Y-78914214D01*
X124661877Y-78914227D01*
X124657621Y-78919712D01*
X124653837Y-78924142D01*
X124621937Y-78958113D01*
X124621936Y-78958115D01*
X124612284Y-78975671D01*
X124601610Y-78991921D01*
X124589329Y-79007756D01*
X124589324Y-79007763D01*
X124570815Y-79050533D01*
X124568245Y-79055779D01*
X124545803Y-79096601D01*
X124540822Y-79116002D01*
X124534521Y-79134405D01*
X124526562Y-79152797D01*
X124526561Y-79152800D01*
X124519271Y-79198822D01*
X124518087Y-79204541D01*
X124506501Y-79249667D01*
X124506500Y-79249677D01*
X124506500Y-79269711D01*
X124504973Y-79289110D01*
X124501840Y-79308889D01*
X124501840Y-79308890D01*
X124506225Y-79355278D01*
X124506500Y-79361116D01*
X124506500Y-82837546D01*
X124486815Y-82904585D01*
X124470181Y-82925227D01*
X121472815Y-85922592D01*
X121411492Y-85956077D01*
X121341800Y-85951093D01*
X121285867Y-85909221D01*
X121261450Y-85843757D01*
X121261605Y-85824113D01*
X121270277Y-85725000D01*
X121251207Y-85507023D01*
X121194575Y-85295670D01*
X121102102Y-85097362D01*
X121102100Y-85097359D01*
X121102099Y-85097357D01*
X120976599Y-84918124D01*
X120976596Y-84918121D01*
X120821877Y-84763402D01*
X120642639Y-84637898D01*
X120491414Y-84567381D01*
X120438977Y-84521210D01*
X120419825Y-84454016D01*
X120440041Y-84387135D01*
X120491414Y-84342618D01*
X120642639Y-84272102D01*
X120821877Y-84146598D01*
X120976598Y-83991877D01*
X121102102Y-83812639D01*
X121194575Y-83614330D01*
X121251207Y-83402977D01*
X121270277Y-83185000D01*
X121251207Y-82967023D01*
X121194575Y-82755670D01*
X121102102Y-82557362D01*
X121102100Y-82557359D01*
X121102099Y-82557357D01*
X120976599Y-82378124D01*
X120913475Y-82315000D01*
X120821877Y-82223402D01*
X120642639Y-82097898D01*
X120491414Y-82027381D01*
X120438977Y-81981210D01*
X120419825Y-81914016D01*
X120440041Y-81847135D01*
X120491414Y-81802618D01*
X120642639Y-81732102D01*
X120821877Y-81606598D01*
X120976598Y-81451877D01*
X121102102Y-81272639D01*
X121194575Y-81074330D01*
X121251207Y-80862977D01*
X121267805Y-80673254D01*
X121270277Y-80645002D01*
X121270277Y-80644997D01*
X121260946Y-80538347D01*
X121251207Y-80427023D01*
X121194575Y-80215670D01*
X121102102Y-80017362D01*
X121102100Y-80017359D01*
X121102099Y-80017357D01*
X120976599Y-79838124D01*
X120916381Y-79777906D01*
X120821877Y-79683402D01*
X120642639Y-79557898D01*
X120491414Y-79487381D01*
X120438977Y-79441210D01*
X120419825Y-79374016D01*
X120440041Y-79307135D01*
X120491414Y-79262618D01*
X120642639Y-79192102D01*
X120821877Y-79066598D01*
X120976598Y-78911877D01*
X121102102Y-78732639D01*
X121194575Y-78534330D01*
X121251207Y-78322977D01*
X121270277Y-78105000D01*
X121270176Y-78103851D01*
X121259165Y-77977988D01*
X121251207Y-77887023D01*
X121241494Y-77850774D01*
X121243157Y-77780925D01*
X121273586Y-77731002D01*
X122142772Y-76861819D01*
X122204095Y-76828334D01*
X122230453Y-76825500D01*
X129331262Y-76825500D01*
X129398301Y-76845185D01*
X129444056Y-76897989D01*
X129454000Y-76967147D01*
X129449193Y-76987818D01*
X129439420Y-77017898D01*
X129402526Y-77131444D01*
X129382740Y-77319700D01*
X129402526Y-77507956D01*
X129402527Y-77507959D01*
X129461018Y-77687977D01*
X129461021Y-77687984D01*
X129555667Y-77851916D01*
X129649248Y-77955848D01*
X129682329Y-77992588D01*
X129835465Y-78103848D01*
X129835470Y-78103851D01*
X130008392Y-78180842D01*
X130008397Y-78180844D01*
X130193554Y-78220200D01*
X130193555Y-78220200D01*
X130382844Y-78220200D01*
X130382846Y-78220200D01*
X130568003Y-78180844D01*
X130740930Y-78103851D01*
X130894071Y-77992588D01*
X131020733Y-77851916D01*
X131044186Y-77811294D01*
X131098512Y-77717200D01*
X131149079Y-77668984D01*
X131205899Y-77655200D01*
X133919310Y-77655200D01*
X133986349Y-77674885D01*
X134032104Y-77727689D01*
X134042048Y-77796847D01*
X134039086Y-77811287D01*
X134028200Y-77851916D01*
X134018793Y-77887023D01*
X134018793Y-77887024D01*
X133999824Y-78103851D01*
X133999723Y-78105000D01*
X134013762Y-78265476D01*
X134018793Y-78322975D01*
X134018793Y-78322979D01*
X134028505Y-78359223D01*
X134026842Y-78429073D01*
X133996411Y-78478997D01*
X132966208Y-79509199D01*
X132953951Y-79519020D01*
X132954134Y-79519241D01*
X132948123Y-79524213D01*
X132900772Y-79574636D01*
X132879889Y-79595519D01*
X132879877Y-79595532D01*
X132875621Y-79601017D01*
X132871837Y-79605447D01*
X132839937Y-79639418D01*
X132839936Y-79639420D01*
X132830284Y-79656976D01*
X132819610Y-79673226D01*
X132807329Y-79689061D01*
X132807324Y-79689068D01*
X132788815Y-79731838D01*
X132786245Y-79737084D01*
X132763803Y-79777906D01*
X132758822Y-79797307D01*
X132752521Y-79815710D01*
X132744562Y-79834102D01*
X132744561Y-79834105D01*
X132737271Y-79880127D01*
X132736087Y-79885846D01*
X132724501Y-79930972D01*
X132724500Y-79930982D01*
X132724500Y-79951016D01*
X132722973Y-79970413D01*
X132722681Y-79972256D01*
X132719840Y-79990194D01*
X132719840Y-79990195D01*
X132724225Y-80036583D01*
X132724500Y-80042421D01*
X132724500Y-89973600D01*
X132704815Y-90040639D01*
X132652011Y-90086394D01*
X132606261Y-90096346D01*
X132606322Y-90096920D01*
X132601103Y-90097468D01*
X132600500Y-90097600D01*
X132599854Y-90097600D01*
X132567397Y-90104498D01*
X132414697Y-90136955D01*
X132414692Y-90136957D01*
X132241770Y-90213948D01*
X132241765Y-90213951D01*
X132088629Y-90325211D01*
X131961966Y-90465885D01*
X131867321Y-90629815D01*
X131867318Y-90629822D01*
X131829679Y-90745665D01*
X131808826Y-90809844D01*
X131797524Y-90917382D01*
X131789107Y-90997462D01*
X131762522Y-91062076D01*
X131705225Y-91102061D01*
X131665786Y-91108500D01*
X130187952Y-91108500D01*
X130120913Y-91088815D01*
X130100271Y-91072181D01*
X129725060Y-90696969D01*
X129691575Y-90635646D01*
X129689423Y-90622268D01*
X129671774Y-90454344D01*
X129613279Y-90274316D01*
X129518633Y-90110384D01*
X129391971Y-89969712D01*
X129391970Y-89969711D01*
X129238834Y-89858451D01*
X129238829Y-89858448D01*
X129065907Y-89781457D01*
X129065902Y-89781455D01*
X128920101Y-89750465D01*
X128880746Y-89742100D01*
X128691454Y-89742100D01*
X128658997Y-89748998D01*
X128506297Y-89781455D01*
X128506292Y-89781457D01*
X128333370Y-89858448D01*
X128333365Y-89858451D01*
X128180229Y-89969711D01*
X128053566Y-90110385D01*
X127958921Y-90274315D01*
X127958918Y-90274322D01*
X127914337Y-90411530D01*
X127900426Y-90454344D01*
X127880640Y-90642600D01*
X127900426Y-90830856D01*
X127900427Y-90830859D01*
X127958918Y-91010877D01*
X127958921Y-91010884D01*
X128053567Y-91174816D01*
X128173405Y-91307909D01*
X128180229Y-91315488D01*
X128333365Y-91426748D01*
X128333370Y-91426751D01*
X128506292Y-91503742D01*
X128506297Y-91503744D01*
X128691454Y-91543100D01*
X128750648Y-91543100D01*
X128817687Y-91562785D01*
X128838329Y-91579419D01*
X129376694Y-92117784D01*
X129386519Y-92130048D01*
X129386740Y-92129866D01*
X129391710Y-92135873D01*
X129391713Y-92135876D01*
X129391714Y-92135877D01*
X129442151Y-92183241D01*
X129463030Y-92204120D01*
X129468504Y-92208366D01*
X129472942Y-92212156D01*
X129506918Y-92244062D01*
X129506922Y-92244064D01*
X129524473Y-92253713D01*
X129540731Y-92264392D01*
X129556564Y-92276674D01*
X129578515Y-92286172D01*
X129599337Y-92295183D01*
X129604581Y-92297752D01*
X129645408Y-92320197D01*
X129664812Y-92325179D01*
X129683210Y-92331478D01*
X129701605Y-92339438D01*
X129747629Y-92346726D01*
X129753332Y-92347907D01*
X129798481Y-92359500D01*
X129818516Y-92359500D01*
X129837913Y-92361026D01*
X129857696Y-92364160D01*
X129904084Y-92359775D01*
X129909922Y-92359500D01*
X132958457Y-92359500D01*
X132974077Y-92361224D01*
X132974104Y-92360939D01*
X132981860Y-92361671D01*
X132981867Y-92361673D01*
X133051014Y-92359500D01*
X133080550Y-92359500D01*
X133087428Y-92358630D01*
X133093241Y-92358172D01*
X133139827Y-92356709D01*
X133159069Y-92351117D01*
X133178112Y-92347174D01*
X133197992Y-92344664D01*
X133241322Y-92327507D01*
X133246846Y-92325617D01*
X133250596Y-92324527D01*
X133291590Y-92312618D01*
X133308829Y-92302422D01*
X133326303Y-92293862D01*
X133344927Y-92286488D01*
X133344927Y-92286487D01*
X133344932Y-92286486D01*
X133382649Y-92259082D01*
X133387505Y-92255892D01*
X133427620Y-92232170D01*
X133441789Y-92217999D01*
X133456579Y-92205368D01*
X133472787Y-92193594D01*
X133502499Y-92157676D01*
X133506412Y-92153376D01*
X133874931Y-91784857D01*
X133936252Y-91751374D01*
X134005944Y-91756358D01*
X134061875Y-91798227D01*
X134147454Y-91912546D01*
X134180898Y-91937582D01*
X134262664Y-91998793D01*
X134262671Y-91998797D01*
X134397517Y-92049091D01*
X134397516Y-92049091D01*
X134404444Y-92049835D01*
X134457127Y-92055500D01*
X136052872Y-92055499D01*
X136112483Y-92049091D01*
X136247331Y-91998796D01*
X136362546Y-91912546D01*
X136362551Y-91912538D01*
X136368813Y-91906278D01*
X136371098Y-91908563D01*
X136414343Y-91876178D01*
X136484033Y-91871180D01*
X136545362Y-91904652D01*
X137554848Y-92914139D01*
X138224897Y-93584188D01*
X138234722Y-93596451D01*
X138234943Y-93596269D01*
X138239911Y-93602274D01*
X138271164Y-93631623D01*
X138306558Y-93691864D01*
X138303766Y-93761678D01*
X138287855Y-93793138D01*
X138169432Y-93962265D01*
X138169431Y-93962267D01*
X138073261Y-94168502D01*
X138073258Y-94168511D01*
X138014366Y-94388302D01*
X138014364Y-94388313D01*
X137994532Y-94614998D01*
X137994532Y-94615001D01*
X138014364Y-94841686D01*
X138014366Y-94841697D01*
X138073258Y-95061488D01*
X138073261Y-95061497D01*
X138169431Y-95267732D01*
X138169432Y-95267734D01*
X138299954Y-95454141D01*
X138460858Y-95615045D01*
X138460861Y-95615047D01*
X138647266Y-95745568D01*
X138705275Y-95772618D01*
X138757714Y-95818791D01*
X138776866Y-95885984D01*
X138756650Y-95952865D01*
X138705275Y-95997382D01*
X138647267Y-96024431D01*
X138647265Y-96024432D01*
X138460858Y-96154954D01*
X138299954Y-96315858D01*
X138169432Y-96502265D01*
X138169431Y-96502267D01*
X138073261Y-96708502D01*
X138073258Y-96708511D01*
X138014366Y-96928302D01*
X138014364Y-96928313D01*
X137994532Y-97154998D01*
X137994532Y-97155001D01*
X138014364Y-97381686D01*
X138014366Y-97381697D01*
X138073258Y-97601488D01*
X138073261Y-97601497D01*
X138169431Y-97807732D01*
X138169432Y-97807734D01*
X138299954Y-97994141D01*
X138460858Y-98155045D01*
X138460861Y-98155047D01*
X138647266Y-98285568D01*
X138704681Y-98312341D01*
X138705275Y-98312618D01*
X138757714Y-98358791D01*
X138776866Y-98425984D01*
X138756650Y-98492865D01*
X138705275Y-98537382D01*
X138647267Y-98564431D01*
X138647265Y-98564432D01*
X138460858Y-98694954D01*
X138299954Y-98855858D01*
X138169432Y-99042265D01*
X138169431Y-99042267D01*
X138073261Y-99248502D01*
X138073258Y-99248511D01*
X138014366Y-99468302D01*
X138014364Y-99468313D01*
X137994532Y-99694998D01*
X137994532Y-99695001D01*
X138014364Y-99921686D01*
X138014366Y-99921697D01*
X138073258Y-100141488D01*
X138073261Y-100141497D01*
X138169431Y-100347732D01*
X138169432Y-100347734D01*
X138299954Y-100534141D01*
X138460858Y-100695045D01*
X138460861Y-100695047D01*
X138647266Y-100825568D01*
X138705275Y-100852618D01*
X138757714Y-100898791D01*
X138776866Y-100965984D01*
X138756650Y-101032865D01*
X138705275Y-101077382D01*
X138647267Y-101104431D01*
X138647265Y-101104432D01*
X138460858Y-101234954D01*
X138299954Y-101395858D01*
X138169432Y-101582265D01*
X138169431Y-101582267D01*
X138073261Y-101788502D01*
X138073258Y-101788511D01*
X138014366Y-102008302D01*
X138014364Y-102008313D01*
X137994532Y-102234998D01*
X137994532Y-102235001D01*
X138014364Y-102461686D01*
X138014366Y-102461697D01*
X138073258Y-102681488D01*
X138073261Y-102681497D01*
X138169431Y-102887732D01*
X138169432Y-102887734D01*
X138299954Y-103074141D01*
X138460858Y-103235045D01*
X138460861Y-103235047D01*
X138647266Y-103365568D01*
X138705865Y-103392893D01*
X138758305Y-103439065D01*
X138777457Y-103506258D01*
X138757242Y-103573139D01*
X138705867Y-103617657D01*
X138647515Y-103644867D01*
X138461179Y-103775342D01*
X138300342Y-103936179D01*
X138169865Y-104122517D01*
X138073734Y-104328673D01*
X138073730Y-104328682D01*
X138021127Y-104524999D01*
X138021128Y-104525000D01*
X139384314Y-104525000D01*
X139372359Y-104536955D01*
X139314835Y-104649852D01*
X139295014Y-104775000D01*
X139314835Y-104900148D01*
X139372359Y-105013045D01*
X139384314Y-105025000D01*
X138021128Y-105025000D01*
X138073730Y-105221317D01*
X138073734Y-105221326D01*
X138169865Y-105427482D01*
X138300342Y-105613820D01*
X138461179Y-105774657D01*
X138647517Y-105905134D01*
X138853673Y-106001265D01*
X138853682Y-106001269D01*
X139073389Y-106060139D01*
X139073400Y-106060141D01*
X139243237Y-106075000D01*
X139450000Y-106075000D01*
X139450000Y-105090686D01*
X139461955Y-105102641D01*
X139574852Y-105160165D01*
X139668519Y-105175000D01*
X139731481Y-105175000D01*
X139825148Y-105160165D01*
X139938045Y-105102641D01*
X139950000Y-105090686D01*
X139950000Y-106075000D01*
X140156763Y-106075000D01*
X140326599Y-106060141D01*
X140326610Y-106060139D01*
X140546317Y-106001269D01*
X140546326Y-106001265D01*
X140752482Y-105905134D01*
X140938820Y-105774657D01*
X141099657Y-105613820D01*
X141230134Y-105427482D01*
X141326265Y-105221326D01*
X141326269Y-105221317D01*
X141378872Y-105025000D01*
X140015686Y-105025000D01*
X140027641Y-105013045D01*
X140085165Y-104900148D01*
X140104986Y-104775000D01*
X140085165Y-104649852D01*
X140027641Y-104536955D01*
X140015686Y-104525000D01*
X141378872Y-104525000D01*
X141378872Y-104524999D01*
X141326269Y-104328682D01*
X141326265Y-104328673D01*
X141230134Y-104122517D01*
X141099657Y-103936179D01*
X140938820Y-103775342D01*
X140752482Y-103644865D01*
X140694133Y-103617657D01*
X140641694Y-103571484D01*
X140622542Y-103504291D01*
X140642758Y-103437410D01*
X140694129Y-103392895D01*
X140752734Y-103365568D01*
X140939139Y-103235047D01*
X141100047Y-103074139D01*
X141230568Y-102887734D01*
X141326739Y-102681496D01*
X141385635Y-102461692D01*
X141405468Y-102235000D01*
X141385635Y-102008308D01*
X141326739Y-101788504D01*
X141230568Y-101582266D01*
X141100047Y-101395861D01*
X141100045Y-101395858D01*
X140939141Y-101234954D01*
X140752734Y-101104432D01*
X140752728Y-101104429D01*
X140694725Y-101077382D01*
X140642285Y-101031210D01*
X140623133Y-100964017D01*
X140643348Y-100897135D01*
X140694725Y-100852618D01*
X140752734Y-100825568D01*
X140939139Y-100695047D01*
X141100047Y-100534139D01*
X141230568Y-100347734D01*
X141326739Y-100141496D01*
X141385635Y-99921692D01*
X141405468Y-99695000D01*
X141385635Y-99468308D01*
X141326739Y-99248504D01*
X141230568Y-99042266D01*
X141100047Y-98855861D01*
X141100045Y-98855858D01*
X140939141Y-98694954D01*
X140752734Y-98564432D01*
X140752728Y-98564429D01*
X140694725Y-98537382D01*
X140642285Y-98491210D01*
X140623133Y-98424017D01*
X140643348Y-98357135D01*
X140694725Y-98312618D01*
X140695319Y-98312341D01*
X140752734Y-98285568D01*
X140939139Y-98155047D01*
X141100047Y-97994139D01*
X141230568Y-97807734D01*
X141326739Y-97601496D01*
X141385635Y-97381692D01*
X141405468Y-97155000D01*
X141385635Y-96928308D01*
X141326739Y-96708504D01*
X141230568Y-96502266D01*
X141100047Y-96315861D01*
X141100045Y-96315858D01*
X140939141Y-96154954D01*
X140752734Y-96024432D01*
X140752728Y-96024429D01*
X140694725Y-95997382D01*
X140642285Y-95951210D01*
X140623133Y-95884017D01*
X140643348Y-95817135D01*
X140694725Y-95772618D01*
X140752734Y-95745568D01*
X140939139Y-95615047D01*
X141100047Y-95454139D01*
X141230568Y-95267734D01*
X141326739Y-95061496D01*
X141385635Y-94841692D01*
X141405468Y-94615000D01*
X141385635Y-94388308D01*
X141326739Y-94168504D01*
X141230568Y-93962266D01*
X141138130Y-93830249D01*
X141115802Y-93764042D01*
X141132814Y-93696275D01*
X141160209Y-93666094D01*
X141159498Y-93665337D01*
X141165184Y-93659997D01*
X141165185Y-93659994D01*
X141165187Y-93659994D01*
X141194899Y-93624076D01*
X141198812Y-93619776D01*
X142750787Y-92067801D01*
X142763042Y-92057986D01*
X142762859Y-92057764D01*
X142768866Y-92052792D01*
X142768877Y-92052786D01*
X142799775Y-92019882D01*
X142816227Y-92002364D01*
X142826671Y-91991918D01*
X142837120Y-91981471D01*
X142841379Y-91975978D01*
X142845152Y-91971561D01*
X142877062Y-91937582D01*
X142886713Y-91920024D01*
X142897396Y-91903761D01*
X142909673Y-91887936D01*
X142928185Y-91845153D01*
X142930738Y-91839941D01*
X142953197Y-91799092D01*
X142958180Y-91779680D01*
X142964481Y-91761280D01*
X142972437Y-91742896D01*
X142979729Y-91696852D01*
X142980906Y-91691171D01*
X142992500Y-91646019D01*
X142992500Y-91625983D01*
X142994027Y-91606582D01*
X142997160Y-91586804D01*
X142992775Y-91540415D01*
X142992500Y-91534577D01*
X142992500Y-84283737D01*
X142994224Y-84268123D01*
X142993938Y-84268096D01*
X142994672Y-84260333D01*
X142992500Y-84191203D01*
X142992500Y-84161651D01*
X142992500Y-84161650D01*
X142991629Y-84154759D01*
X142991172Y-84148945D01*
X142989709Y-84102372D01*
X142984122Y-84083144D01*
X142980174Y-84064084D01*
X142979417Y-84058090D01*
X142977664Y-84044208D01*
X142960507Y-84000875D01*
X142958619Y-83995359D01*
X142945619Y-83950612D01*
X142935418Y-83933363D01*
X142926860Y-83915894D01*
X142919486Y-83897268D01*
X142919483Y-83897264D01*
X142919483Y-83897263D01*
X142917541Y-83894590D01*
X142916666Y-83892138D01*
X142915725Y-83890426D01*
X142916001Y-83890274D01*
X142894062Y-83828784D01*
X142893887Y-83822662D01*
X142893859Y-83822402D01*
X142893860Y-83822400D01*
X142874074Y-83634144D01*
X142815579Y-83454116D01*
X142720933Y-83290184D01*
X142594271Y-83149512D01*
X142594270Y-83149511D01*
X142441134Y-83038251D01*
X142441129Y-83038248D01*
X142268207Y-82961257D01*
X142268202Y-82961255D01*
X142098698Y-82925227D01*
X142083046Y-82921900D01*
X141893754Y-82921900D01*
X141878102Y-82925227D01*
X141708597Y-82961255D01*
X141708592Y-82961257D01*
X141535670Y-83038248D01*
X141535665Y-83038251D01*
X141382529Y-83149511D01*
X141255866Y-83290185D01*
X141161221Y-83454115D01*
X141161218Y-83454122D01*
X141102727Y-83634140D01*
X141102726Y-83634144D01*
X141082940Y-83822400D01*
X141102726Y-84010656D01*
X141102727Y-84010659D01*
X141161218Y-84190677D01*
X141161220Y-84190681D01*
X141161221Y-84190684D01*
X141161521Y-84191203D01*
X141180342Y-84223802D01*
X141196814Y-84291702D01*
X141173961Y-84357729D01*
X141119039Y-84400919D01*
X141049486Y-84407560D01*
X140987383Y-84375543D01*
X140985273Y-84373482D01*
X140038472Y-83426681D01*
X140004987Y-83365358D01*
X140009971Y-83295666D01*
X140051843Y-83239733D01*
X140117307Y-83215316D01*
X140126153Y-83215000D01*
X140156763Y-83215000D01*
X140326599Y-83200141D01*
X140326610Y-83200139D01*
X140546317Y-83141269D01*
X140546326Y-83141265D01*
X140752482Y-83045134D01*
X140938820Y-82914657D01*
X141099657Y-82753820D01*
X141230134Y-82567482D01*
X141326265Y-82361326D01*
X141326269Y-82361317D01*
X141378872Y-82165000D01*
X140015686Y-82165000D01*
X140027641Y-82153045D01*
X140085165Y-82040148D01*
X140104986Y-81915000D01*
X140085165Y-81789852D01*
X140027641Y-81676955D01*
X140015686Y-81665000D01*
X140939784Y-81665000D01*
X140990219Y-81675720D01*
X141032497Y-81694544D01*
X141217654Y-81733900D01*
X141217655Y-81733900D01*
X141406944Y-81733900D01*
X141406946Y-81733900D01*
X141592103Y-81694544D01*
X141765030Y-81617551D01*
X141918171Y-81506288D01*
X142044833Y-81365616D01*
X142139479Y-81201684D01*
X142197974Y-81021656D01*
X142217760Y-80833400D01*
X142197974Y-80645144D01*
X142139479Y-80465116D01*
X142044833Y-80301184D01*
X141918171Y-80160512D01*
X141874153Y-80128531D01*
X141765034Y-80049251D01*
X141765029Y-80049248D01*
X141592107Y-79972257D01*
X141592102Y-79972255D01*
X141430632Y-79937934D01*
X141369150Y-79904742D01*
X141335374Y-79843579D01*
X141336637Y-79784552D01*
X141385635Y-79601692D01*
X141405468Y-79375000D01*
X141395553Y-79261676D01*
X141409319Y-79193178D01*
X141431397Y-79163192D01*
X142242788Y-78351801D01*
X142255042Y-78341986D01*
X142254859Y-78341764D01*
X142260866Y-78336792D01*
X142260877Y-78336786D01*
X142291775Y-78303882D01*
X142308227Y-78286364D01*
X142318671Y-78275918D01*
X142329120Y-78265471D01*
X142333379Y-78259978D01*
X142337152Y-78255561D01*
X142369062Y-78221582D01*
X142378713Y-78204024D01*
X142389396Y-78187761D01*
X142401673Y-78171936D01*
X142420185Y-78129153D01*
X142422738Y-78123941D01*
X142445197Y-78083092D01*
X142450180Y-78063680D01*
X142456481Y-78045280D01*
X142464437Y-78026896D01*
X142471729Y-77980852D01*
X142472906Y-77975171D01*
X142484500Y-77930019D01*
X142484500Y-77909983D01*
X142486027Y-77890582D01*
X142486590Y-77887028D01*
X142489160Y-77870804D01*
X142484775Y-77824415D01*
X142484500Y-77818577D01*
X142484500Y-63900542D01*
X142486224Y-63884922D01*
X142485939Y-63884896D01*
X142486671Y-63877140D01*
X142486673Y-63877133D01*
X142484500Y-63807985D01*
X142484500Y-63778450D01*
X142483631Y-63771572D01*
X142483172Y-63765743D01*
X142481709Y-63719172D01*
X142476122Y-63699944D01*
X142472174Y-63680884D01*
X142469663Y-63661004D01*
X142452512Y-63617687D01*
X142450619Y-63612158D01*
X142437618Y-63567409D01*
X142437616Y-63567406D01*
X142427423Y-63550171D01*
X142418861Y-63532694D01*
X142411487Y-63514070D01*
X142411486Y-63514068D01*
X142384079Y-63476345D01*
X142380888Y-63471486D01*
X142357172Y-63431383D01*
X142357165Y-63431374D01*
X142343006Y-63417215D01*
X142330368Y-63402419D01*
X142324911Y-63394908D01*
X142318594Y-63386213D01*
X142282688Y-63356509D01*
X142278376Y-63352586D01*
X140360937Y-61435146D01*
X140327452Y-61373823D01*
X140332436Y-61304131D01*
X140374308Y-61248198D01*
X140428209Y-61225156D01*
X140554492Y-61204083D01*
X140789603Y-61123369D01*
X140789614Y-61123364D01*
X141008228Y-61005057D01*
X141008231Y-61005055D01*
X141055056Y-60968609D01*
X140356568Y-60270121D01*
X140473458Y-60219349D01*
X140590739Y-60123934D01*
X140677928Y-60000415D01*
X140708354Y-59914802D01*
X141408434Y-60614882D01*
X141508731Y-60461369D01*
X141608587Y-60233717D01*
X141669612Y-59992738D01*
X141669614Y-59992729D01*
X141690141Y-59745005D01*
X141690141Y-59744994D01*
X141669614Y-59497270D01*
X141669612Y-59497261D01*
X141608587Y-59256282D01*
X141508731Y-59028630D01*
X141408434Y-58875116D01*
X140710929Y-59572622D01*
X140708116Y-59559085D01*
X140638558Y-59424844D01*
X140535362Y-59314348D01*
X140406181Y-59235791D01*
X140354996Y-59221449D01*
X141055057Y-58521389D01*
X141008229Y-58484943D01*
X140789614Y-58366635D01*
X140789603Y-58366630D01*
X140554493Y-58285916D01*
X140309293Y-58245000D01*
X140060707Y-58245000D01*
X139815506Y-58285916D01*
X139636863Y-58347245D01*
X139567064Y-58350395D01*
X139506643Y-58315309D01*
X139474782Y-58253126D01*
X139472600Y-58229964D01*
X139472600Y-56760565D01*
X139492285Y-56693526D01*
X139545089Y-56647771D01*
X139614247Y-56637827D01*
X139636864Y-56643284D01*
X139815386Y-56704571D01*
X140060665Y-56745500D01*
X140309335Y-56745500D01*
X140554614Y-56704571D01*
X140789810Y-56623828D01*
X141008509Y-56505474D01*
X141204744Y-56352738D01*
X141373164Y-56169785D01*
X141509173Y-55961607D01*
X141509175Y-55961603D01*
X141516595Y-55944689D01*
X141561551Y-55891203D01*
X141628287Y-55870514D01*
X141630150Y-55870500D01*
X145239850Y-55870500D01*
X145306889Y-55890185D01*
X145352644Y-55942989D01*
X145353405Y-55944689D01*
X145360824Y-55961603D01*
X145496833Y-56169782D01*
X145496836Y-56169785D01*
X145665256Y-56352738D01*
X145861491Y-56505474D01*
X146080190Y-56623828D01*
X146315386Y-56704571D01*
X146560665Y-56745500D01*
X146809335Y-56745500D01*
X147054614Y-56704571D01*
X147241237Y-56640502D01*
X147311035Y-56637353D01*
X147371457Y-56672439D01*
X147403317Y-56734621D01*
X147405500Y-56757784D01*
X147405500Y-58232745D01*
X147385815Y-58299784D01*
X147333011Y-58345539D01*
X147263853Y-58355483D01*
X147241237Y-58350026D01*
X147054493Y-58285916D01*
X146809293Y-58245000D01*
X146560707Y-58245000D01*
X146315506Y-58285916D01*
X146080396Y-58366630D01*
X146080390Y-58366632D01*
X145861761Y-58484949D01*
X145814942Y-58521388D01*
X145814942Y-58521390D01*
X146513431Y-59219878D01*
X146396542Y-59270651D01*
X146279261Y-59366066D01*
X146192072Y-59489585D01*
X146161645Y-59575197D01*
X145461564Y-58875116D01*
X145361267Y-59028632D01*
X145261412Y-59256282D01*
X145200387Y-59497261D01*
X145200385Y-59497270D01*
X145179859Y-59744994D01*
X145179859Y-59745005D01*
X145200385Y-59992729D01*
X145200387Y-59992738D01*
X145261412Y-60233717D01*
X145361266Y-60461364D01*
X145461564Y-60614882D01*
X146159070Y-59917376D01*
X146161884Y-59930915D01*
X146231442Y-60065156D01*
X146334638Y-60175652D01*
X146463819Y-60254209D01*
X146515001Y-60268549D01*
X145814942Y-60968609D01*
X145861768Y-61005055D01*
X145861770Y-61005056D01*
X146080385Y-61123364D01*
X146080396Y-61123369D01*
X146315506Y-61204083D01*
X146560707Y-61245000D01*
X146613046Y-61245000D01*
X146680085Y-61264685D01*
X146725840Y-61317489D01*
X146735784Y-61386647D01*
X146706759Y-61450203D01*
X146700727Y-61456681D01*
X145031208Y-63126199D01*
X145018951Y-63136020D01*
X145019134Y-63136241D01*
X145013123Y-63141213D01*
X144965772Y-63191636D01*
X144944889Y-63212519D01*
X144944877Y-63212532D01*
X144940621Y-63218017D01*
X144936837Y-63222447D01*
X144904937Y-63256418D01*
X144904936Y-63256420D01*
X144895284Y-63273976D01*
X144884610Y-63290226D01*
X144872329Y-63306061D01*
X144872324Y-63306068D01*
X144853815Y-63348838D01*
X144851245Y-63354084D01*
X144828803Y-63394906D01*
X144823822Y-63414307D01*
X144817521Y-63432710D01*
X144809562Y-63451102D01*
X144809561Y-63451105D01*
X144802271Y-63497127D01*
X144801087Y-63502846D01*
X144789501Y-63547972D01*
X144789500Y-63547982D01*
X144789500Y-63568016D01*
X144787973Y-63587415D01*
X144784840Y-63607194D01*
X144784840Y-63607195D01*
X144789225Y-63653583D01*
X144789500Y-63659421D01*
X144789500Y-90722255D01*
X144787775Y-90737872D01*
X144788061Y-90737899D01*
X144787326Y-90745665D01*
X144789500Y-90814814D01*
X144789500Y-90844343D01*
X144789501Y-90844360D01*
X144790368Y-90851231D01*
X144790826Y-90857050D01*
X144792290Y-90903624D01*
X144792291Y-90903627D01*
X144797880Y-90922867D01*
X144801824Y-90941911D01*
X144804336Y-90961792D01*
X144818711Y-90998100D01*
X144821490Y-91005119D01*
X144823382Y-91010647D01*
X144836381Y-91055388D01*
X144846580Y-91072634D01*
X144855138Y-91090103D01*
X144862514Y-91108732D01*
X144889898Y-91146423D01*
X144893106Y-91151307D01*
X144916827Y-91191416D01*
X144916833Y-91191424D01*
X144930990Y-91205580D01*
X144943628Y-91220376D01*
X144955405Y-91236586D01*
X144955406Y-91236587D01*
X144991309Y-91266288D01*
X144995620Y-91270210D01*
X145468305Y-91742896D01*
X145588598Y-91863189D01*
X145622083Y-91924512D01*
X145624445Y-91961676D01*
X145614532Y-92074997D01*
X145614532Y-92075001D01*
X145634364Y-92301686D01*
X145634366Y-92301697D01*
X145693258Y-92521488D01*
X145693261Y-92521497D01*
X145789431Y-92727732D01*
X145789432Y-92727734D01*
X145919954Y-92914141D01*
X146080858Y-93075045D01*
X146080861Y-93075047D01*
X146267266Y-93205568D01*
X146325865Y-93232893D01*
X146378305Y-93279065D01*
X146397457Y-93346258D01*
X146377242Y-93413139D01*
X146325867Y-93457657D01*
X146267515Y-93484867D01*
X146081179Y-93615342D01*
X145920342Y-93776179D01*
X145789865Y-93962517D01*
X145693734Y-94168673D01*
X145693730Y-94168682D01*
X145641127Y-94364999D01*
X145641128Y-94365000D01*
X147004314Y-94365000D01*
X146992359Y-94376955D01*
X146934835Y-94489852D01*
X146915014Y-94615000D01*
X146934835Y-94740148D01*
X146992359Y-94853045D01*
X147004314Y-94865000D01*
X145641128Y-94865000D01*
X145693730Y-95061317D01*
X145693734Y-95061326D01*
X145789865Y-95267482D01*
X145920342Y-95453820D01*
X146081179Y-95614657D01*
X146267517Y-95745134D01*
X146326457Y-95772618D01*
X146378896Y-95818790D01*
X146398048Y-95885984D01*
X146377832Y-95952865D01*
X146326457Y-95997382D01*
X146267517Y-96024865D01*
X146081179Y-96155342D01*
X145920342Y-96316179D01*
X145789865Y-96502517D01*
X145693734Y-96708673D01*
X145693730Y-96708682D01*
X145641127Y-96904999D01*
X145641128Y-96905000D01*
X147004314Y-96905000D01*
X146992359Y-96916955D01*
X146934835Y-97029852D01*
X146915014Y-97155000D01*
X146934835Y-97280148D01*
X146992359Y-97393045D01*
X147004314Y-97405000D01*
X145641128Y-97405000D01*
X145693730Y-97601317D01*
X145693734Y-97601326D01*
X145789865Y-97807482D01*
X145920342Y-97993820D01*
X146081179Y-98154657D01*
X146267518Y-98285134D01*
X146267520Y-98285135D01*
X146325865Y-98312342D01*
X146378305Y-98358514D01*
X146397457Y-98425707D01*
X146377242Y-98492589D01*
X146325867Y-98537105D01*
X146267268Y-98564431D01*
X146267264Y-98564433D01*
X146080858Y-98694954D01*
X145919954Y-98855858D01*
X145789432Y-99042265D01*
X145789431Y-99042267D01*
X145693261Y-99248502D01*
X145693258Y-99248511D01*
X145634366Y-99468302D01*
X145634364Y-99468313D01*
X145614532Y-99694998D01*
X145614532Y-99695001D01*
X145634364Y-99921686D01*
X145634366Y-99921697D01*
X145693258Y-100141488D01*
X145693261Y-100141497D01*
X145789431Y-100347732D01*
X145789432Y-100347734D01*
X145919954Y-100534141D01*
X146080858Y-100695045D01*
X146080861Y-100695047D01*
X146267266Y-100825568D01*
X146325275Y-100852618D01*
X146377714Y-100898791D01*
X146396866Y-100965984D01*
X146376650Y-101032865D01*
X146325275Y-101077382D01*
X146267267Y-101104431D01*
X146267265Y-101104432D01*
X146080858Y-101234954D01*
X145919954Y-101395858D01*
X145789432Y-101582265D01*
X145789431Y-101582267D01*
X145693261Y-101788502D01*
X145693258Y-101788511D01*
X145634366Y-102008302D01*
X145634364Y-102008313D01*
X145614532Y-102234998D01*
X145614532Y-102235001D01*
X145634364Y-102461686D01*
X145634366Y-102461697D01*
X145693258Y-102681488D01*
X145693261Y-102681497D01*
X145789431Y-102887732D01*
X145789432Y-102887734D01*
X145919954Y-103074141D01*
X146080858Y-103235045D01*
X146080861Y-103235047D01*
X146267266Y-103365568D01*
X146325275Y-103392618D01*
X146377714Y-103438791D01*
X146396866Y-103505984D01*
X146376650Y-103572865D01*
X146325275Y-103617382D01*
X146267267Y-103644431D01*
X146267265Y-103644432D01*
X146080858Y-103774954D01*
X145919954Y-103935858D01*
X145789432Y-104122265D01*
X145789431Y-104122267D01*
X145693261Y-104328502D01*
X145693258Y-104328511D01*
X145634366Y-104548302D01*
X145634364Y-104548313D01*
X145614532Y-104774998D01*
X145614532Y-104775001D01*
X145634364Y-105001686D01*
X145634366Y-105001697D01*
X145693258Y-105221488D01*
X145693261Y-105221497D01*
X145789431Y-105427732D01*
X145789432Y-105427734D01*
X145919954Y-105614141D01*
X146080858Y-105775045D01*
X146080861Y-105775047D01*
X146267266Y-105905568D01*
X146473504Y-106001739D01*
X146693308Y-106060635D01*
X146863216Y-106075500D01*
X147776784Y-106075500D01*
X147946692Y-106060635D01*
X148166496Y-106001739D01*
X148372734Y-105905568D01*
X148559139Y-105775047D01*
X148720047Y-105614139D01*
X148850568Y-105427734D01*
X148946739Y-105221496D01*
X149005635Y-105001692D01*
X149025468Y-104775000D01*
X149005635Y-104548308D01*
X148946739Y-104328504D01*
X148850568Y-104122266D01*
X148720047Y-103935861D01*
X148720045Y-103935858D01*
X148559141Y-103774954D01*
X148372734Y-103644432D01*
X148372728Y-103644429D01*
X148314725Y-103617382D01*
X148262285Y-103571210D01*
X148243133Y-103504017D01*
X148263348Y-103437135D01*
X148314725Y-103392618D01*
X148372734Y-103365568D01*
X148559139Y-103235047D01*
X148720047Y-103074139D01*
X148850568Y-102887734D01*
X148946739Y-102681496D01*
X149005635Y-102461692D01*
X149025468Y-102235000D01*
X149005635Y-102008308D01*
X148946739Y-101788504D01*
X148850568Y-101582266D01*
X148720047Y-101395861D01*
X148720045Y-101395858D01*
X148559141Y-101234954D01*
X148372734Y-101104432D01*
X148372728Y-101104429D01*
X148314725Y-101077382D01*
X148262285Y-101031210D01*
X148243133Y-100964017D01*
X148263348Y-100897135D01*
X148314725Y-100852618D01*
X148372734Y-100825568D01*
X148559139Y-100695047D01*
X148720047Y-100534139D01*
X148850568Y-100347734D01*
X148946739Y-100141496D01*
X149005635Y-99921692D01*
X149025468Y-99695000D01*
X149005635Y-99468308D01*
X148946739Y-99248504D01*
X148850568Y-99042266D01*
X148720047Y-98855861D01*
X148720045Y-98855858D01*
X148559141Y-98694954D01*
X148372734Y-98564432D01*
X148372732Y-98564431D01*
X148314725Y-98537382D01*
X148314132Y-98537105D01*
X148261694Y-98490934D01*
X148242542Y-98423740D01*
X148262758Y-98356859D01*
X148314134Y-98312341D01*
X148372484Y-98285132D01*
X148558820Y-98154657D01*
X148719657Y-97993820D01*
X148850134Y-97807482D01*
X148946265Y-97601326D01*
X148946269Y-97601317D01*
X148998872Y-97405000D01*
X147635686Y-97405000D01*
X147647641Y-97393045D01*
X147705165Y-97280148D01*
X147724986Y-97155000D01*
X147705165Y-97029852D01*
X147647641Y-96916955D01*
X147635686Y-96905000D01*
X148998872Y-96905000D01*
X148998872Y-96904999D01*
X148946269Y-96708682D01*
X148946265Y-96708673D01*
X148850134Y-96502517D01*
X148719657Y-96316179D01*
X148558820Y-96155342D01*
X148372481Y-96024865D01*
X148372479Y-96024864D01*
X148313543Y-95997382D01*
X148261103Y-95951210D01*
X148241951Y-95884017D01*
X148262166Y-95817136D01*
X148313543Y-95772618D01*
X148372479Y-95745135D01*
X148372481Y-95745134D01*
X148558820Y-95614657D01*
X148719657Y-95453820D01*
X148850134Y-95267482D01*
X148946265Y-95061326D01*
X148946269Y-95061317D01*
X148998872Y-94865000D01*
X147635686Y-94865000D01*
X147647641Y-94853045D01*
X147705165Y-94740148D01*
X147724986Y-94615000D01*
X147705165Y-94489852D01*
X147647641Y-94376955D01*
X147635686Y-94365000D01*
X148998872Y-94365000D01*
X148998872Y-94364999D01*
X148946269Y-94168682D01*
X148946265Y-94168673D01*
X148850134Y-93962517D01*
X148719657Y-93776179D01*
X148558820Y-93615342D01*
X148372482Y-93484865D01*
X148314133Y-93457657D01*
X148261694Y-93411484D01*
X148242542Y-93344291D01*
X148262758Y-93277410D01*
X148314129Y-93232895D01*
X148372734Y-93205568D01*
X148559139Y-93075047D01*
X148720047Y-92914139D01*
X148850568Y-92727734D01*
X148946739Y-92521496D01*
X149005635Y-92301692D01*
X149025468Y-92075000D01*
X149023979Y-92057986D01*
X149015553Y-91961676D01*
X149005635Y-91848308D01*
X148946739Y-91628504D01*
X148850568Y-91422266D01*
X148720047Y-91235861D01*
X148720045Y-91235858D01*
X148559141Y-91074954D01*
X148372734Y-90944432D01*
X148372728Y-90944429D01*
X148345038Y-90931517D01*
X148314724Y-90917381D01*
X148262285Y-90871210D01*
X148243133Y-90804017D01*
X148263348Y-90737135D01*
X148314725Y-90692618D01*
X148372734Y-90665568D01*
X148559139Y-90535047D01*
X148720047Y-90374139D01*
X148850568Y-90187734D01*
X148946739Y-89981496D01*
X149005635Y-89761692D01*
X149025468Y-89535000D01*
X149022511Y-89501207D01*
X149005635Y-89308313D01*
X149005635Y-89308308D01*
X148946739Y-89088504D01*
X148850568Y-88882266D01*
X148720047Y-88695861D01*
X148720045Y-88695858D01*
X148559141Y-88534954D01*
X148372734Y-88404432D01*
X148372728Y-88404429D01*
X148314725Y-88377382D01*
X148262285Y-88331210D01*
X148243133Y-88264017D01*
X148263348Y-88197135D01*
X148314725Y-88152618D01*
X148372734Y-88125568D01*
X148559139Y-87995047D01*
X148720047Y-87834139D01*
X148850568Y-87647734D01*
X148946739Y-87441496D01*
X149005635Y-87221692D01*
X149022407Y-87029984D01*
X149047859Y-86964916D01*
X149058246Y-86953119D01*
X149647819Y-86363547D01*
X149709142Y-86330062D01*
X149778834Y-86335046D01*
X149834767Y-86376918D01*
X149859184Y-86442382D01*
X149859500Y-86451228D01*
X149859500Y-121154949D01*
X149859201Y-121161031D01*
X149856027Y-121193256D01*
X149843580Y-121303720D01*
X149839021Y-121325830D01*
X149822881Y-121379039D01*
X149795210Y-121458117D01*
X149787528Y-121475614D01*
X149759046Y-121528902D01*
X149756862Y-121532664D01*
X149713133Y-121602257D01*
X149708559Y-121608609D01*
X149666167Y-121660264D01*
X149662078Y-121664776D01*
X149604776Y-121722078D01*
X149600264Y-121726167D01*
X149548609Y-121768559D01*
X149542257Y-121773133D01*
X149472664Y-121816862D01*
X149468902Y-121819046D01*
X149415614Y-121847528D01*
X149398117Y-121855210D01*
X149319039Y-121882881D01*
X149265830Y-121899021D01*
X149243720Y-121903580D01*
X149133256Y-121916027D01*
X149101031Y-121919201D01*
X149094949Y-121919500D01*
X117605051Y-121919500D01*
X117598970Y-121919201D01*
X117566743Y-121916027D01*
X117456278Y-121903580D01*
X117434167Y-121899021D01*
X117380960Y-121882881D01*
X117301881Y-121855210D01*
X117284384Y-121847528D01*
X117264120Y-121836697D01*
X117231085Y-121819039D01*
X117227340Y-121816865D01*
X117208846Y-121805245D01*
X117157741Y-121773133D01*
X117151389Y-121768559D01*
X117099734Y-121726167D01*
X117095232Y-121722087D01*
X117037910Y-121664765D01*
X117033831Y-121660264D01*
X116991439Y-121608609D01*
X116986865Y-121602257D01*
X116981712Y-121594057D01*
X116943123Y-121532641D01*
X116940970Y-121528933D01*
X116912467Y-121475607D01*
X116904794Y-121458132D01*
X116877118Y-121379039D01*
X116860975Y-121325823D01*
X116856419Y-121303728D01*
X116843972Y-121193256D01*
X116840799Y-121161031D01*
X116840500Y-121154952D01*
X116840500Y-118745000D01*
X118659341Y-118745000D01*
X118679936Y-118980403D01*
X118679938Y-118980413D01*
X118741094Y-119208655D01*
X118741096Y-119208659D01*
X118741097Y-119208663D01*
X118791031Y-119315746D01*
X118840964Y-119422828D01*
X118840965Y-119422830D01*
X118976505Y-119616402D01*
X119143597Y-119783494D01*
X119337169Y-119919034D01*
X119337171Y-119919035D01*
X119551337Y-120018903D01*
X119779592Y-120080063D01*
X119956034Y-120095500D01*
X120073966Y-120095500D01*
X120250408Y-120080063D01*
X120478663Y-120018903D01*
X120692829Y-119919035D01*
X120886401Y-119783495D01*
X121053495Y-119616401D01*
X121189035Y-119422830D01*
X121288903Y-119208663D01*
X121350063Y-118980408D01*
X121370659Y-118745000D01*
X145329341Y-118745000D01*
X145349936Y-118980403D01*
X145349938Y-118980413D01*
X145411094Y-119208655D01*
X145411096Y-119208659D01*
X145411097Y-119208663D01*
X145461031Y-119315746D01*
X145510964Y-119422828D01*
X145510965Y-119422830D01*
X145646505Y-119616402D01*
X145813597Y-119783494D01*
X146007169Y-119919034D01*
X146007171Y-119919035D01*
X146221337Y-120018903D01*
X146449592Y-120080063D01*
X146626034Y-120095500D01*
X146743966Y-120095500D01*
X146920408Y-120080063D01*
X147148663Y-120018903D01*
X147362829Y-119919035D01*
X147556401Y-119783495D01*
X147723495Y-119616401D01*
X147859035Y-119422830D01*
X147958903Y-119208663D01*
X148020063Y-118980408D01*
X148040659Y-118745000D01*
X148020063Y-118509592D01*
X147958903Y-118281337D01*
X147859035Y-118067171D01*
X147859034Y-118067169D01*
X147723494Y-117873597D01*
X147556402Y-117706505D01*
X147362830Y-117570965D01*
X147362828Y-117570964D01*
X147255746Y-117521031D01*
X147148663Y-117471097D01*
X147148659Y-117471096D01*
X147148655Y-117471094D01*
X146920413Y-117409938D01*
X146920403Y-117409936D01*
X146743966Y-117394500D01*
X146626034Y-117394500D01*
X146449596Y-117409936D01*
X146449586Y-117409938D01*
X146221344Y-117471094D01*
X146221335Y-117471098D01*
X146007171Y-117570964D01*
X146007169Y-117570965D01*
X145813597Y-117706505D01*
X145646506Y-117873597D01*
X145646501Y-117873604D01*
X145510967Y-118067165D01*
X145510965Y-118067169D01*
X145411098Y-118281335D01*
X145411094Y-118281344D01*
X145349938Y-118509586D01*
X145349936Y-118509596D01*
X145329341Y-118744999D01*
X145329341Y-118745000D01*
X121370659Y-118745000D01*
X121350063Y-118509592D01*
X121288903Y-118281337D01*
X121189035Y-118067171D01*
X121189034Y-118067169D01*
X121053494Y-117873597D01*
X120886402Y-117706505D01*
X120692830Y-117570965D01*
X120692828Y-117570964D01*
X120585746Y-117521031D01*
X120478663Y-117471097D01*
X120478659Y-117471096D01*
X120478655Y-117471094D01*
X120250413Y-117409938D01*
X120250403Y-117409936D01*
X120073966Y-117394500D01*
X119956034Y-117394500D01*
X119779596Y-117409936D01*
X119779586Y-117409938D01*
X119551344Y-117471094D01*
X119551335Y-117471098D01*
X119337171Y-117570964D01*
X119337169Y-117570965D01*
X119143597Y-117706505D01*
X118976506Y-117873597D01*
X118976501Y-117873604D01*
X118840967Y-118067165D01*
X118840965Y-118067169D01*
X118741098Y-118281335D01*
X118741094Y-118281344D01*
X118679938Y-118509586D01*
X118679936Y-118509596D01*
X118659341Y-118744999D01*
X118659341Y-118745000D01*
X116840500Y-118745000D01*
X116840500Y-113665005D01*
X138829357Y-113665005D01*
X138849890Y-113912812D01*
X138849892Y-113912824D01*
X138910936Y-114153881D01*
X139010826Y-114381606D01*
X139146833Y-114589782D01*
X139146836Y-114589785D01*
X139315256Y-114772738D01*
X139511491Y-114925474D01*
X139730190Y-115043828D01*
X139965386Y-115124571D01*
X140210665Y-115165500D01*
X140459335Y-115165500D01*
X140704614Y-115124571D01*
X140939810Y-115043828D01*
X141158509Y-114925474D01*
X141354744Y-114772738D01*
X141523164Y-114589785D01*
X141659173Y-114381607D01*
X141759063Y-114153881D01*
X141820108Y-113912821D01*
X141840643Y-113665005D01*
X145329357Y-113665005D01*
X145349890Y-113912812D01*
X145349892Y-113912824D01*
X145410936Y-114153881D01*
X145510826Y-114381606D01*
X145646833Y-114589782D01*
X145646836Y-114589785D01*
X145815256Y-114772738D01*
X146011491Y-114925474D01*
X146230190Y-115043828D01*
X146465386Y-115124571D01*
X146710665Y-115165500D01*
X146959335Y-115165500D01*
X147204614Y-115124571D01*
X147439810Y-115043828D01*
X147658509Y-114925474D01*
X147854744Y-114772738D01*
X148023164Y-114589785D01*
X148159173Y-114381607D01*
X148259063Y-114153881D01*
X148320108Y-113912821D01*
X148340643Y-113665000D01*
X148320108Y-113417179D01*
X148259063Y-113176119D01*
X148159173Y-112948393D01*
X148023166Y-112740217D01*
X148001557Y-112716744D01*
X147854744Y-112557262D01*
X147658509Y-112404526D01*
X147658507Y-112404525D01*
X147658506Y-112404524D01*
X147439811Y-112286172D01*
X147439802Y-112286169D01*
X147204616Y-112205429D01*
X146959335Y-112164500D01*
X146710665Y-112164500D01*
X146465383Y-112205429D01*
X146230197Y-112286169D01*
X146230188Y-112286172D01*
X146011493Y-112404524D01*
X145815257Y-112557261D01*
X145646833Y-112740217D01*
X145510826Y-112948393D01*
X145410936Y-113176118D01*
X145349892Y-113417175D01*
X145349890Y-113417187D01*
X145329357Y-113664994D01*
X145329357Y-113665005D01*
X141840643Y-113665005D01*
X141840643Y-113665000D01*
X141820108Y-113417179D01*
X141759063Y-113176119D01*
X141659173Y-112948393D01*
X141523166Y-112740217D01*
X141501557Y-112716744D01*
X141354744Y-112557262D01*
X141158509Y-112404526D01*
X141158507Y-112404525D01*
X141158506Y-112404524D01*
X140939811Y-112286172D01*
X140939802Y-112286169D01*
X140704616Y-112205429D01*
X140459335Y-112164500D01*
X140210665Y-112164500D01*
X139965383Y-112205429D01*
X139730197Y-112286169D01*
X139730188Y-112286172D01*
X139511493Y-112404524D01*
X139315257Y-112557261D01*
X139146833Y-112740217D01*
X139010826Y-112948393D01*
X138910936Y-113176118D01*
X138849892Y-113417175D01*
X138849890Y-113417187D01*
X138829357Y-113664994D01*
X138829357Y-113665005D01*
X116840500Y-113665005D01*
X116840500Y-109165005D01*
X138829859Y-109165005D01*
X138850385Y-109412729D01*
X138850387Y-109412738D01*
X138911412Y-109653717D01*
X139011266Y-109881364D01*
X139111564Y-110034882D01*
X139809070Y-109337376D01*
X139811884Y-109350915D01*
X139881442Y-109485156D01*
X139984638Y-109595652D01*
X140113819Y-109674209D01*
X140165002Y-109688549D01*
X139464942Y-110388609D01*
X139511768Y-110425055D01*
X139511770Y-110425056D01*
X139730385Y-110543364D01*
X139730396Y-110543369D01*
X139965506Y-110624083D01*
X140210707Y-110665000D01*
X140459293Y-110665000D01*
X140704493Y-110624083D01*
X140939603Y-110543369D01*
X140939614Y-110543364D01*
X141158228Y-110425057D01*
X141158231Y-110425055D01*
X141205056Y-110388609D01*
X140506568Y-109690121D01*
X140623458Y-109639349D01*
X140740739Y-109543934D01*
X140827928Y-109420415D01*
X140858354Y-109334802D01*
X141558434Y-110034882D01*
X141658731Y-109881369D01*
X141758587Y-109653717D01*
X141819612Y-109412738D01*
X141819614Y-109412729D01*
X141840141Y-109165005D01*
X145329859Y-109165005D01*
X145350385Y-109412729D01*
X145350387Y-109412738D01*
X145411412Y-109653717D01*
X145511266Y-109881364D01*
X145611564Y-110034882D01*
X146309070Y-109337376D01*
X146311884Y-109350915D01*
X146381442Y-109485156D01*
X146484638Y-109595652D01*
X146613819Y-109674209D01*
X146665002Y-109688549D01*
X145964942Y-110388609D01*
X146011768Y-110425055D01*
X146011770Y-110425056D01*
X146230385Y-110543364D01*
X146230396Y-110543369D01*
X146465506Y-110624083D01*
X146710707Y-110665000D01*
X146959293Y-110665000D01*
X147204493Y-110624083D01*
X147439603Y-110543369D01*
X147439614Y-110543364D01*
X147658228Y-110425057D01*
X147658231Y-110425055D01*
X147705056Y-110388609D01*
X147006568Y-109690121D01*
X147123458Y-109639349D01*
X147240739Y-109543934D01*
X147327928Y-109420415D01*
X147358354Y-109334802D01*
X148058434Y-110034882D01*
X148158731Y-109881369D01*
X148258587Y-109653717D01*
X148319612Y-109412738D01*
X148319614Y-109412729D01*
X148340141Y-109165005D01*
X148340141Y-109164994D01*
X148319614Y-108917270D01*
X148319612Y-108917261D01*
X148258587Y-108676282D01*
X148158731Y-108448630D01*
X148058434Y-108295116D01*
X147360929Y-108992622D01*
X147358116Y-108979085D01*
X147288558Y-108844844D01*
X147185362Y-108734348D01*
X147056181Y-108655791D01*
X147004997Y-108641450D01*
X147705057Y-107941390D01*
X147705056Y-107941389D01*
X147658229Y-107904943D01*
X147439614Y-107786635D01*
X147439603Y-107786630D01*
X147204493Y-107705916D01*
X146959293Y-107665000D01*
X146710707Y-107665000D01*
X146465506Y-107705916D01*
X146230396Y-107786630D01*
X146230390Y-107786632D01*
X146011761Y-107904949D01*
X145964942Y-107941388D01*
X145964942Y-107941390D01*
X146663431Y-108639878D01*
X146546542Y-108690651D01*
X146429261Y-108786066D01*
X146342072Y-108909585D01*
X146311645Y-108995197D01*
X145611564Y-108295116D01*
X145511267Y-108448632D01*
X145411412Y-108676282D01*
X145350387Y-108917261D01*
X145350385Y-108917270D01*
X145329859Y-109164994D01*
X145329859Y-109165005D01*
X141840141Y-109165005D01*
X141840141Y-109164994D01*
X141819614Y-108917270D01*
X141819612Y-108917261D01*
X141758587Y-108676282D01*
X141658731Y-108448630D01*
X141558434Y-108295116D01*
X140860929Y-108992622D01*
X140858116Y-108979085D01*
X140788558Y-108844844D01*
X140685362Y-108734348D01*
X140556181Y-108655791D01*
X140504997Y-108641450D01*
X141205057Y-107941390D01*
X141205056Y-107941389D01*
X141158229Y-107904943D01*
X140939614Y-107786635D01*
X140939603Y-107786630D01*
X140704493Y-107705916D01*
X140459293Y-107665000D01*
X140210707Y-107665000D01*
X139965506Y-107705916D01*
X139730396Y-107786630D01*
X139730390Y-107786632D01*
X139511761Y-107904949D01*
X139464942Y-107941388D01*
X139464942Y-107941390D01*
X140163431Y-108639878D01*
X140046542Y-108690651D01*
X139929261Y-108786066D01*
X139842072Y-108909585D01*
X139811645Y-108995197D01*
X139111564Y-108295116D01*
X139011267Y-108448632D01*
X138911412Y-108676282D01*
X138850387Y-108917261D01*
X138850385Y-108917270D01*
X138829859Y-109164994D01*
X138829859Y-109165005D01*
X116840500Y-109165005D01*
X116840500Y-47625000D01*
X118659341Y-47625000D01*
X118679936Y-47860403D01*
X118679938Y-47860413D01*
X118741094Y-48088655D01*
X118741096Y-48088659D01*
X118741097Y-48088663D01*
X118787471Y-48188111D01*
X118840964Y-48302828D01*
X118840965Y-48302830D01*
X118976505Y-48496402D01*
X119143597Y-48663494D01*
X119337169Y-48799034D01*
X119337171Y-48799035D01*
X119551337Y-48898903D01*
X119779592Y-48960063D01*
X119956034Y-48975500D01*
X120073966Y-48975500D01*
X120250408Y-48960063D01*
X120478663Y-48898903D01*
X120692829Y-48799035D01*
X120886401Y-48663495D01*
X121053495Y-48496401D01*
X121189035Y-48302830D01*
X121288903Y-48088663D01*
X121350063Y-47860408D01*
X121370659Y-47625000D01*
X121350063Y-47389592D01*
X121288903Y-47161337D01*
X121189035Y-46947171D01*
X121189034Y-46947169D01*
X121053494Y-46753597D01*
X120886402Y-46586505D01*
X120692830Y-46450965D01*
X120692828Y-46450964D01*
X120585746Y-46401031D01*
X120478663Y-46351097D01*
X120478659Y-46351096D01*
X120478655Y-46351094D01*
X120250413Y-46289938D01*
X120250403Y-46289936D01*
X120073966Y-46274500D01*
X119956034Y-46274500D01*
X119779596Y-46289936D01*
X119779586Y-46289938D01*
X119551344Y-46351094D01*
X119551335Y-46351098D01*
X119337171Y-46450964D01*
X119337169Y-46450965D01*
X119143597Y-46586505D01*
X118976506Y-46753597D01*
X118976501Y-46753604D01*
X118840967Y-46947165D01*
X118840965Y-46947169D01*
X118741098Y-47161335D01*
X118741094Y-47161344D01*
X118679938Y-47389586D01*
X118679936Y-47389596D01*
X118659341Y-47624999D01*
X118659341Y-47625000D01*
X116840500Y-47625000D01*
X116840500Y-44961046D01*
X116840799Y-44954965D01*
X116841035Y-44952563D01*
X116843975Y-44922710D01*
X116856419Y-44812269D01*
X116860978Y-44790167D01*
X116877121Y-44736950D01*
X116904797Y-44657857D01*
X116912462Y-44640401D01*
X116940983Y-44587041D01*
X116943107Y-44583382D01*
X116986873Y-44513728D01*
X116991426Y-44507406D01*
X117033849Y-44455713D01*
X117037891Y-44451254D01*
X117095254Y-44393891D01*
X117099713Y-44389849D01*
X117151406Y-44347426D01*
X117157728Y-44342873D01*
X117227382Y-44299107D01*
X117231041Y-44296983D01*
X117284401Y-44268462D01*
X117301857Y-44260797D01*
X117380956Y-44233119D01*
X117434172Y-44216976D01*
X117456269Y-44212419D01*
X117566710Y-44199975D01*
X117596563Y-44197035D01*
X117598965Y-44196799D01*
X117605046Y-44196500D01*
X149094953Y-44196500D01*
X149101034Y-44196799D01*
G37*
G04 #@! TD.AperFunction*
G04 #@! TA.AperFunction,Conductor*
G36*
X147570000Y-96839314D02*
G01*
X147558045Y-96827359D01*
X147445148Y-96769835D01*
X147351481Y-96755000D01*
X147288519Y-96755000D01*
X147194852Y-96769835D01*
X147081955Y-96827359D01*
X147070000Y-96839314D01*
X147070000Y-94930686D01*
X147081955Y-94942641D01*
X147194852Y-95000165D01*
X147288519Y-95015000D01*
X147351481Y-95015000D01*
X147445148Y-95000165D01*
X147558045Y-94942641D01*
X147570000Y-94930686D01*
X147570000Y-96839314D01*
G37*
G04 #@! TD.AperFunction*
G04 #@! TA.AperFunction,Conductor*
G36*
X136298875Y-81472112D02*
G01*
X136343223Y-81500613D01*
X140325428Y-85482819D01*
X140358913Y-85544142D01*
X140353929Y-85613834D01*
X140312057Y-85669767D01*
X140246593Y-85694184D01*
X140237747Y-85694500D01*
X138452129Y-85694500D01*
X138452123Y-85694501D01*
X138392516Y-85700908D01*
X138257671Y-85751202D01*
X138257664Y-85751206D01*
X138142455Y-85837452D01*
X138142452Y-85837455D01*
X138056206Y-85952664D01*
X138056202Y-85952671D01*
X138005908Y-86087517D01*
X137999501Y-86147116D01*
X137999500Y-86147135D01*
X137999500Y-86302392D01*
X137979815Y-86369431D01*
X137930747Y-86411948D01*
X137931022Y-86412413D01*
X137928468Y-86413922D01*
X137927011Y-86415186D01*
X137924751Y-86416192D01*
X137924305Y-86416384D01*
X137907065Y-86426580D01*
X137889598Y-86435137D01*
X137870969Y-86442512D01*
X137870967Y-86442513D01*
X137833264Y-86469906D01*
X137828382Y-86473112D01*
X137788280Y-86496828D01*
X137774108Y-86511000D01*
X137759323Y-86523628D01*
X137743112Y-86535407D01*
X137713409Y-86571310D01*
X137709477Y-86575631D01*
X136564522Y-87720585D01*
X136503199Y-87754070D01*
X136433507Y-87749086D01*
X136377574Y-87707214D01*
X136364463Y-87685316D01*
X136342102Y-87637362D01*
X136342099Y-87637358D01*
X136342099Y-87637357D01*
X136216599Y-87458124D01*
X136199963Y-87441488D01*
X136061877Y-87303402D01*
X135882639Y-87177898D01*
X135731414Y-87107381D01*
X135678977Y-87061210D01*
X135659825Y-86994016D01*
X135680041Y-86927135D01*
X135731414Y-86882618D01*
X135882639Y-86812102D01*
X136061877Y-86686598D01*
X136216598Y-86531877D01*
X136342102Y-86352639D01*
X136434575Y-86154330D01*
X136491207Y-85942977D01*
X136510277Y-85725000D01*
X136491207Y-85507023D01*
X136434575Y-85295670D01*
X136342102Y-85097362D01*
X136342100Y-85097359D01*
X136342099Y-85097357D01*
X136216599Y-84918124D01*
X136216596Y-84918121D01*
X136061877Y-84763402D01*
X135882639Y-84637898D01*
X135731414Y-84567381D01*
X135678977Y-84521210D01*
X135659825Y-84454016D01*
X135680041Y-84387135D01*
X135731414Y-84342618D01*
X135882639Y-84272102D01*
X136061877Y-84146598D01*
X136216598Y-83991877D01*
X136342102Y-83812639D01*
X136434575Y-83614330D01*
X136491207Y-83402977D01*
X136510277Y-83185000D01*
X136491207Y-82967023D01*
X136434575Y-82755670D01*
X136342102Y-82557362D01*
X136342100Y-82557359D01*
X136342099Y-82557357D01*
X136216599Y-82378124D01*
X136153475Y-82315000D01*
X136061877Y-82223402D01*
X135882639Y-82097898D01*
X135731414Y-82027381D01*
X135678977Y-81981210D01*
X135659825Y-81914016D01*
X135680041Y-81847135D01*
X135731414Y-81802618D01*
X135882639Y-81732102D01*
X136061877Y-81606598D01*
X136167864Y-81500610D01*
X136229183Y-81467128D01*
X136298875Y-81472112D01*
G37*
G04 #@! TD.AperFunction*
G04 #@! TA.AperFunction,Conductor*
G36*
X142532787Y-50080485D02*
G01*
X142553429Y-50097119D01*
X146120274Y-53663964D01*
X146153759Y-53725287D01*
X146148775Y-53794979D01*
X146106903Y-53850912D01*
X146082403Y-53865201D01*
X146080195Y-53866169D01*
X145861493Y-53984524D01*
X145665257Y-54137261D01*
X145496833Y-54320217D01*
X145360824Y-54528396D01*
X145353405Y-54545311D01*
X145308449Y-54598797D01*
X145241713Y-54619486D01*
X145239850Y-54619500D01*
X141630150Y-54619500D01*
X141563111Y-54599815D01*
X141517356Y-54547011D01*
X141516595Y-54545311D01*
X141509175Y-54528396D01*
X141373166Y-54320217D01*
X141316362Y-54258512D01*
X141204744Y-54137262D01*
X141008509Y-53984526D01*
X141008507Y-53984525D01*
X141008506Y-53984524D01*
X140789811Y-53866172D01*
X140789802Y-53866169D01*
X140554616Y-53785429D01*
X140309335Y-53744500D01*
X140060665Y-53744500D01*
X139815383Y-53785429D01*
X139636863Y-53846715D01*
X139567064Y-53849865D01*
X139506643Y-53814779D01*
X139474782Y-53752596D01*
X139472600Y-53729434D01*
X139472600Y-53138651D01*
X139492285Y-53071612D01*
X139508915Y-53050974D01*
X140083786Y-52476102D01*
X140096048Y-52466280D01*
X140095865Y-52466059D01*
X140101867Y-52461092D01*
X140101877Y-52461086D01*
X140149241Y-52410648D01*
X140170120Y-52389770D01*
X140174373Y-52384286D01*
X140178150Y-52379863D01*
X140210062Y-52345882D01*
X140219714Y-52328323D01*
X140230389Y-52312072D01*
X140242674Y-52296236D01*
X140261186Y-52253452D01*
X140263746Y-52248226D01*
X140273244Y-52230951D01*
X140282149Y-52214756D01*
X140331698Y-52165494D01*
X140390808Y-52150499D01*
X140597871Y-52150499D01*
X140597872Y-52150499D01*
X140657483Y-52144091D01*
X140792331Y-52093796D01*
X140907546Y-52007546D01*
X140993796Y-51892331D01*
X141044091Y-51757483D01*
X141050500Y-51697873D01*
X141050499Y-50184799D01*
X141070184Y-50117761D01*
X141122987Y-50072006D01*
X141174499Y-50060800D01*
X142465748Y-50060800D01*
X142532787Y-50080485D01*
G37*
G04 #@! TD.AperFunction*
G04 #@! TA.AperFunction,Conductor*
G36*
X129790000Y-50364498D02*
G01*
X129682315Y-50315320D01*
X129575763Y-50300000D01*
X129504237Y-50300000D01*
X129397685Y-50315320D01*
X129290000Y-50364498D01*
X129290000Y-48695501D01*
X129397685Y-48744680D01*
X129504237Y-48760000D01*
X129575763Y-48760000D01*
X129682315Y-48744680D01*
X129790000Y-48695501D01*
X129790000Y-50364498D01*
G37*
G04 #@! TD.AperFunction*
M02*
