G04 #@! TF.GenerationSoftware,KiCad,Pcbnew,7.0.9-7.0.9~ubuntu20.04.1*
G04 #@! TF.CreationDate,2023-12-20T19:17:45+01:00*
G04 #@! TF.ProjectId,kicad-pmod_7seg,6b696361-642d-4706-9d6f-645f37736567,1.0*
G04 #@! TF.SameCoordinates,Original*
G04 #@! TF.FileFunction,Copper,L2,Bot*
G04 #@! TF.FilePolarity,Positive*
%FSLAX46Y46*%
G04 Gerber Fmt 4.6, Leading zero omitted, Abs format (unit mm)*
G04 Created by KiCad (PCBNEW 7.0.9-7.0.9~ubuntu20.04.1) date 2023-12-20 19:17:45*
%MOMM*%
%LPD*%
G01*
G04 APERTURE LIST*
G04 Aperture macros list*
%AMRoundRect*
0 Rectangle with rounded corners*
0 $1 Rounding radius*
0 $2 $3 $4 $5 $6 $7 $8 $9 X,Y pos of 4 corners*
0 Add a 4 corners polygon primitive as box body*
4,1,4,$2,$3,$4,$5,$6,$7,$8,$9,$2,$3,0*
0 Add four circle primitives for the rounded corners*
1,1,$1+$1,$2,$3*
1,1,$1+$1,$4,$5*
1,1,$1+$1,$6,$7*
1,1,$1+$1,$8,$9*
0 Add four rect primitives between the rounded corners*
20,1,$1+$1,$2,$3,$4,$5,0*
20,1,$1+$1,$4,$5,$6,$7,0*
20,1,$1+$1,$6,$7,$8,$9,0*
20,1,$1+$1,$8,$9,$2,$3,0*%
G04 Aperture macros list end*
G04 #@! TA.AperFunction,ComponentPad*
%ADD10R,1.700000X1.700000*%
G04 #@! TD*
G04 #@! TA.AperFunction,ComponentPad*
%ADD11O,1.700000X1.700000*%
G04 #@! TD*
G04 #@! TA.AperFunction,ComponentPad*
%ADD12R,2.400000X1.600000*%
G04 #@! TD*
G04 #@! TA.AperFunction,ComponentPad*
%ADD13O,2.400000X1.600000*%
G04 #@! TD*
G04 #@! TA.AperFunction,ComponentPad*
%ADD14R,1.500000X1.500000*%
G04 #@! TD*
G04 #@! TA.AperFunction,ComponentPad*
%ADD15C,1.500000*%
G04 #@! TD*
G04 #@! TA.AperFunction,ComponentPad*
%ADD16C,2.000000*%
G04 #@! TD*
G04 #@! TA.AperFunction,SMDPad,CuDef*
%ADD17RoundRect,0.237500X-0.250000X-0.237500X0.250000X-0.237500X0.250000X0.237500X-0.250000X0.237500X0*%
G04 #@! TD*
G04 #@! TA.AperFunction,SMDPad,CuDef*
%ADD18RoundRect,0.150000X0.587500X0.150000X-0.587500X0.150000X-0.587500X-0.150000X0.587500X-0.150000X0*%
G04 #@! TD*
G04 #@! TA.AperFunction,SMDPad,CuDef*
%ADD19RoundRect,0.237500X0.250000X0.237500X-0.250000X0.237500X-0.250000X-0.237500X0.250000X-0.237500X0*%
G04 #@! TD*
G04 #@! TA.AperFunction,SMDPad,CuDef*
%ADD20RoundRect,0.237500X0.300000X0.237500X-0.300000X0.237500X-0.300000X-0.237500X0.300000X-0.237500X0*%
G04 #@! TD*
G04 #@! TA.AperFunction,SMDPad,CuDef*
%ADD21RoundRect,0.237500X-0.300000X-0.237500X0.300000X-0.237500X0.300000X0.237500X-0.300000X0.237500X0*%
G04 #@! TD*
G04 #@! TA.AperFunction,ViaPad*
%ADD22C,0.800000*%
G04 #@! TD*
G04 #@! TA.AperFunction,Conductor*
%ADD23C,0.250000*%
G04 #@! TD*
G04 #@! TA.AperFunction,Conductor*
%ADD24C,0.500000*%
G04 #@! TD*
G04 APERTURE END LIST*
D10*
X139700000Y-50800000D03*
D11*
X139700000Y-48260000D03*
X137160000Y-50800000D03*
X137160000Y-48260000D03*
X134620000Y-50800000D03*
X134620000Y-48260000D03*
X132080000Y-50800000D03*
X132080000Y-48260000D03*
X129540000Y-50800000D03*
X129540000Y-48260000D03*
X127000000Y-50800000D03*
X127000000Y-48260000D03*
D12*
X139700000Y-64135000D03*
D13*
X139700000Y-66675000D03*
X139700000Y-69215000D03*
X139700000Y-71755000D03*
X139700000Y-74295000D03*
X139700000Y-76835000D03*
X139700000Y-79375000D03*
X139700000Y-81915000D03*
X147320000Y-81915000D03*
X147320000Y-79375000D03*
X147320000Y-76835000D03*
X147320000Y-74295000D03*
X147320000Y-71755000D03*
X147320000Y-69215000D03*
X147320000Y-66675000D03*
X147320000Y-64135000D03*
D14*
X135255000Y-90805000D03*
D15*
X135255000Y-88265000D03*
X135255000Y-85725000D03*
X135255000Y-83185000D03*
X135255000Y-80645000D03*
X135255000Y-78105000D03*
X120015000Y-78105000D03*
X120015000Y-80645000D03*
X120015000Y-83185000D03*
X120015000Y-85725000D03*
X120015000Y-88265000D03*
X120015000Y-90805000D03*
D16*
X140185000Y-55245000D03*
X146685000Y-55245000D03*
X140185000Y-59745000D03*
X146685000Y-59745000D03*
X146835000Y-113665000D03*
X140335000Y-113665000D03*
X146835000Y-109165000D03*
X140335000Y-109165000D03*
D12*
X139700000Y-86995000D03*
D13*
X139700000Y-89535000D03*
X139700000Y-92075000D03*
X139700000Y-94615000D03*
X139700000Y-97155000D03*
X139700000Y-99695000D03*
X139700000Y-102235000D03*
X139700000Y-104775000D03*
X147320000Y-104775000D03*
X147320000Y-102235000D03*
X147320000Y-99695000D03*
X147320000Y-97155000D03*
X147320000Y-94615000D03*
X147320000Y-92075000D03*
X147320000Y-89535000D03*
X147320000Y-86995000D03*
D17*
X143232500Y-71755000D03*
X145057500Y-71755000D03*
X135612500Y-55245000D03*
X137437500Y-55245000D03*
X135612500Y-113665000D03*
X137437500Y-113665000D03*
X143232500Y-76835000D03*
X145057500Y-76835000D03*
D18*
X132050000Y-94935000D03*
X132050000Y-96835000D03*
X130175000Y-95885000D03*
D19*
X128825000Y-81915000D03*
X127000000Y-81915000D03*
D17*
X143232500Y-66675000D03*
X145057500Y-66675000D03*
D19*
X128825000Y-89535000D03*
X127000000Y-89535000D03*
D18*
X124430000Y-82235000D03*
X124430000Y-84135000D03*
X122555000Y-83185000D03*
D20*
X145007500Y-64135000D03*
X143282500Y-64135000D03*
D19*
X136167500Y-94615000D03*
X134342500Y-94615000D03*
D17*
X135612500Y-111125000D03*
X137437500Y-111125000D03*
D21*
X127180000Y-85725000D03*
X128905000Y-85725000D03*
D18*
X124430000Y-89855000D03*
X124430000Y-91755000D03*
X122555000Y-90805000D03*
D19*
X128547500Y-77470000D03*
X126722500Y-77470000D03*
D17*
X143232500Y-74295000D03*
X145057500Y-74295000D03*
X143232500Y-69215000D03*
X145057500Y-69215000D03*
X135612500Y-57785000D03*
X137437500Y-57785000D03*
X143232500Y-81915000D03*
X145057500Y-81915000D03*
D18*
X124430000Y-77790000D03*
X124430000Y-79690000D03*
X122555000Y-78740000D03*
D19*
X132992500Y-85725000D03*
X131167500Y-85725000D03*
D17*
X143232500Y-79375000D03*
X145057500Y-79375000D03*
D20*
X145007500Y-86995000D03*
X143282500Y-86995000D03*
D22*
X125857000Y-79629000D03*
X125857000Y-85471000D03*
X127000000Y-99695000D03*
X125095000Y-53975000D03*
X124460000Y-86995000D03*
X138430000Y-84455000D03*
X131445000Y-81280000D03*
X142875000Y-52070000D03*
X132694500Y-90998100D03*
X127635000Y-78740000D03*
X141312300Y-80833400D03*
X141988400Y-83822400D03*
X128786100Y-90642600D03*
X130288200Y-77319700D03*
D23*
X147320000Y-89535000D02*
X147701000Y-89535000D01*
X147701000Y-89535000D02*
X149225000Y-88011000D01*
X149225000Y-88011000D02*
X149225000Y-55880100D01*
X149225000Y-55880100D02*
X141604900Y-48260000D01*
X141604900Y-48260000D02*
X139700000Y-48260000D01*
D24*
X127180000Y-85725000D02*
X126020000Y-85725000D01*
X132050000Y-96835000D02*
X129510000Y-96835000D01*
X145007500Y-64135000D02*
X143737500Y-65405000D01*
X143737500Y-65405000D02*
X143020300Y-65405000D01*
X138301600Y-65385400D02*
X140599300Y-65385400D01*
X125857000Y-85471000D02*
X125766000Y-85471000D01*
X130175000Y-57785000D02*
X135612500Y-57785000D01*
X128369200Y-92279900D02*
X129783900Y-90865200D01*
X141819600Y-66605700D02*
X141819600Y-67095400D01*
X140599300Y-65385400D02*
X141819600Y-66605700D01*
X129783900Y-90865200D02*
X129783900Y-88328900D01*
X125857000Y-79629000D02*
X125918000Y-79690000D01*
X129783900Y-88328900D02*
X127180000Y-85725000D01*
X126020000Y-85725000D02*
X125857000Y-85562000D01*
X125857000Y-85562000D02*
X125857000Y-85471000D01*
X147320000Y-64135000D02*
X145669700Y-64135000D01*
X135612500Y-111125000D02*
X135562700Y-111125000D01*
X125918000Y-79690000D02*
X130193000Y-79690000D01*
X130193000Y-79690000D02*
X135588000Y-74295000D01*
X143020300Y-65405000D02*
X141819600Y-66605700D01*
X134673700Y-99458700D02*
X132050000Y-96835000D01*
X135612500Y-62696300D02*
X138301600Y-65385400D01*
X134673700Y-110236000D02*
X134673700Y-99458700D01*
X124430000Y-79690000D02*
X125796000Y-79690000D01*
X129510000Y-96835000D02*
X128369200Y-95694200D01*
X128369200Y-95694200D02*
X128369200Y-92279900D01*
X141819600Y-67095400D02*
X139700000Y-69215000D01*
X125796000Y-79690000D02*
X125857000Y-79629000D01*
X125766000Y-85471000D02*
X124430000Y-84135000D01*
X135562700Y-111125000D02*
X134673700Y-110236000D01*
X127000000Y-50800000D02*
X127000000Y-54610000D01*
X127000000Y-54610000D02*
X130175000Y-57785000D01*
X145669600Y-86995000D02*
X147320000Y-86995000D01*
X135588000Y-74295000D02*
X139700000Y-74295000D01*
X145007500Y-86995000D02*
X145669600Y-86995000D01*
X127844300Y-91755000D02*
X128369200Y-92279900D01*
X145007500Y-64135000D02*
X145669700Y-64135000D01*
X135612500Y-57785000D02*
X135612500Y-62696300D01*
X124430000Y-91755000D02*
X127844300Y-91755000D01*
X133653300Y-91418200D02*
X135580100Y-93345000D01*
X131692200Y-52952200D02*
X129540000Y-50800000D01*
X143282500Y-92990500D02*
X144907000Y-94615000D01*
X140335000Y-105410000D02*
X139700000Y-104775000D01*
X144907000Y-94615000D02*
X147320000Y-94615000D01*
X128905000Y-85725000D02*
X131167500Y-85725000D01*
X135580100Y-93345000D02*
X142165300Y-93345000D01*
X133653300Y-90439400D02*
X133653300Y-91418200D01*
X142494000Y-54356000D02*
X141090200Y-52952200D01*
X131167500Y-85725000D02*
X131167500Y-87953600D01*
X144337700Y-62092300D02*
X144032700Y-62092300D01*
X144780000Y-97155000D02*
X144780000Y-101345300D01*
X140970000Y-85090000D02*
X141732000Y-85852000D01*
X142494000Y-61976000D02*
X142494000Y-54356000D01*
X144032700Y-62092300D02*
X143282500Y-62842500D01*
X142610300Y-62092300D02*
X142494000Y-61976000D01*
X141090200Y-52952200D02*
X131692200Y-52952200D01*
X139700000Y-81915000D02*
X139700000Y-85090000D01*
X142165300Y-93345000D02*
X143282500Y-92227800D01*
X131167500Y-87953600D02*
X133653300Y-90439400D01*
X141908000Y-61468000D02*
X140185000Y-59745000D01*
X141732000Y-86614000D02*
X142113000Y-86995000D01*
X146835000Y-109165000D02*
X140335000Y-109165000D01*
X144780000Y-101345300D02*
X141350300Y-104775000D01*
X141732000Y-85852000D02*
X141732000Y-86614000D01*
X144032700Y-62092300D02*
X142610300Y-62092300D01*
X142113000Y-86995000D02*
X143282500Y-86995000D01*
X146685000Y-59745000D02*
X144337700Y-62092300D01*
X143282500Y-86995000D02*
X143282500Y-92227800D01*
X139700000Y-85090000D02*
X140970000Y-85090000D01*
X147320000Y-97155000D02*
X144780000Y-97155000D01*
X141350300Y-104775000D02*
X139700000Y-104775000D01*
X143282500Y-62842500D02*
X143282500Y-64135000D01*
X142494000Y-61468000D02*
X141908000Y-61468000D01*
X143282500Y-92227800D02*
X143282500Y-92990500D01*
X140335000Y-109165000D02*
X140335000Y-105410000D01*
D23*
X134023850Y-113372150D02*
X118402100Y-97750400D01*
X134316700Y-113665000D02*
X134023850Y-113372150D01*
X132636800Y-47084700D02*
X133444700Y-47892600D01*
X127488700Y-49435500D02*
X128270000Y-48654200D01*
X128982400Y-47084700D02*
X132636800Y-47084700D01*
X135612500Y-113665000D02*
X134316700Y-113665000D01*
X118402100Y-57668100D02*
X126634700Y-49435500D01*
X128270000Y-48654200D02*
X128270000Y-47797100D01*
X134620000Y-48260000D02*
X133444700Y-48260000D01*
X118402100Y-97750400D02*
X118402100Y-57668100D01*
X128270000Y-47797100D02*
X128982400Y-47084700D01*
X126634700Y-49435500D02*
X127488700Y-49435500D01*
X133444700Y-47892600D02*
X133444700Y-48260000D01*
X130096800Y-49435300D02*
X130904700Y-48627400D01*
X129203700Y-49435300D02*
X130096800Y-49435300D01*
X130904700Y-48260000D02*
X132080000Y-48260000D01*
X130904700Y-48627400D02*
X130904700Y-48260000D01*
X130556000Y-56896000D02*
X128270000Y-54610000D01*
X128270000Y-50369000D02*
X129203700Y-49435300D01*
X133961500Y-56896000D02*
X130556000Y-56896000D01*
X135612500Y-55245000D02*
X133961500Y-56896000D01*
X128270000Y-54610000D02*
X128270000Y-50369000D01*
X124750000Y-89535000D02*
X124430000Y-89855000D01*
X127000000Y-89535000D02*
X124750000Y-89535000D01*
X122555000Y-90805000D02*
X120015000Y-90805000D01*
X126680000Y-82235000D02*
X127000000Y-81915000D01*
X124430000Y-82235000D02*
X126680000Y-82235000D01*
X122555000Y-83185000D02*
X120015000Y-83185000D01*
X124430000Y-77790000D02*
X126402500Y-77790000D01*
X126402500Y-77790000D02*
X126722500Y-77470000D01*
X122555000Y-78740000D02*
X121920000Y-78740000D01*
X121920000Y-78740000D02*
X120015000Y-80645000D01*
X132050000Y-94935000D02*
X134022500Y-94935000D01*
X134022500Y-94935000D02*
X134342500Y-94615000D01*
X130175000Y-93517600D02*
X132694500Y-90998100D01*
X130175000Y-95885000D02*
X130175000Y-93517600D01*
X137437500Y-111125000D02*
X137437500Y-113665000D01*
X140335000Y-113665000D02*
X146835000Y-113665000D01*
X137437500Y-113665000D02*
X140335000Y-113665000D01*
X137437500Y-57785000D02*
X137437500Y-55245000D01*
X137437500Y-55245000D02*
X140185000Y-55245000D01*
X143232500Y-71755000D02*
X141962500Y-73025000D01*
X135615300Y-73025000D02*
X129900300Y-78740000D01*
X141962500Y-73025000D02*
X135615300Y-73025000D01*
X129900300Y-78740000D02*
X127635000Y-78740000D01*
X145057500Y-71755000D02*
X147320000Y-71755000D01*
X143114900Y-80833400D02*
X141312300Y-80833400D01*
X144047100Y-75109600D02*
X144047100Y-79901200D01*
X143232500Y-74295000D02*
X144047100Y-75109600D01*
X144047100Y-79901200D02*
X143114900Y-80833400D01*
X145057500Y-74295000D02*
X147320000Y-74295000D01*
X137411900Y-81028100D02*
X135255000Y-83185000D01*
X142107100Y-77960400D02*
X139123000Y-77960400D01*
X143232500Y-76835000D02*
X142107100Y-77960400D01*
X139123000Y-77960400D02*
X137411900Y-79671500D01*
X137411900Y-79671500D02*
X137411900Y-81028100D01*
X145057500Y-76835000D02*
X147320000Y-76835000D01*
X141739200Y-79375000D02*
X140613800Y-80500400D01*
X136719600Y-86800400D02*
X135255000Y-88265000D01*
X143232500Y-79375000D02*
X141739200Y-79375000D01*
X139123000Y-80500400D02*
X136719600Y-82903800D01*
X136719600Y-82903800D02*
X136719600Y-86800400D01*
X140613800Y-80500400D02*
X139123000Y-80500400D01*
X145057500Y-79375000D02*
X147320000Y-79375000D01*
X141988400Y-83822400D02*
X143232500Y-82578300D01*
X143232500Y-82578300D02*
X143232500Y-81915000D01*
X145057500Y-81915000D02*
X147320000Y-81915000D01*
X143232500Y-67709800D02*
X140457300Y-70485000D01*
X118909300Y-80227500D02*
X118909300Y-84619300D01*
X143232500Y-66675000D02*
X143232500Y-67709800D01*
X137033000Y-70485000D02*
X130923300Y-76594700D01*
X130923300Y-76594700D02*
X123286892Y-76594700D01*
X123286892Y-76594700D02*
X120506592Y-79375000D01*
X140457300Y-70485000D02*
X137033000Y-70485000D01*
X118909300Y-84619300D02*
X120015000Y-85725000D01*
X119761800Y-79375000D02*
X118909300Y-80227500D01*
X120506592Y-79375000D02*
X119761800Y-79375000D01*
X145057500Y-66675000D02*
X147320000Y-66675000D01*
X144046300Y-70028800D02*
X144046300Y-72276100D01*
X143273200Y-72965300D02*
X140818100Y-75420400D01*
X140818100Y-75420400D02*
X139123000Y-75420400D01*
X136719600Y-77823800D02*
X136719600Y-79180400D01*
X136719600Y-79180400D02*
X135255000Y-80645000D01*
X139123000Y-75420400D02*
X136719600Y-77823800D01*
X143357100Y-72965300D02*
X143273200Y-72965300D01*
X144046300Y-72276100D02*
X143357100Y-72965300D01*
X143232500Y-69215000D02*
X144046300Y-70028800D01*
X145057500Y-69215000D02*
X147320000Y-69215000D01*
X128786100Y-89573900D02*
X128786100Y-90642600D01*
X128825000Y-89535000D02*
X128786100Y-89573900D01*
X132080000Y-85170000D02*
X132080000Y-86630900D01*
X128825000Y-81915000D02*
X132080000Y-85170000D01*
X134984100Y-89535000D02*
X139700000Y-89535000D01*
X132080000Y-86630900D02*
X134984100Y-89535000D01*
X130137900Y-77470000D02*
X130288200Y-77319700D01*
X128547500Y-77470000D02*
X130137900Y-77470000D01*
X136167500Y-94615000D02*
X139700000Y-94615000D01*
X135255000Y-85725000D02*
X132992500Y-85725000D01*
G04 #@! TA.AperFunction,Conductor*
G36*
X149101034Y-44196799D02*
G01*
X149108744Y-44197558D01*
X149133266Y-44199973D01*
X149243728Y-44212419D01*
X149265823Y-44216975D01*
X149319045Y-44233120D01*
X149398132Y-44260794D01*
X149415607Y-44268467D01*
X149468933Y-44296970D01*
X149472641Y-44299123D01*
X149534057Y-44337712D01*
X149542257Y-44342865D01*
X149548609Y-44347439D01*
X149600264Y-44389831D01*
X149604765Y-44393910D01*
X149662087Y-44451232D01*
X149666167Y-44455734D01*
X149708559Y-44507389D01*
X149713133Y-44513741D01*
X149756862Y-44583334D01*
X149759039Y-44587085D01*
X149764244Y-44596821D01*
X149787528Y-44640384D01*
X149795210Y-44657881D01*
X149822881Y-44736960D01*
X149839021Y-44790167D01*
X149843580Y-44812278D01*
X149856027Y-44922742D01*
X149859201Y-44954968D01*
X149859500Y-44961050D01*
X149859500Y-55329694D01*
X149839815Y-55396733D01*
X149787011Y-55442488D01*
X149717853Y-55452432D01*
X149656465Y-55425242D01*
X149651674Y-55421279D01*
X149648685Y-55418807D01*
X149644377Y-55414887D01*
X142105703Y-47876212D01*
X142095880Y-47863950D01*
X142095659Y-47864134D01*
X142090686Y-47858123D01*
X142077929Y-47846143D01*
X142040264Y-47810773D01*
X142025826Y-47796335D01*
X142019375Y-47789883D01*
X142013886Y-47785625D01*
X142009461Y-47781847D01*
X141975482Y-47749938D01*
X141975480Y-47749936D01*
X141975477Y-47749935D01*
X141957929Y-47740288D01*
X141941663Y-47729604D01*
X141925833Y-47717325D01*
X141883068Y-47698818D01*
X141877822Y-47696248D01*
X141836993Y-47673803D01*
X141836992Y-47673802D01*
X141817593Y-47668822D01*
X141799181Y-47662518D01*
X141780798Y-47654562D01*
X141780792Y-47654560D01*
X141734774Y-47647272D01*
X141729052Y-47646087D01*
X141683921Y-47634500D01*
X141683919Y-47634500D01*
X141663884Y-47634500D01*
X141644486Y-47632973D01*
X141637062Y-47631797D01*
X141624705Y-47629840D01*
X141624704Y-47629840D01*
X141578316Y-47634225D01*
X141572478Y-47634500D01*
X140975227Y-47634500D01*
X140942874Y-47625000D01*
X145329341Y-47625000D01*
X145349936Y-47860403D01*
X145349938Y-47860413D01*
X145411094Y-48088655D01*
X145411096Y-48088659D01*
X145411097Y-48088663D01*
X145432238Y-48134000D01*
X145510964Y-48302828D01*
X145510965Y-48302830D01*
X145646505Y-48496402D01*
X145813597Y-48663494D01*
X146007169Y-48799034D01*
X146007171Y-48799035D01*
X146221337Y-48898903D01*
X146449592Y-48960063D01*
X146626034Y-48975500D01*
X146743966Y-48975500D01*
X146920408Y-48960063D01*
X147148663Y-48898903D01*
X147362829Y-48799035D01*
X147556401Y-48663495D01*
X147723495Y-48496401D01*
X147859035Y-48302830D01*
X147958903Y-48088663D01*
X148020063Y-47860408D01*
X148040659Y-47625000D01*
X148020063Y-47389592D01*
X147958903Y-47161337D01*
X147859035Y-46947171D01*
X147859034Y-46947169D01*
X147723494Y-46753597D01*
X147556402Y-46586505D01*
X147362830Y-46450965D01*
X147362828Y-46450964D01*
X147255746Y-46401031D01*
X147148663Y-46351097D01*
X147148659Y-46351096D01*
X147148655Y-46351094D01*
X146920413Y-46289938D01*
X146920403Y-46289936D01*
X146743966Y-46274500D01*
X146626034Y-46274500D01*
X146449596Y-46289936D01*
X146449586Y-46289938D01*
X146221344Y-46351094D01*
X146221335Y-46351098D01*
X146007171Y-46450964D01*
X146007169Y-46450965D01*
X145813597Y-46586505D01*
X145646506Y-46753597D01*
X145646501Y-46753604D01*
X145510967Y-46947165D01*
X145510965Y-46947169D01*
X145411098Y-47161335D01*
X145411094Y-47161344D01*
X145349938Y-47389586D01*
X145349936Y-47389596D01*
X145329341Y-47624999D01*
X145329341Y-47625000D01*
X140942874Y-47625000D01*
X140908188Y-47614815D01*
X140873652Y-47581623D01*
X140738494Y-47388597D01*
X140571402Y-47221506D01*
X140571395Y-47221501D01*
X140546932Y-47204372D01*
X140519027Y-47184832D01*
X140377834Y-47085967D01*
X140377830Y-47085965D01*
X140377828Y-47085964D01*
X140163663Y-46986097D01*
X140163659Y-46986096D01*
X140163655Y-46986094D01*
X139935413Y-46924938D01*
X139935403Y-46924936D01*
X139700001Y-46904341D01*
X139699999Y-46904341D01*
X139464596Y-46924936D01*
X139464586Y-46924938D01*
X139236344Y-46986094D01*
X139236335Y-46986098D01*
X139022171Y-47085964D01*
X139022169Y-47085965D01*
X138828597Y-47221505D01*
X138661505Y-47388597D01*
X138531575Y-47574158D01*
X138476998Y-47617783D01*
X138407500Y-47624977D01*
X138345145Y-47593454D01*
X138328425Y-47574158D01*
X138198494Y-47388597D01*
X138031402Y-47221506D01*
X138031395Y-47221501D01*
X138006932Y-47204372D01*
X137979027Y-47184832D01*
X137837834Y-47085967D01*
X137837830Y-47085965D01*
X137837828Y-47085964D01*
X137623663Y-46986097D01*
X137623659Y-46986096D01*
X137623655Y-46986094D01*
X137395413Y-46924938D01*
X137395403Y-46924936D01*
X137160001Y-46904341D01*
X137159999Y-46904341D01*
X136924596Y-46924936D01*
X136924586Y-46924938D01*
X136696344Y-46986094D01*
X136696335Y-46986098D01*
X136482171Y-47085964D01*
X136482169Y-47085965D01*
X136288597Y-47221505D01*
X136121505Y-47388597D01*
X135991575Y-47574158D01*
X135936998Y-47617783D01*
X135867500Y-47624977D01*
X135805145Y-47593454D01*
X135788425Y-47574158D01*
X135658494Y-47388597D01*
X135491402Y-47221506D01*
X135491395Y-47221501D01*
X135466932Y-47204372D01*
X135439027Y-47184832D01*
X135297834Y-47085967D01*
X135297830Y-47085965D01*
X135297828Y-47085964D01*
X135083663Y-46986097D01*
X135083659Y-46986096D01*
X135083655Y-46986094D01*
X134855413Y-46924938D01*
X134855403Y-46924936D01*
X134620001Y-46904341D01*
X134619999Y-46904341D01*
X134384596Y-46924936D01*
X134384586Y-46924938D01*
X134156344Y-46986094D01*
X134156335Y-46986098D01*
X133942171Y-47085964D01*
X133942169Y-47085965D01*
X133780657Y-47199056D01*
X133714450Y-47221384D01*
X133646683Y-47204372D01*
X133621853Y-47185162D01*
X133137603Y-46700912D01*
X133127780Y-46688650D01*
X133127559Y-46688834D01*
X133122586Y-46682823D01*
X133103959Y-46665331D01*
X133072164Y-46635473D01*
X133061719Y-46625028D01*
X133051275Y-46614583D01*
X133045786Y-46610325D01*
X133041361Y-46606547D01*
X133007382Y-46574638D01*
X133007380Y-46574636D01*
X133007377Y-46574635D01*
X132989829Y-46564988D01*
X132973563Y-46554304D01*
X132957733Y-46542025D01*
X132914968Y-46523518D01*
X132909722Y-46520948D01*
X132868893Y-46498503D01*
X132868892Y-46498502D01*
X132849493Y-46493522D01*
X132831081Y-46487218D01*
X132812698Y-46479262D01*
X132812692Y-46479260D01*
X132766674Y-46471972D01*
X132760952Y-46470787D01*
X132715821Y-46459200D01*
X132715819Y-46459200D01*
X132695784Y-46459200D01*
X132676386Y-46457673D01*
X132668962Y-46456497D01*
X132656605Y-46454540D01*
X132656604Y-46454540D01*
X132610216Y-46458925D01*
X132604378Y-46459200D01*
X129065143Y-46459200D01*
X129049522Y-46457475D01*
X129049495Y-46457761D01*
X129041733Y-46457026D01*
X128972572Y-46459200D01*
X128943049Y-46459200D01*
X128936178Y-46460067D01*
X128930359Y-46460525D01*
X128883774Y-46461989D01*
X128883768Y-46461990D01*
X128864526Y-46467580D01*
X128845487Y-46471523D01*
X128825617Y-46474034D01*
X128825603Y-46474037D01*
X128782283Y-46491188D01*
X128776758Y-46493080D01*
X128732013Y-46506080D01*
X128732010Y-46506081D01*
X128714766Y-46516279D01*
X128697305Y-46524833D01*
X128678674Y-46532210D01*
X128678662Y-46532217D01*
X128640970Y-46559602D01*
X128636087Y-46562809D01*
X128595980Y-46586529D01*
X128581814Y-46600695D01*
X128567024Y-46613327D01*
X128550814Y-46625104D01*
X128550811Y-46625107D01*
X128521110Y-46661009D01*
X128517177Y-46665331D01*
X127997675Y-47184832D01*
X127936352Y-47218317D01*
X127866660Y-47213333D01*
X127838871Y-47198726D01*
X127677834Y-47085967D01*
X127677830Y-47085965D01*
X127677828Y-47085964D01*
X127463663Y-46986097D01*
X127463659Y-46986096D01*
X127463655Y-46986094D01*
X127235413Y-46924938D01*
X127235403Y-46924936D01*
X127000001Y-46904341D01*
X126999999Y-46904341D01*
X126764596Y-46924936D01*
X126764586Y-46924938D01*
X126536344Y-46986094D01*
X126536335Y-46986098D01*
X126322171Y-47085964D01*
X126322169Y-47085965D01*
X126128597Y-47221505D01*
X125961505Y-47388597D01*
X125825965Y-47582169D01*
X125825964Y-47582171D01*
X125726098Y-47796335D01*
X125726094Y-47796344D01*
X125664938Y-48024586D01*
X125664936Y-48024596D01*
X125644341Y-48259999D01*
X125644341Y-48260000D01*
X125664936Y-48495403D01*
X125664938Y-48495413D01*
X125726094Y-48723655D01*
X125726096Y-48723659D01*
X125726097Y-48723663D01*
X125803301Y-48889227D01*
X125825965Y-48937830D01*
X125825967Y-48937834D01*
X125940003Y-49100694D01*
X125962330Y-49166900D01*
X125945320Y-49234667D01*
X125926109Y-49259498D01*
X118018308Y-57167299D01*
X118006051Y-57177120D01*
X118006234Y-57177341D01*
X118000223Y-57182313D01*
X117952872Y-57232736D01*
X117931989Y-57253619D01*
X117931977Y-57253632D01*
X117927721Y-57259117D01*
X117923937Y-57263547D01*
X117892037Y-57297518D01*
X117892036Y-57297520D01*
X117882384Y-57315076D01*
X117871710Y-57331326D01*
X117859429Y-57347161D01*
X117859424Y-57347168D01*
X117840915Y-57389938D01*
X117838345Y-57395184D01*
X117815903Y-57436006D01*
X117810922Y-57455407D01*
X117804621Y-57473810D01*
X117796662Y-57492202D01*
X117796661Y-57492205D01*
X117789371Y-57538227D01*
X117788187Y-57543946D01*
X117776601Y-57589072D01*
X117776600Y-57589082D01*
X117776600Y-57609116D01*
X117775073Y-57628515D01*
X117771940Y-57648294D01*
X117771940Y-57648295D01*
X117776325Y-57694683D01*
X117776600Y-57700521D01*
X117776600Y-97667655D01*
X117774875Y-97683272D01*
X117775161Y-97683299D01*
X117774426Y-97691065D01*
X117776600Y-97760214D01*
X117776600Y-97789743D01*
X117776601Y-97789760D01*
X117777468Y-97796631D01*
X117777926Y-97802450D01*
X117779390Y-97849024D01*
X117779391Y-97849027D01*
X117784980Y-97868267D01*
X117788924Y-97887311D01*
X117791436Y-97907191D01*
X117808590Y-97950519D01*
X117810482Y-97956047D01*
X117823481Y-98000788D01*
X117833680Y-98018034D01*
X117842238Y-98035503D01*
X117849614Y-98054132D01*
X117876998Y-98091823D01*
X117880206Y-98096707D01*
X117903927Y-98136816D01*
X117903933Y-98136824D01*
X117918090Y-98150980D01*
X117930728Y-98165776D01*
X117942505Y-98181986D01*
X117942506Y-98181987D01*
X117978409Y-98211688D01*
X117982720Y-98215610D01*
X125768375Y-106001265D01*
X133525680Y-113758570D01*
X133815898Y-114048789D01*
X133825722Y-114061050D01*
X133825943Y-114060868D01*
X133830913Y-114066876D01*
X133881337Y-114114228D01*
X133902223Y-114135115D01*
X133902227Y-114135118D01*
X133902229Y-114135120D01*
X133907711Y-114139373D01*
X133912143Y-114143157D01*
X133946118Y-114175062D01*
X133963676Y-114184714D01*
X133979935Y-114195395D01*
X133995764Y-114207673D01*
X134038538Y-114226182D01*
X134043756Y-114228738D01*
X134084608Y-114251197D01*
X134104016Y-114256180D01*
X134122417Y-114262480D01*
X134140804Y-114270437D01*
X134184188Y-114277308D01*
X134186819Y-114277725D01*
X134192539Y-114278909D01*
X134237681Y-114290500D01*
X134257716Y-114290500D01*
X134277114Y-114292026D01*
X134296894Y-114295159D01*
X134296895Y-114295160D01*
X134296895Y-114295159D01*
X134296896Y-114295160D01*
X134343284Y-114290775D01*
X134349122Y-114290500D01*
X134665519Y-114290500D01*
X134732558Y-114310185D01*
X134771058Y-114349404D01*
X134779660Y-114363350D01*
X134901650Y-114485340D01*
X135048484Y-114575908D01*
X135212247Y-114630174D01*
X135313323Y-114640500D01*
X135911676Y-114640499D01*
X135911684Y-114640498D01*
X135911687Y-114640498D01*
X135967030Y-114634844D01*
X136012753Y-114630174D01*
X136176516Y-114575908D01*
X136323350Y-114485340D01*
X136437319Y-114371371D01*
X136498642Y-114337886D01*
X136568334Y-114342870D01*
X136612681Y-114371371D01*
X136726650Y-114485340D01*
X136873484Y-114575908D01*
X137037247Y-114630174D01*
X137138323Y-114640500D01*
X137736676Y-114640499D01*
X137736684Y-114640498D01*
X137736687Y-114640498D01*
X137792030Y-114634844D01*
X137837753Y-114630174D01*
X138001516Y-114575908D01*
X138148350Y-114485340D01*
X138270340Y-114363350D01*
X138278942Y-114349404D01*
X138330890Y-114302679D01*
X138384481Y-114290500D01*
X138889850Y-114290500D01*
X138956889Y-114310185D01*
X139002644Y-114362989D01*
X139003405Y-114364689D01*
X139010824Y-114381603D01*
X139146833Y-114589782D01*
X139146836Y-114589785D01*
X139315256Y-114772738D01*
X139511491Y-114925474D01*
X139730190Y-115043828D01*
X139965386Y-115124571D01*
X140210665Y-115165500D01*
X140459335Y-115165500D01*
X140704614Y-115124571D01*
X140939810Y-115043828D01*
X141158509Y-114925474D01*
X141354744Y-114772738D01*
X141523164Y-114589785D01*
X141659173Y-114381607D01*
X141659175Y-114381603D01*
X141666595Y-114364689D01*
X141711551Y-114311203D01*
X141778287Y-114290514D01*
X141780150Y-114290500D01*
X145389850Y-114290500D01*
X145456889Y-114310185D01*
X145502644Y-114362989D01*
X145503405Y-114364689D01*
X145510824Y-114381603D01*
X145646833Y-114589782D01*
X145646836Y-114589785D01*
X145815256Y-114772738D01*
X146011491Y-114925474D01*
X146230190Y-115043828D01*
X146465386Y-115124571D01*
X146710665Y-115165500D01*
X146959335Y-115165500D01*
X147204614Y-115124571D01*
X147439810Y-115043828D01*
X147658509Y-114925474D01*
X147854744Y-114772738D01*
X148023164Y-114589785D01*
X148159173Y-114381607D01*
X148259063Y-114153881D01*
X148320108Y-113912821D01*
X148340643Y-113665000D01*
X148320108Y-113417179D01*
X148259063Y-113176119D01*
X148223831Y-113095799D01*
X148159173Y-112948393D01*
X148023166Y-112740217D01*
X147985982Y-112699825D01*
X147854744Y-112557262D01*
X147658509Y-112404526D01*
X147658507Y-112404525D01*
X147658506Y-112404524D01*
X147439811Y-112286172D01*
X147439802Y-112286169D01*
X147204616Y-112205429D01*
X146959335Y-112164500D01*
X146710665Y-112164500D01*
X146465383Y-112205429D01*
X146230197Y-112286169D01*
X146230188Y-112286172D01*
X146011493Y-112404524D01*
X145815257Y-112557261D01*
X145646833Y-112740217D01*
X145510824Y-112948396D01*
X145503405Y-112965311D01*
X145458449Y-113018797D01*
X145391713Y-113039486D01*
X145389850Y-113039500D01*
X141780150Y-113039500D01*
X141713111Y-113019815D01*
X141667356Y-112967011D01*
X141666595Y-112965311D01*
X141659175Y-112948396D01*
X141523166Y-112740217D01*
X141485982Y-112699825D01*
X141354744Y-112557262D01*
X141158509Y-112404526D01*
X141158507Y-112404525D01*
X141158506Y-112404524D01*
X140939811Y-112286172D01*
X140939802Y-112286169D01*
X140704616Y-112205429D01*
X140459335Y-112164500D01*
X140210665Y-112164500D01*
X139965383Y-112205429D01*
X139730197Y-112286169D01*
X139730188Y-112286172D01*
X139511493Y-112404524D01*
X139315257Y-112557261D01*
X139146833Y-112740217D01*
X139010824Y-112948396D01*
X139003405Y-112965311D01*
X138958449Y-113018797D01*
X138891713Y-113039486D01*
X138889850Y-113039500D01*
X138384481Y-113039500D01*
X138317442Y-113019815D01*
X138278942Y-112980596D01*
X138277908Y-112978920D01*
X138270340Y-112966650D01*
X138148350Y-112844660D01*
X138148347Y-112844657D01*
X138121901Y-112828345D01*
X138075178Y-112776397D01*
X138063000Y-112722808D01*
X138063000Y-112067191D01*
X138082685Y-112000152D01*
X138121904Y-111961652D01*
X138124599Y-111959989D01*
X138148350Y-111945340D01*
X138270340Y-111823350D01*
X138360908Y-111676516D01*
X138415174Y-111512753D01*
X138425500Y-111411677D01*
X138425499Y-110838324D01*
X138415174Y-110737247D01*
X138360908Y-110573484D01*
X138270340Y-110426650D01*
X138148350Y-110304660D01*
X138001516Y-110214092D01*
X137837753Y-110159826D01*
X137837751Y-110159825D01*
X137736678Y-110149500D01*
X137138330Y-110149500D01*
X137138312Y-110149501D01*
X137037247Y-110159825D01*
X136873484Y-110214092D01*
X136873481Y-110214093D01*
X136726648Y-110304661D01*
X136612681Y-110418629D01*
X136551358Y-110452114D01*
X136481666Y-110447130D01*
X136437319Y-110418629D01*
X136323351Y-110304661D01*
X136323350Y-110304660D01*
X136176516Y-110214092D01*
X136012753Y-110159826D01*
X136012751Y-110159825D01*
X135911684Y-110149500D01*
X135911677Y-110149500D01*
X135699929Y-110149500D01*
X135632890Y-110129815D01*
X135612252Y-110113185D01*
X135460516Y-109961449D01*
X135427034Y-109900128D01*
X135424200Y-109873770D01*
X135424200Y-109165005D01*
X138829859Y-109165005D01*
X138850385Y-109412729D01*
X138850387Y-109412738D01*
X138911412Y-109653717D01*
X139011266Y-109881364D01*
X139111564Y-110034882D01*
X139809070Y-109337376D01*
X139811884Y-109350915D01*
X139881442Y-109485156D01*
X139984638Y-109595652D01*
X140113819Y-109674209D01*
X140165002Y-109688549D01*
X139464942Y-110388609D01*
X139511768Y-110425055D01*
X139511770Y-110425056D01*
X139730385Y-110543364D01*
X139730396Y-110543369D01*
X139965506Y-110624083D01*
X140210707Y-110665000D01*
X140459293Y-110665000D01*
X140704493Y-110624083D01*
X140939603Y-110543369D01*
X140939614Y-110543364D01*
X141158228Y-110425057D01*
X141158231Y-110425055D01*
X141205056Y-110388609D01*
X140506568Y-109690121D01*
X140623458Y-109639349D01*
X140740739Y-109543934D01*
X140827928Y-109420415D01*
X140858354Y-109334802D01*
X141558434Y-110034882D01*
X141658731Y-109881369D01*
X141758587Y-109653717D01*
X141819612Y-109412738D01*
X141819614Y-109412729D01*
X141840141Y-109165005D01*
X145329859Y-109165005D01*
X145350385Y-109412729D01*
X145350387Y-109412738D01*
X145411412Y-109653717D01*
X145511266Y-109881364D01*
X145611564Y-110034882D01*
X146309070Y-109337376D01*
X146311884Y-109350915D01*
X146381442Y-109485156D01*
X146484638Y-109595652D01*
X146613819Y-109674209D01*
X146665002Y-109688549D01*
X145964942Y-110388609D01*
X146011768Y-110425055D01*
X146011770Y-110425056D01*
X146230385Y-110543364D01*
X146230396Y-110543369D01*
X146465506Y-110624083D01*
X146710707Y-110665000D01*
X146959293Y-110665000D01*
X147204493Y-110624083D01*
X147439603Y-110543369D01*
X147439614Y-110543364D01*
X147658228Y-110425057D01*
X147658231Y-110425055D01*
X147705056Y-110388609D01*
X147006568Y-109690121D01*
X147123458Y-109639349D01*
X147240739Y-109543934D01*
X147327928Y-109420415D01*
X147358354Y-109334802D01*
X148058434Y-110034882D01*
X148158731Y-109881369D01*
X148258587Y-109653717D01*
X148319612Y-109412738D01*
X148319614Y-109412729D01*
X148340141Y-109165005D01*
X148340141Y-109164994D01*
X148319614Y-108917270D01*
X148319612Y-108917261D01*
X148258587Y-108676282D01*
X148158731Y-108448630D01*
X148058434Y-108295116D01*
X147360929Y-108992622D01*
X147358116Y-108979085D01*
X147288558Y-108844844D01*
X147185362Y-108734348D01*
X147056181Y-108655791D01*
X147004997Y-108641450D01*
X147705057Y-107941390D01*
X147705056Y-107941389D01*
X147658229Y-107904943D01*
X147439614Y-107786635D01*
X147439603Y-107786630D01*
X147204493Y-107705916D01*
X146959293Y-107665000D01*
X146710707Y-107665000D01*
X146465506Y-107705916D01*
X146230396Y-107786630D01*
X146230390Y-107786632D01*
X146011761Y-107904949D01*
X145964942Y-107941388D01*
X145964942Y-107941390D01*
X146663431Y-108639878D01*
X146546542Y-108690651D01*
X146429261Y-108786066D01*
X146342072Y-108909585D01*
X146311645Y-108995197D01*
X145611564Y-108295116D01*
X145511267Y-108448632D01*
X145411412Y-108676282D01*
X145350387Y-108917261D01*
X145350385Y-108917270D01*
X145329859Y-109164994D01*
X145329859Y-109165005D01*
X141840141Y-109165005D01*
X141840141Y-109164994D01*
X141819614Y-108917270D01*
X141819612Y-108917261D01*
X141758587Y-108676282D01*
X141658731Y-108448630D01*
X141558434Y-108295116D01*
X140860929Y-108992622D01*
X140858116Y-108979085D01*
X140788558Y-108844844D01*
X140685362Y-108734348D01*
X140556181Y-108655791D01*
X140504997Y-108641450D01*
X141205057Y-107941390D01*
X141205056Y-107941389D01*
X141158229Y-107904943D01*
X140939614Y-107786635D01*
X140939603Y-107786630D01*
X140704493Y-107705916D01*
X140459293Y-107665000D01*
X140210707Y-107665000D01*
X139965506Y-107705916D01*
X139730396Y-107786630D01*
X139730390Y-107786632D01*
X139511761Y-107904949D01*
X139464942Y-107941388D01*
X139464942Y-107941390D01*
X140163431Y-108639878D01*
X140046542Y-108690651D01*
X139929261Y-108786066D01*
X139842072Y-108909585D01*
X139811645Y-108995197D01*
X139111564Y-108295116D01*
X139011267Y-108448632D01*
X138911412Y-108676282D01*
X138850387Y-108917261D01*
X138850385Y-108917270D01*
X138829859Y-109164994D01*
X138829859Y-109165005D01*
X135424200Y-109165005D01*
X135424200Y-99522405D01*
X135425509Y-99504435D01*
X135428989Y-99480674D01*
X135424436Y-99428639D01*
X135424200Y-99423232D01*
X135424200Y-99414996D01*
X135424200Y-99414991D01*
X135420391Y-99382405D01*
X135413698Y-99305903D01*
X135413695Y-99305894D01*
X135412238Y-99298835D01*
X135412298Y-99298822D01*
X135410666Y-99291464D01*
X135410608Y-99291478D01*
X135408941Y-99284447D01*
X135408941Y-99284445D01*
X135382669Y-99212263D01*
X135358514Y-99139366D01*
X135355462Y-99132821D01*
X135355515Y-99132795D01*
X135352231Y-99126011D01*
X135352179Y-99126038D01*
X135348936Y-99119582D01*
X135306734Y-99055416D01*
X135266414Y-98990047D01*
X135261934Y-98984381D01*
X135261980Y-98984343D01*
X135257219Y-98978499D01*
X135257174Y-98978538D01*
X135252534Y-98973008D01*
X135196682Y-98920313D01*
X133324319Y-97047950D01*
X133290834Y-96986627D01*
X133288000Y-96960269D01*
X133288000Y-96619304D01*
X133285098Y-96582432D01*
X133285097Y-96582426D01*
X133239245Y-96424606D01*
X133239244Y-96424603D01*
X133239244Y-96424602D01*
X133155581Y-96283135D01*
X133155579Y-96283133D01*
X133155576Y-96283129D01*
X133039370Y-96166923D01*
X133039362Y-96166917D01*
X132961181Y-96120681D01*
X132897898Y-96083256D01*
X132897897Y-96083255D01*
X132897896Y-96083255D01*
X132897893Y-96083254D01*
X132740073Y-96037402D01*
X132740067Y-96037401D01*
X132703196Y-96034500D01*
X132703194Y-96034500D01*
X131537000Y-96034500D01*
X131469961Y-96014815D01*
X131424206Y-95962011D01*
X131413000Y-95910500D01*
X131413000Y-95859500D01*
X131432685Y-95792461D01*
X131485489Y-95746706D01*
X131537000Y-95735500D01*
X132703196Y-95735500D01*
X132721631Y-95734049D01*
X132740069Y-95732598D01*
X132740071Y-95732597D01*
X132740073Y-95732597D01*
X132781691Y-95720505D01*
X132897898Y-95686744D01*
X133039365Y-95603081D01*
X133039370Y-95603076D01*
X133045628Y-95596819D01*
X133106951Y-95563334D01*
X133133309Y-95560500D01*
X133862865Y-95560500D01*
X133901868Y-95566794D01*
X133941516Y-95579932D01*
X133942247Y-95580174D01*
X134043323Y-95590500D01*
X134641676Y-95590499D01*
X134641684Y-95590498D01*
X134641687Y-95590498D01*
X134697030Y-95584844D01*
X134742753Y-95580174D01*
X134906516Y-95525908D01*
X135053350Y-95435340D01*
X135167319Y-95321371D01*
X135228642Y-95287886D01*
X135298334Y-95292870D01*
X135342681Y-95321371D01*
X135456650Y-95435340D01*
X135603484Y-95525908D01*
X135767247Y-95580174D01*
X135868323Y-95590500D01*
X136466676Y-95590499D01*
X136466684Y-95590498D01*
X136466687Y-95590498D01*
X136522030Y-95584844D01*
X136567753Y-95580174D01*
X136731516Y-95525908D01*
X136878350Y-95435340D01*
X137000340Y-95313350D01*
X137008942Y-95299404D01*
X137060890Y-95252679D01*
X137114481Y-95240500D01*
X138085812Y-95240500D01*
X138152851Y-95260185D01*
X138187387Y-95293377D01*
X138299954Y-95454141D01*
X138460858Y-95615045D01*
X138460861Y-95615047D01*
X138647266Y-95745568D01*
X138700677Y-95770474D01*
X138705275Y-95772618D01*
X138757714Y-95818791D01*
X138776866Y-95885984D01*
X138756650Y-95952865D01*
X138705275Y-95997382D01*
X138647267Y-96024431D01*
X138647265Y-96024432D01*
X138460858Y-96154954D01*
X138299954Y-96315858D01*
X138169432Y-96502265D01*
X138169431Y-96502267D01*
X138073261Y-96708502D01*
X138073258Y-96708511D01*
X138014366Y-96928302D01*
X138014364Y-96928313D01*
X137994532Y-97154998D01*
X137994532Y-97155001D01*
X138014364Y-97381686D01*
X138014366Y-97381697D01*
X138073258Y-97601488D01*
X138073261Y-97601497D01*
X138169431Y-97807732D01*
X138169432Y-97807734D01*
X138299954Y-97994141D01*
X138460858Y-98155045D01*
X138460861Y-98155047D01*
X138647266Y-98285568D01*
X138704681Y-98312341D01*
X138705275Y-98312618D01*
X138757714Y-98358791D01*
X138776866Y-98425984D01*
X138756650Y-98492865D01*
X138705275Y-98537382D01*
X138647267Y-98564431D01*
X138647265Y-98564432D01*
X138460858Y-98694954D01*
X138299954Y-98855858D01*
X138169432Y-99042265D01*
X138169431Y-99042267D01*
X138073261Y-99248502D01*
X138073258Y-99248511D01*
X138014366Y-99468302D01*
X138014364Y-99468313D01*
X137994532Y-99694998D01*
X137994532Y-99695001D01*
X138014364Y-99921686D01*
X138014366Y-99921697D01*
X138073258Y-100141488D01*
X138073261Y-100141497D01*
X138169431Y-100347732D01*
X138169432Y-100347734D01*
X138299954Y-100534141D01*
X138460858Y-100695045D01*
X138460861Y-100695047D01*
X138647266Y-100825568D01*
X138705275Y-100852618D01*
X138757714Y-100898791D01*
X138776866Y-100965984D01*
X138756650Y-101032865D01*
X138705275Y-101077382D01*
X138647267Y-101104431D01*
X138647265Y-101104432D01*
X138460858Y-101234954D01*
X138299954Y-101395858D01*
X138169432Y-101582265D01*
X138169431Y-101582267D01*
X138073261Y-101788502D01*
X138073258Y-101788511D01*
X138014366Y-102008302D01*
X138014364Y-102008313D01*
X137994532Y-102234998D01*
X137994532Y-102235001D01*
X138014364Y-102461686D01*
X138014366Y-102461697D01*
X138073258Y-102681488D01*
X138073261Y-102681497D01*
X138169431Y-102887732D01*
X138169432Y-102887734D01*
X138299954Y-103074141D01*
X138460858Y-103235045D01*
X138460861Y-103235047D01*
X138647266Y-103365568D01*
X138705865Y-103392893D01*
X138758305Y-103439065D01*
X138777457Y-103506258D01*
X138757242Y-103573139D01*
X138705867Y-103617657D01*
X138647515Y-103644867D01*
X138461179Y-103775342D01*
X138300342Y-103936179D01*
X138169865Y-104122517D01*
X138073734Y-104328673D01*
X138073730Y-104328682D01*
X138021127Y-104524999D01*
X138021128Y-104525000D01*
X139384314Y-104525000D01*
X139372359Y-104536955D01*
X139314835Y-104649852D01*
X139295014Y-104775000D01*
X139314835Y-104900148D01*
X139372359Y-105013045D01*
X139384314Y-105025000D01*
X138021128Y-105025000D01*
X138073730Y-105221317D01*
X138073734Y-105221326D01*
X138169865Y-105427482D01*
X138300342Y-105613820D01*
X138461179Y-105774657D01*
X138647517Y-105905134D01*
X138853673Y-106001265D01*
X138853682Y-106001269D01*
X139073389Y-106060139D01*
X139073400Y-106060141D01*
X139243237Y-106075000D01*
X139450000Y-106075000D01*
X139450000Y-105090686D01*
X139461955Y-105102641D01*
X139574852Y-105160165D01*
X139668519Y-105175000D01*
X139731481Y-105175000D01*
X139825148Y-105160165D01*
X139938045Y-105102641D01*
X139950000Y-105090686D01*
X139950000Y-106075000D01*
X140156763Y-106075000D01*
X140326599Y-106060141D01*
X140326610Y-106060139D01*
X140546317Y-106001269D01*
X140546326Y-106001265D01*
X140752482Y-105905134D01*
X140938820Y-105774657D01*
X141099657Y-105613820D01*
X141230134Y-105427482D01*
X141326265Y-105221326D01*
X141326269Y-105221317D01*
X141378872Y-105025000D01*
X140015686Y-105025000D01*
X140027641Y-105013045D01*
X140085165Y-104900148D01*
X140104986Y-104775000D01*
X140085165Y-104649852D01*
X140027641Y-104536955D01*
X140015686Y-104525000D01*
X141378872Y-104525000D01*
X141378872Y-104524999D01*
X141326269Y-104328682D01*
X141326265Y-104328673D01*
X141230134Y-104122517D01*
X141099657Y-103936179D01*
X140938820Y-103775342D01*
X140752482Y-103644865D01*
X140694133Y-103617657D01*
X140641694Y-103571484D01*
X140622542Y-103504291D01*
X140642758Y-103437410D01*
X140694129Y-103392895D01*
X140752734Y-103365568D01*
X140939139Y-103235047D01*
X141100047Y-103074139D01*
X141230568Y-102887734D01*
X141326739Y-102681496D01*
X141385635Y-102461692D01*
X141405468Y-102235000D01*
X141385635Y-102008308D01*
X141326739Y-101788504D01*
X141230568Y-101582266D01*
X141100047Y-101395861D01*
X141100045Y-101395858D01*
X140939141Y-101234954D01*
X140752734Y-101104432D01*
X140752728Y-101104429D01*
X140694725Y-101077382D01*
X140642285Y-101031210D01*
X140623133Y-100964017D01*
X140643348Y-100897135D01*
X140694725Y-100852618D01*
X140752734Y-100825568D01*
X140939139Y-100695047D01*
X141100047Y-100534139D01*
X141230568Y-100347734D01*
X141326739Y-100141496D01*
X141385635Y-99921692D01*
X141405468Y-99695000D01*
X141385635Y-99468308D01*
X141326739Y-99248504D01*
X141230568Y-99042266D01*
X141100047Y-98855861D01*
X141100045Y-98855858D01*
X140939141Y-98694954D01*
X140752734Y-98564432D01*
X140752728Y-98564429D01*
X140694725Y-98537382D01*
X140642285Y-98491210D01*
X140623133Y-98424017D01*
X140643348Y-98357135D01*
X140694725Y-98312618D01*
X140695319Y-98312341D01*
X140752734Y-98285568D01*
X140939139Y-98155047D01*
X141100047Y-97994139D01*
X141230568Y-97807734D01*
X141326739Y-97601496D01*
X141385635Y-97381692D01*
X141405468Y-97155000D01*
X141385635Y-96928308D01*
X141326739Y-96708504D01*
X141230568Y-96502266D01*
X141100047Y-96315861D01*
X141100045Y-96315858D01*
X140939141Y-96154954D01*
X140752734Y-96024432D01*
X140752728Y-96024429D01*
X140694725Y-95997382D01*
X140642285Y-95951210D01*
X140623133Y-95884017D01*
X140643348Y-95817135D01*
X140694725Y-95772618D01*
X140699323Y-95770474D01*
X140752734Y-95745568D01*
X140939139Y-95615047D01*
X141100047Y-95454139D01*
X141230568Y-95267734D01*
X141326739Y-95061496D01*
X141385635Y-94841692D01*
X141405468Y-94615000D01*
X141385635Y-94388308D01*
X141330692Y-94183256D01*
X141326741Y-94168511D01*
X141326738Y-94168502D01*
X141312235Y-94137401D01*
X141230568Y-93962266D01*
X141113210Y-93794660D01*
X141100045Y-93775858D01*
X140939141Y-93614954D01*
X140752734Y-93484432D01*
X140752728Y-93484429D01*
X140725038Y-93471517D01*
X140694724Y-93457381D01*
X140642285Y-93411210D01*
X140623133Y-93344017D01*
X140643348Y-93277135D01*
X140694725Y-93232618D01*
X140752734Y-93205568D01*
X140939139Y-93075047D01*
X141100047Y-92914139D01*
X141230568Y-92727734D01*
X141326739Y-92521496D01*
X141385635Y-92301692D01*
X141405468Y-92075000D01*
X141402511Y-92041207D01*
X141397557Y-91984573D01*
X141385635Y-91848308D01*
X141339998Y-91677989D01*
X141326741Y-91628511D01*
X141326738Y-91628502D01*
X141314787Y-91602873D01*
X141230568Y-91422266D01*
X141100047Y-91235861D01*
X141100045Y-91235858D01*
X140939141Y-91074954D01*
X140752734Y-90944432D01*
X140752728Y-90944429D01*
X140694725Y-90917382D01*
X140642285Y-90871210D01*
X140623133Y-90804017D01*
X140643348Y-90737135D01*
X140694725Y-90692618D01*
X140752734Y-90665568D01*
X140939139Y-90535047D01*
X141100047Y-90374139D01*
X141230568Y-90187734D01*
X141326739Y-89981496D01*
X141385635Y-89761692D01*
X141405468Y-89535000D01*
X141402511Y-89501207D01*
X141399531Y-89467135D01*
X141385635Y-89308308D01*
X141330692Y-89103256D01*
X141326741Y-89088511D01*
X141326738Y-89088502D01*
X141230568Y-88882266D01*
X141100047Y-88695861D01*
X141100045Y-88695858D01*
X140939143Y-88534956D01*
X140914536Y-88517726D01*
X140870912Y-88463149D01*
X140863719Y-88393650D01*
X140895241Y-88331296D01*
X140955471Y-88295882D01*
X140972404Y-88292861D01*
X141007483Y-88289091D01*
X141142331Y-88238796D01*
X141257546Y-88152546D01*
X141343796Y-88037331D01*
X141394091Y-87902483D01*
X141400500Y-87842873D01*
X141400499Y-87245000D01*
X142245001Y-87245000D01*
X142245001Y-87281654D01*
X142255319Y-87382652D01*
X142309546Y-87546300D01*
X142309551Y-87546311D01*
X142400052Y-87693034D01*
X142400055Y-87693038D01*
X142521961Y-87814944D01*
X142521965Y-87814947D01*
X142668688Y-87905448D01*
X142668699Y-87905453D01*
X142832347Y-87959680D01*
X142933351Y-87969999D01*
X143032500Y-87969998D01*
X143032500Y-87245000D01*
X142245001Y-87245000D01*
X141400499Y-87245000D01*
X141400499Y-86745000D01*
X142245000Y-86745000D01*
X143032500Y-86745000D01*
X143032500Y-86019999D01*
X142933360Y-86020000D01*
X142933344Y-86020001D01*
X142832347Y-86030319D01*
X142668699Y-86084546D01*
X142668688Y-86084551D01*
X142521965Y-86175052D01*
X142521961Y-86175055D01*
X142400055Y-86296961D01*
X142400052Y-86296965D01*
X142309551Y-86443688D01*
X142309546Y-86443699D01*
X142255319Y-86607347D01*
X142245000Y-86708345D01*
X142245000Y-86745000D01*
X141400499Y-86745000D01*
X141400499Y-86147128D01*
X141394091Y-86087517D01*
X141392813Y-86084091D01*
X141343797Y-85952671D01*
X141343793Y-85952664D01*
X141257547Y-85837455D01*
X141257544Y-85837452D01*
X141142335Y-85751206D01*
X141142328Y-85751202D01*
X141007482Y-85700908D01*
X141007483Y-85700908D01*
X140947883Y-85694501D01*
X140947881Y-85694500D01*
X140947873Y-85694500D01*
X140947864Y-85694500D01*
X138452129Y-85694500D01*
X138452123Y-85694501D01*
X138392516Y-85700908D01*
X138257671Y-85751202D01*
X138257664Y-85751206D01*
X138142455Y-85837452D01*
X138142452Y-85837455D01*
X138056206Y-85952664D01*
X138056202Y-85952671D01*
X138005908Y-86087517D01*
X137999848Y-86143888D01*
X137999501Y-86147123D01*
X137999500Y-86147135D01*
X137999500Y-87842870D01*
X137999501Y-87842876D01*
X138005908Y-87902483D01*
X138056202Y-88037328D01*
X138056206Y-88037335D01*
X138142452Y-88152544D01*
X138142455Y-88152547D01*
X138257664Y-88238793D01*
X138257671Y-88238797D01*
X138269187Y-88243092D01*
X138392517Y-88289091D01*
X138427596Y-88292862D01*
X138492144Y-88319599D01*
X138531993Y-88376991D01*
X138534488Y-88446816D01*
X138498836Y-88506905D01*
X138485464Y-88517725D01*
X138460858Y-88534954D01*
X138299954Y-88695858D01*
X138187387Y-88856623D01*
X138132811Y-88900248D01*
X138085812Y-88909500D01*
X136528880Y-88909500D01*
X136461841Y-88889815D01*
X136416086Y-88837011D01*
X136406142Y-88767853D01*
X136416496Y-88733100D01*
X136434575Y-88694330D01*
X136491207Y-88482977D01*
X136510277Y-88265000D01*
X136508360Y-88243092D01*
X136499165Y-88137988D01*
X136491207Y-88047023D01*
X136481494Y-88010774D01*
X136483157Y-87940925D01*
X136513586Y-87891002D01*
X137103387Y-87301202D01*
X137115642Y-87291386D01*
X137115459Y-87291164D01*
X137121466Y-87286192D01*
X137121477Y-87286186D01*
X137160153Y-87245000D01*
X137168827Y-87235764D01*
X137179271Y-87225318D01*
X137189720Y-87214871D01*
X137193979Y-87209378D01*
X137197752Y-87204961D01*
X137229662Y-87170982D01*
X137239313Y-87153424D01*
X137249996Y-87137161D01*
X137262273Y-87121336D01*
X137280785Y-87078553D01*
X137283338Y-87073341D01*
X137305797Y-87032492D01*
X137310780Y-87013080D01*
X137317081Y-86994680D01*
X137325037Y-86976296D01*
X137332329Y-86930252D01*
X137333506Y-86924571D01*
X137345100Y-86879419D01*
X137345100Y-86859383D01*
X137346627Y-86839982D01*
X137347171Y-86836547D01*
X137349760Y-86820204D01*
X137345375Y-86773815D01*
X137345100Y-86767977D01*
X137345100Y-83214251D01*
X137364785Y-83147212D01*
X137381414Y-83126575D01*
X137971709Y-82536281D01*
X138033027Y-82502799D01*
X138102718Y-82507783D01*
X138158652Y-82549654D01*
X138166688Y-82563069D01*
X138167161Y-82562797D01*
X138169865Y-82567481D01*
X138300342Y-82753820D01*
X138461179Y-82914657D01*
X138647517Y-83045134D01*
X138853673Y-83141265D01*
X138853682Y-83141269D01*
X139073389Y-83200139D01*
X139073400Y-83200141D01*
X139243237Y-83215000D01*
X139450000Y-83215000D01*
X139450000Y-82230686D01*
X139461955Y-82242641D01*
X139574852Y-82300165D01*
X139668519Y-82315000D01*
X139731481Y-82315000D01*
X139825148Y-82300165D01*
X139938045Y-82242641D01*
X139950000Y-82230686D01*
X139950000Y-83215000D01*
X140156763Y-83215000D01*
X140326599Y-83200141D01*
X140326610Y-83200139D01*
X140546317Y-83141269D01*
X140546326Y-83141265D01*
X140752482Y-83045134D01*
X140938820Y-82914657D01*
X141099657Y-82753820D01*
X141230134Y-82567482D01*
X141326265Y-82361326D01*
X141326269Y-82361317D01*
X141378872Y-82165000D01*
X140015686Y-82165000D01*
X140027641Y-82153045D01*
X140085165Y-82040148D01*
X140104986Y-81915000D01*
X140085165Y-81789852D01*
X140027641Y-81676955D01*
X140015686Y-81665000D01*
X140939784Y-81665000D01*
X140990219Y-81675720D01*
X141032497Y-81694544D01*
X141217654Y-81733900D01*
X141217655Y-81733900D01*
X141406944Y-81733900D01*
X141406946Y-81733900D01*
X141592103Y-81694544D01*
X141765030Y-81617551D01*
X141918171Y-81506288D01*
X141921088Y-81503047D01*
X141923900Y-81499926D01*
X141983387Y-81463279D01*
X142016048Y-81458900D01*
X142124495Y-81458900D01*
X142191534Y-81478585D01*
X142237289Y-81531389D01*
X142247853Y-81595503D01*
X142244500Y-81628315D01*
X142244500Y-82201669D01*
X142244501Y-82201687D01*
X142254825Y-82302752D01*
X142281914Y-82384500D01*
X142309092Y-82466516D01*
X142315073Y-82476213D01*
X142333514Y-82543604D01*
X142312593Y-82610268D01*
X142297217Y-82628991D01*
X142040626Y-82885582D01*
X141979306Y-82919066D01*
X141952947Y-82921900D01*
X141893754Y-82921900D01*
X141861297Y-82928798D01*
X141708597Y-82961255D01*
X141708592Y-82961257D01*
X141535670Y-83038248D01*
X141535665Y-83038251D01*
X141382529Y-83149511D01*
X141255866Y-83290185D01*
X141161221Y-83454115D01*
X141161218Y-83454122D01*
X141102727Y-83634140D01*
X141102726Y-83634144D01*
X141082940Y-83822400D01*
X141102726Y-84010656D01*
X141102727Y-84010659D01*
X141161218Y-84190677D01*
X141161221Y-84190684D01*
X141255867Y-84354616D01*
X141359510Y-84469723D01*
X141382529Y-84495288D01*
X141535665Y-84606548D01*
X141535670Y-84606551D01*
X141708592Y-84683542D01*
X141708597Y-84683544D01*
X141893754Y-84722900D01*
X141893755Y-84722900D01*
X142083044Y-84722900D01*
X142083046Y-84722900D01*
X142268203Y-84683544D01*
X142441130Y-84606551D01*
X142594271Y-84495288D01*
X142720933Y-84354616D01*
X142815579Y-84190684D01*
X142874074Y-84010656D01*
X142891721Y-83842744D01*
X142918304Y-83778134D01*
X142927351Y-83768038D01*
X143616288Y-83079101D01*
X143628542Y-83069286D01*
X143628359Y-83069064D01*
X143634366Y-83064092D01*
X143634377Y-83064086D01*
X143672573Y-83023411D01*
X143681727Y-83013664D01*
X143692171Y-83003218D01*
X143702620Y-82992771D01*
X143706879Y-82987278D01*
X143710652Y-82982861D01*
X143742562Y-82948882D01*
X143752213Y-82931324D01*
X143762896Y-82915061D01*
X143775173Y-82899236D01*
X143793678Y-82856472D01*
X143796243Y-82851232D01*
X143801422Y-82841812D01*
X143844988Y-82796008D01*
X143943350Y-82735340D01*
X144057319Y-82621371D01*
X144118642Y-82587886D01*
X144188334Y-82592870D01*
X144232681Y-82621371D01*
X144346650Y-82735340D01*
X144493484Y-82825908D01*
X144657247Y-82880174D01*
X144758323Y-82890500D01*
X145356676Y-82890499D01*
X145356684Y-82890498D01*
X145356687Y-82890498D01*
X145412030Y-82884844D01*
X145457753Y-82880174D01*
X145621516Y-82825908D01*
X145767040Y-82736147D01*
X145834432Y-82717707D01*
X145901096Y-82738629D01*
X145919818Y-82754005D01*
X146080858Y-82915045D01*
X146080861Y-82915047D01*
X146267266Y-83045568D01*
X146473504Y-83141739D01*
X146473509Y-83141740D01*
X146473511Y-83141741D01*
X146502513Y-83149512D01*
X146693308Y-83200635D01*
X146863216Y-83215500D01*
X147776784Y-83215500D01*
X147946692Y-83200635D01*
X148166496Y-83141739D01*
X148372734Y-83045568D01*
X148404378Y-83023410D01*
X148470583Y-83001084D01*
X148538350Y-83018094D01*
X148586163Y-83069042D01*
X148599500Y-83124986D01*
X148599500Y-85785013D01*
X148579815Y-85852052D01*
X148527011Y-85897807D01*
X148457853Y-85907751D01*
X148404379Y-85886589D01*
X148372738Y-85864435D01*
X148372732Y-85864431D01*
X148166497Y-85768261D01*
X148166488Y-85768258D01*
X147946697Y-85709366D01*
X147946687Y-85709364D01*
X147776784Y-85694500D01*
X146863216Y-85694500D01*
X146693312Y-85709364D01*
X146693302Y-85709366D01*
X146473511Y-85768258D01*
X146473502Y-85768261D01*
X146267267Y-85864431D01*
X146267265Y-85864432D01*
X146080862Y-85994951D01*
X145919818Y-86155995D01*
X145858495Y-86189479D01*
X145788803Y-86184495D01*
X145767040Y-86173852D01*
X145621518Y-86084093D01*
X145621513Y-86084091D01*
X145620069Y-86083612D01*
X145457753Y-86029826D01*
X145457751Y-86029825D01*
X145356678Y-86019500D01*
X144658330Y-86019500D01*
X144658312Y-86019501D01*
X144557247Y-86029825D01*
X144393484Y-86084092D01*
X144393481Y-86084093D01*
X144246648Y-86174661D01*
X144232325Y-86188984D01*
X144171001Y-86222468D01*
X144101309Y-86217482D01*
X144056965Y-86188982D01*
X144043038Y-86175055D01*
X144043034Y-86175052D01*
X143896311Y-86084551D01*
X143896300Y-86084546D01*
X143732652Y-86030319D01*
X143631654Y-86020000D01*
X143532500Y-86020000D01*
X143532500Y-87969999D01*
X143631640Y-87969999D01*
X143631654Y-87969998D01*
X143732652Y-87959680D01*
X143896300Y-87905453D01*
X143896311Y-87905448D01*
X144043035Y-87814947D01*
X144056960Y-87801021D01*
X144118282Y-87767533D01*
X144187973Y-87772514D01*
X144232327Y-87801017D01*
X144246650Y-87815340D01*
X144393484Y-87905908D01*
X144557247Y-87960174D01*
X144658323Y-87970500D01*
X145356676Y-87970499D01*
X145356684Y-87970498D01*
X145356687Y-87970498D01*
X145412030Y-87964844D01*
X145457753Y-87960174D01*
X145621516Y-87905908D01*
X145767040Y-87816147D01*
X145834432Y-87797707D01*
X145901096Y-87818629D01*
X145919818Y-87834005D01*
X146080858Y-87995045D01*
X146080861Y-87995047D01*
X146267266Y-88125568D01*
X146325275Y-88152618D01*
X146377714Y-88198791D01*
X146396866Y-88265984D01*
X146376650Y-88332865D01*
X146325275Y-88377382D01*
X146267267Y-88404431D01*
X146267265Y-88404432D01*
X146080858Y-88534954D01*
X145919954Y-88695858D01*
X145789432Y-88882265D01*
X145789431Y-88882267D01*
X145693261Y-89088502D01*
X145693258Y-89088511D01*
X145634366Y-89308302D01*
X145634364Y-89308313D01*
X145614532Y-89534998D01*
X145614532Y-89535001D01*
X145634364Y-89761686D01*
X145634366Y-89761697D01*
X145693258Y-89981488D01*
X145693261Y-89981497D01*
X145789431Y-90187732D01*
X145789432Y-90187734D01*
X145919954Y-90374141D01*
X146080858Y-90535045D01*
X146080861Y-90535047D01*
X146267266Y-90665568D01*
X146325275Y-90692618D01*
X146377714Y-90738791D01*
X146396866Y-90805984D01*
X146376650Y-90872865D01*
X146325275Y-90917382D01*
X146267267Y-90944431D01*
X146267265Y-90944432D01*
X146080858Y-91074954D01*
X145919954Y-91235858D01*
X145789432Y-91422265D01*
X145789431Y-91422267D01*
X145693261Y-91628502D01*
X145693258Y-91628511D01*
X145634366Y-91848302D01*
X145634364Y-91848313D01*
X145614532Y-92074998D01*
X145614532Y-92075001D01*
X145634364Y-92301686D01*
X145634366Y-92301697D01*
X145693258Y-92521488D01*
X145693261Y-92521497D01*
X145789431Y-92727732D01*
X145789432Y-92727734D01*
X145919954Y-92914141D01*
X146080858Y-93075045D01*
X146080861Y-93075047D01*
X146267266Y-93205568D01*
X146325865Y-93232893D01*
X146378305Y-93279065D01*
X146397457Y-93346258D01*
X146377242Y-93413139D01*
X146325867Y-93457657D01*
X146267515Y-93484867D01*
X146081179Y-93615342D01*
X145920342Y-93776179D01*
X145789865Y-93962517D01*
X145693734Y-94168673D01*
X145693730Y-94168682D01*
X145641127Y-94364999D01*
X145641128Y-94365000D01*
X147004314Y-94365000D01*
X146992359Y-94376955D01*
X146934835Y-94489852D01*
X146915014Y-94615000D01*
X146934835Y-94740148D01*
X146992359Y-94853045D01*
X147004314Y-94865000D01*
X145641128Y-94865000D01*
X145693730Y-95061317D01*
X145693734Y-95061326D01*
X145789865Y-95267482D01*
X145920342Y-95453820D01*
X146081179Y-95614657D01*
X146267517Y-95745134D01*
X146326457Y-95772618D01*
X146378896Y-95818790D01*
X146398048Y-95885984D01*
X146377832Y-95952865D01*
X146326457Y-95997382D01*
X146267517Y-96024865D01*
X146081179Y-96155342D01*
X145920342Y-96316179D01*
X145789865Y-96502517D01*
X145693734Y-96708673D01*
X145693730Y-96708682D01*
X145641127Y-96904999D01*
X145641128Y-96905000D01*
X147004314Y-96905000D01*
X146992359Y-96916955D01*
X146934835Y-97029852D01*
X146915014Y-97155000D01*
X146934835Y-97280148D01*
X146992359Y-97393045D01*
X147004314Y-97405000D01*
X145641128Y-97405000D01*
X145693730Y-97601317D01*
X145693734Y-97601326D01*
X145789865Y-97807482D01*
X145920342Y-97993820D01*
X146081179Y-98154657D01*
X146267518Y-98285134D01*
X146267520Y-98285135D01*
X146325865Y-98312342D01*
X146378305Y-98358514D01*
X146397457Y-98425707D01*
X146377242Y-98492589D01*
X146325867Y-98537105D01*
X146267268Y-98564431D01*
X146267264Y-98564433D01*
X146080858Y-98694954D01*
X145919954Y-98855858D01*
X145789432Y-99042265D01*
X145789431Y-99042267D01*
X145693261Y-99248502D01*
X145693258Y-99248511D01*
X145634366Y-99468302D01*
X145634364Y-99468313D01*
X145614532Y-99694998D01*
X145614532Y-99695001D01*
X145634364Y-99921686D01*
X145634366Y-99921697D01*
X145693258Y-100141488D01*
X145693261Y-100141497D01*
X145789431Y-100347732D01*
X145789432Y-100347734D01*
X145919954Y-100534141D01*
X146080858Y-100695045D01*
X146080861Y-100695047D01*
X146267266Y-100825568D01*
X146325275Y-100852618D01*
X146377714Y-100898791D01*
X146396866Y-100965984D01*
X146376650Y-101032865D01*
X146325275Y-101077382D01*
X146267267Y-101104431D01*
X146267265Y-101104432D01*
X146080858Y-101234954D01*
X145919954Y-101395858D01*
X145789432Y-101582265D01*
X145789431Y-101582267D01*
X145693261Y-101788502D01*
X145693258Y-101788511D01*
X145634366Y-102008302D01*
X145634364Y-102008313D01*
X145614532Y-102234998D01*
X145614532Y-102235001D01*
X145634364Y-102461686D01*
X145634366Y-102461697D01*
X145693258Y-102681488D01*
X145693261Y-102681497D01*
X145789431Y-102887732D01*
X145789432Y-102887734D01*
X145919954Y-103074141D01*
X146080858Y-103235045D01*
X146080861Y-103235047D01*
X146267266Y-103365568D01*
X146325275Y-103392618D01*
X146377714Y-103438791D01*
X146396866Y-103505984D01*
X146376650Y-103572865D01*
X146325275Y-103617382D01*
X146267267Y-103644431D01*
X146267265Y-103644432D01*
X146080858Y-103774954D01*
X145919954Y-103935858D01*
X145789432Y-104122265D01*
X145789431Y-104122267D01*
X145693261Y-104328502D01*
X145693258Y-104328511D01*
X145634366Y-104548302D01*
X145634364Y-104548313D01*
X145614532Y-104774998D01*
X145614532Y-104775001D01*
X145634364Y-105001686D01*
X145634366Y-105001697D01*
X145693258Y-105221488D01*
X145693261Y-105221497D01*
X145789431Y-105427732D01*
X145789432Y-105427734D01*
X145919954Y-105614141D01*
X146080858Y-105775045D01*
X146080861Y-105775047D01*
X146267266Y-105905568D01*
X146473504Y-106001739D01*
X146693308Y-106060635D01*
X146863216Y-106075500D01*
X147776784Y-106075500D01*
X147946692Y-106060635D01*
X148166496Y-106001739D01*
X148372734Y-105905568D01*
X148559139Y-105775047D01*
X148720047Y-105614139D01*
X148850568Y-105427734D01*
X148946739Y-105221496D01*
X149005635Y-105001692D01*
X149025468Y-104775000D01*
X149005635Y-104548308D01*
X148946739Y-104328504D01*
X148850568Y-104122266D01*
X148720047Y-103935861D01*
X148720045Y-103935858D01*
X148559141Y-103774954D01*
X148372734Y-103644432D01*
X148372728Y-103644429D01*
X148314725Y-103617382D01*
X148262285Y-103571210D01*
X148243133Y-103504017D01*
X148263348Y-103437135D01*
X148314725Y-103392618D01*
X148372734Y-103365568D01*
X148559139Y-103235047D01*
X148720047Y-103074139D01*
X148850568Y-102887734D01*
X148946739Y-102681496D01*
X149005635Y-102461692D01*
X149025468Y-102235000D01*
X149005635Y-102008308D01*
X148946739Y-101788504D01*
X148850568Y-101582266D01*
X148720047Y-101395861D01*
X148720045Y-101395858D01*
X148559141Y-101234954D01*
X148372734Y-101104432D01*
X148372728Y-101104429D01*
X148314725Y-101077382D01*
X148262285Y-101031210D01*
X148243133Y-100964017D01*
X148263348Y-100897135D01*
X148314725Y-100852618D01*
X148372734Y-100825568D01*
X148559139Y-100695047D01*
X148720047Y-100534139D01*
X148850568Y-100347734D01*
X148946739Y-100141496D01*
X149005635Y-99921692D01*
X149025468Y-99695000D01*
X149005635Y-99468308D01*
X148946739Y-99248504D01*
X148850568Y-99042266D01*
X148720047Y-98855861D01*
X148720045Y-98855858D01*
X148559141Y-98694954D01*
X148372734Y-98564432D01*
X148372732Y-98564431D01*
X148314725Y-98537382D01*
X148314132Y-98537105D01*
X148261694Y-98490934D01*
X148242542Y-98423740D01*
X148262758Y-98356859D01*
X148314134Y-98312341D01*
X148372484Y-98285132D01*
X148558820Y-98154657D01*
X148719657Y-97993820D01*
X148850134Y-97807482D01*
X148946265Y-97601326D01*
X148946269Y-97601317D01*
X148998872Y-97405000D01*
X147635686Y-97405000D01*
X147647641Y-97393045D01*
X147705165Y-97280148D01*
X147724986Y-97155000D01*
X147705165Y-97029852D01*
X147647641Y-96916955D01*
X147635686Y-96905000D01*
X148998872Y-96905000D01*
X148998872Y-96904999D01*
X148946269Y-96708682D01*
X148946265Y-96708673D01*
X148850134Y-96502517D01*
X148719657Y-96316179D01*
X148558820Y-96155342D01*
X148372481Y-96024865D01*
X148372479Y-96024864D01*
X148313543Y-95997382D01*
X148261103Y-95951210D01*
X148241951Y-95884017D01*
X148262166Y-95817136D01*
X148313543Y-95772618D01*
X148372479Y-95745135D01*
X148372481Y-95745134D01*
X148558820Y-95614657D01*
X148719657Y-95453820D01*
X148850134Y-95267482D01*
X148946265Y-95061326D01*
X148946269Y-95061317D01*
X148998872Y-94865000D01*
X147635686Y-94865000D01*
X147647641Y-94853045D01*
X147705165Y-94740148D01*
X147724986Y-94615000D01*
X147705165Y-94489852D01*
X147647641Y-94376955D01*
X147635686Y-94365000D01*
X148998872Y-94365000D01*
X148998872Y-94364999D01*
X148946269Y-94168682D01*
X148946265Y-94168673D01*
X148850134Y-93962517D01*
X148719657Y-93776179D01*
X148558820Y-93615342D01*
X148372482Y-93484865D01*
X148314133Y-93457657D01*
X148261694Y-93411484D01*
X148242542Y-93344291D01*
X148262758Y-93277410D01*
X148314129Y-93232895D01*
X148372734Y-93205568D01*
X148559139Y-93075047D01*
X148720047Y-92914139D01*
X148850568Y-92727734D01*
X148946739Y-92521496D01*
X149005635Y-92301692D01*
X149025468Y-92075000D01*
X149022511Y-92041207D01*
X149017557Y-91984573D01*
X149005635Y-91848308D01*
X148959998Y-91677989D01*
X148946741Y-91628511D01*
X148946738Y-91628502D01*
X148934787Y-91602873D01*
X148850568Y-91422266D01*
X148720047Y-91235861D01*
X148720045Y-91235858D01*
X148559141Y-91074954D01*
X148372734Y-90944432D01*
X148372728Y-90944429D01*
X148314725Y-90917382D01*
X148262285Y-90871210D01*
X148243133Y-90804017D01*
X148263348Y-90737135D01*
X148314725Y-90692618D01*
X148372734Y-90665568D01*
X148559139Y-90535047D01*
X148720047Y-90374139D01*
X148850568Y-90187734D01*
X148946739Y-89981496D01*
X149005635Y-89761692D01*
X149025468Y-89535000D01*
X149022511Y-89501207D01*
X149019531Y-89467135D01*
X149005635Y-89308308D01*
X148983303Y-89224965D01*
X148984966Y-89155116D01*
X149015395Y-89105193D01*
X149608787Y-88511802D01*
X149621042Y-88501986D01*
X149620859Y-88501764D01*
X149626867Y-88496792D01*
X149626877Y-88496786D01*
X149645108Y-88477370D01*
X149705348Y-88441977D01*
X149775162Y-88444769D01*
X149832384Y-88484863D01*
X149858845Y-88549528D01*
X149859500Y-88562255D01*
X149859500Y-121154949D01*
X149859201Y-121161031D01*
X149856027Y-121193256D01*
X149843580Y-121303720D01*
X149839021Y-121325830D01*
X149822881Y-121379039D01*
X149795210Y-121458117D01*
X149787528Y-121475614D01*
X149759046Y-121528902D01*
X149756862Y-121532664D01*
X149713133Y-121602257D01*
X149708559Y-121608609D01*
X149666167Y-121660264D01*
X149662078Y-121664776D01*
X149604776Y-121722078D01*
X149600264Y-121726167D01*
X149548609Y-121768559D01*
X149542257Y-121773133D01*
X149472664Y-121816862D01*
X149468902Y-121819046D01*
X149415614Y-121847528D01*
X149398117Y-121855210D01*
X149319039Y-121882881D01*
X149265830Y-121899021D01*
X149243720Y-121903580D01*
X149133256Y-121916027D01*
X149101031Y-121919201D01*
X149094949Y-121919500D01*
X117605051Y-121919500D01*
X117598970Y-121919201D01*
X117566743Y-121916027D01*
X117456278Y-121903580D01*
X117434167Y-121899021D01*
X117380960Y-121882881D01*
X117301881Y-121855210D01*
X117284384Y-121847528D01*
X117264120Y-121836697D01*
X117231085Y-121819039D01*
X117227340Y-121816865D01*
X117208846Y-121805245D01*
X117157741Y-121773133D01*
X117151389Y-121768559D01*
X117099734Y-121726167D01*
X117095232Y-121722087D01*
X117037910Y-121664765D01*
X117033831Y-121660264D01*
X116991439Y-121608609D01*
X116986865Y-121602257D01*
X116981712Y-121594057D01*
X116943123Y-121532641D01*
X116940970Y-121528933D01*
X116912467Y-121475607D01*
X116904794Y-121458132D01*
X116877118Y-121379039D01*
X116860975Y-121325823D01*
X116856419Y-121303728D01*
X116843972Y-121193256D01*
X116840799Y-121161031D01*
X116840500Y-121154952D01*
X116840500Y-118745000D01*
X118659341Y-118745000D01*
X118679936Y-118980403D01*
X118679938Y-118980413D01*
X118741094Y-119208655D01*
X118741096Y-119208659D01*
X118741097Y-119208663D01*
X118791031Y-119315746D01*
X118840964Y-119422828D01*
X118840965Y-119422830D01*
X118976505Y-119616402D01*
X119143597Y-119783494D01*
X119337169Y-119919034D01*
X119337171Y-119919035D01*
X119551337Y-120018903D01*
X119779592Y-120080063D01*
X119956034Y-120095500D01*
X120073966Y-120095500D01*
X120250408Y-120080063D01*
X120478663Y-120018903D01*
X120692829Y-119919035D01*
X120886401Y-119783495D01*
X121053495Y-119616401D01*
X121189035Y-119422830D01*
X121288903Y-119208663D01*
X121350063Y-118980408D01*
X121370659Y-118745000D01*
X145329341Y-118745000D01*
X145349936Y-118980403D01*
X145349938Y-118980413D01*
X145411094Y-119208655D01*
X145411096Y-119208659D01*
X145411097Y-119208663D01*
X145461031Y-119315746D01*
X145510964Y-119422828D01*
X145510965Y-119422830D01*
X145646505Y-119616402D01*
X145813597Y-119783494D01*
X146007169Y-119919034D01*
X146007171Y-119919035D01*
X146221337Y-120018903D01*
X146449592Y-120080063D01*
X146626034Y-120095500D01*
X146743966Y-120095500D01*
X146920408Y-120080063D01*
X147148663Y-120018903D01*
X147362829Y-119919035D01*
X147556401Y-119783495D01*
X147723495Y-119616401D01*
X147859035Y-119422830D01*
X147958903Y-119208663D01*
X148020063Y-118980408D01*
X148040659Y-118745000D01*
X148020063Y-118509592D01*
X147958903Y-118281337D01*
X147859035Y-118067171D01*
X147859034Y-118067169D01*
X147723494Y-117873597D01*
X147556402Y-117706505D01*
X147362830Y-117570965D01*
X147362828Y-117570964D01*
X147255746Y-117521031D01*
X147148663Y-117471097D01*
X147148659Y-117471096D01*
X147148655Y-117471094D01*
X146920413Y-117409938D01*
X146920403Y-117409936D01*
X146743966Y-117394500D01*
X146626034Y-117394500D01*
X146449596Y-117409936D01*
X146449586Y-117409938D01*
X146221344Y-117471094D01*
X146221335Y-117471098D01*
X146007171Y-117570964D01*
X146007169Y-117570965D01*
X145813597Y-117706505D01*
X145646506Y-117873597D01*
X145646501Y-117873604D01*
X145510967Y-118067165D01*
X145510965Y-118067169D01*
X145411098Y-118281335D01*
X145411094Y-118281344D01*
X145349938Y-118509586D01*
X145349936Y-118509596D01*
X145329341Y-118744999D01*
X145329341Y-118745000D01*
X121370659Y-118745000D01*
X121350063Y-118509592D01*
X121288903Y-118281337D01*
X121189035Y-118067171D01*
X121189034Y-118067169D01*
X121053494Y-117873597D01*
X120886402Y-117706505D01*
X120692830Y-117570965D01*
X120692828Y-117570964D01*
X120585746Y-117521031D01*
X120478663Y-117471097D01*
X120478659Y-117471096D01*
X120478655Y-117471094D01*
X120250413Y-117409938D01*
X120250403Y-117409936D01*
X120073966Y-117394500D01*
X119956034Y-117394500D01*
X119779596Y-117409936D01*
X119779586Y-117409938D01*
X119551344Y-117471094D01*
X119551335Y-117471098D01*
X119337171Y-117570964D01*
X119337169Y-117570965D01*
X119143597Y-117706505D01*
X118976506Y-117873597D01*
X118976501Y-117873604D01*
X118840967Y-118067165D01*
X118840965Y-118067169D01*
X118741098Y-118281335D01*
X118741094Y-118281344D01*
X118679938Y-118509586D01*
X118679936Y-118509596D01*
X118659341Y-118744999D01*
X118659341Y-118745000D01*
X116840500Y-118745000D01*
X116840500Y-47625000D01*
X118659341Y-47625000D01*
X118679936Y-47860403D01*
X118679938Y-47860413D01*
X118741094Y-48088655D01*
X118741096Y-48088659D01*
X118741097Y-48088663D01*
X118762238Y-48134000D01*
X118840964Y-48302828D01*
X118840965Y-48302830D01*
X118976505Y-48496402D01*
X119143597Y-48663494D01*
X119337169Y-48799034D01*
X119337171Y-48799035D01*
X119551337Y-48898903D01*
X119779592Y-48960063D01*
X119956034Y-48975500D01*
X120073966Y-48975500D01*
X120250408Y-48960063D01*
X120478663Y-48898903D01*
X120692829Y-48799035D01*
X120886401Y-48663495D01*
X121053495Y-48496401D01*
X121189035Y-48302830D01*
X121288903Y-48088663D01*
X121350063Y-47860408D01*
X121370659Y-47625000D01*
X121350063Y-47389592D01*
X121288903Y-47161337D01*
X121189035Y-46947171D01*
X121189034Y-46947169D01*
X121053494Y-46753597D01*
X120886402Y-46586505D01*
X120692830Y-46450965D01*
X120692828Y-46450964D01*
X120585746Y-46401031D01*
X120478663Y-46351097D01*
X120478659Y-46351096D01*
X120478655Y-46351094D01*
X120250413Y-46289938D01*
X120250403Y-46289936D01*
X120073966Y-46274500D01*
X119956034Y-46274500D01*
X119779596Y-46289936D01*
X119779586Y-46289938D01*
X119551344Y-46351094D01*
X119551335Y-46351098D01*
X119337171Y-46450964D01*
X119337169Y-46450965D01*
X119143597Y-46586505D01*
X118976506Y-46753597D01*
X118976501Y-46753604D01*
X118840967Y-46947165D01*
X118840965Y-46947169D01*
X118741098Y-47161335D01*
X118741094Y-47161344D01*
X118679938Y-47389586D01*
X118679936Y-47389596D01*
X118659341Y-47624999D01*
X118659341Y-47625000D01*
X116840500Y-47625000D01*
X116840500Y-44961046D01*
X116840799Y-44954965D01*
X116841035Y-44952563D01*
X116843975Y-44922710D01*
X116856419Y-44812269D01*
X116860978Y-44790167D01*
X116877121Y-44736950D01*
X116904797Y-44657857D01*
X116912462Y-44640401D01*
X116940983Y-44587041D01*
X116943107Y-44583382D01*
X116986873Y-44513728D01*
X116991426Y-44507406D01*
X117033849Y-44455713D01*
X117037891Y-44451254D01*
X117095254Y-44393891D01*
X117099713Y-44389849D01*
X117151406Y-44347426D01*
X117157728Y-44342873D01*
X117227382Y-44299107D01*
X117231041Y-44296983D01*
X117284401Y-44268462D01*
X117301857Y-44260797D01*
X117380956Y-44233119D01*
X117434172Y-44216976D01*
X117456269Y-44212419D01*
X117566710Y-44199975D01*
X117596563Y-44197035D01*
X117598965Y-44196799D01*
X117605046Y-44196500D01*
X149094953Y-44196500D01*
X149101034Y-44196799D01*
G37*
G04 #@! TD.AperFunction*
G04 #@! TA.AperFunction,Conductor*
G36*
X121538730Y-91450185D02*
G01*
X121559372Y-91466819D01*
X121565629Y-91473076D01*
X121565633Y-91473079D01*
X121565635Y-91473081D01*
X121707102Y-91556744D01*
X121748724Y-91568836D01*
X121864926Y-91602597D01*
X121864929Y-91602597D01*
X121864931Y-91602598D01*
X121877222Y-91603565D01*
X121901804Y-91605500D01*
X121901806Y-91605500D01*
X123068000Y-91605500D01*
X123135039Y-91625185D01*
X123180794Y-91677989D01*
X123192000Y-91729500D01*
X123192000Y-91970696D01*
X123194901Y-92007567D01*
X123194902Y-92007573D01*
X123240754Y-92165393D01*
X123240755Y-92165396D01*
X123324417Y-92306862D01*
X123324423Y-92306870D01*
X123440629Y-92423076D01*
X123440633Y-92423079D01*
X123440635Y-92423081D01*
X123582102Y-92506744D01*
X123594769Y-92510424D01*
X123739926Y-92552597D01*
X123739929Y-92552597D01*
X123739931Y-92552598D01*
X123752222Y-92553565D01*
X123776804Y-92555500D01*
X123776806Y-92555500D01*
X125083196Y-92555500D01*
X125101631Y-92554049D01*
X125120069Y-92552598D01*
X125120071Y-92552597D01*
X125120073Y-92552597D01*
X125265233Y-92510424D01*
X125299828Y-92505500D01*
X127482069Y-92505500D01*
X127549108Y-92525185D01*
X127569747Y-92541815D01*
X127582378Y-92554445D01*
X127615865Y-92615767D01*
X127618700Y-92642130D01*
X127618700Y-95630494D01*
X127617391Y-95648463D01*
X127613910Y-95672225D01*
X127618464Y-95724264D01*
X127618700Y-95729670D01*
X127618700Y-95737909D01*
X127622506Y-95770475D01*
X127623547Y-95782374D01*
X127629200Y-95846991D01*
X127630661Y-95854067D01*
X127630603Y-95854078D01*
X127632234Y-95861437D01*
X127632292Y-95861424D01*
X127633957Y-95868450D01*
X127660225Y-95940624D01*
X127684385Y-96013531D01*
X127687436Y-96020074D01*
X127687382Y-96020098D01*
X127690670Y-96026888D01*
X127690721Y-96026863D01*
X127693961Y-96033313D01*
X127693962Y-96033314D01*
X127693963Y-96033317D01*
X127696650Y-96037402D01*
X127736165Y-96097483D01*
X127776487Y-96162855D01*
X127780966Y-96168519D01*
X127780919Y-96168556D01*
X127785682Y-96174402D01*
X127785728Y-96174364D01*
X127790373Y-96179900D01*
X127846217Y-96232585D01*
X128934270Y-97320638D01*
X128946051Y-97334270D01*
X128960388Y-97353528D01*
X129000409Y-97387111D01*
X129004397Y-97390766D01*
X129010216Y-97396585D01*
X129010220Y-97396588D01*
X129010223Y-97396591D01*
X129035959Y-97416940D01*
X129094786Y-97466302D01*
X129094787Y-97466302D01*
X129094789Y-97466304D01*
X129100818Y-97470270D01*
X129100785Y-97470319D01*
X129107147Y-97474372D01*
X129107179Y-97474321D01*
X129113319Y-97478108D01*
X129113323Y-97478111D01*
X129123038Y-97482641D01*
X129182941Y-97510575D01*
X129216897Y-97527628D01*
X129251567Y-97545040D01*
X129251569Y-97545040D01*
X129258357Y-97547511D01*
X129258336Y-97547567D01*
X129265457Y-97550043D01*
X129265476Y-97549986D01*
X129272322Y-97552254D01*
X129272327Y-97552257D01*
X129272332Y-97552258D01*
X129272335Y-97552259D01*
X129347565Y-97567792D01*
X129422279Y-97585500D01*
X129422282Y-97585500D01*
X129422286Y-97585501D01*
X129429453Y-97586339D01*
X129429446Y-97586398D01*
X129436944Y-97587164D01*
X129436950Y-97587105D01*
X129444139Y-97587734D01*
X129444143Y-97587733D01*
X129444144Y-97587734D01*
X129520917Y-97585500D01*
X131180172Y-97585500D01*
X131214767Y-97590424D01*
X131359926Y-97632597D01*
X131359929Y-97632597D01*
X131359931Y-97632598D01*
X131372222Y-97633565D01*
X131396804Y-97635500D01*
X131396806Y-97635500D01*
X131737770Y-97635500D01*
X131804809Y-97655185D01*
X131825451Y-97671819D01*
X133886881Y-99733248D01*
X133920366Y-99794571D01*
X133923200Y-99820929D01*
X133923200Y-110172294D01*
X133921891Y-110190263D01*
X133918410Y-110214025D01*
X133922964Y-110266064D01*
X133923200Y-110271470D01*
X133923200Y-110279709D01*
X133927006Y-110312274D01*
X133933700Y-110388791D01*
X133935161Y-110395867D01*
X133935103Y-110395878D01*
X133936734Y-110403237D01*
X133936792Y-110403224D01*
X133938457Y-110410250D01*
X133964725Y-110482424D01*
X133988885Y-110555331D01*
X133991936Y-110561874D01*
X133991882Y-110561898D01*
X133995170Y-110568688D01*
X133995221Y-110568663D01*
X133998461Y-110575113D01*
X133998462Y-110575114D01*
X133998463Y-110575117D01*
X134030668Y-110624083D01*
X134040665Y-110639283D01*
X134080987Y-110704655D01*
X134085466Y-110710319D01*
X134085419Y-110710356D01*
X134090182Y-110716202D01*
X134090228Y-110716164D01*
X134094873Y-110721700D01*
X134150717Y-110774385D01*
X134588181Y-111211849D01*
X134621666Y-111273172D01*
X134624500Y-111299529D01*
X134624500Y-111411668D01*
X134624501Y-111411687D01*
X134634825Y-111512752D01*
X134689092Y-111676515D01*
X134689093Y-111676518D01*
X134723395Y-111732129D01*
X134779660Y-111823350D01*
X134901650Y-111945340D01*
X135048484Y-112035908D01*
X135212247Y-112090174D01*
X135313323Y-112100500D01*
X135911676Y-112100499D01*
X135911684Y-112100498D01*
X135911687Y-112100498D01*
X135967030Y-112094844D01*
X136012753Y-112090174D01*
X136176516Y-112035908D01*
X136323350Y-111945340D01*
X136437319Y-111831371D01*
X136498642Y-111797886D01*
X136568334Y-111802870D01*
X136612681Y-111831371D01*
X136726650Y-111945340D01*
X136753096Y-111961652D01*
X136799821Y-112013600D01*
X136812000Y-112067191D01*
X136812000Y-112722808D01*
X136792315Y-112789847D01*
X136753099Y-112828345D01*
X136726652Y-112844657D01*
X136726649Y-112844660D01*
X136612681Y-112958629D01*
X136551358Y-112992114D01*
X136481666Y-112987130D01*
X136437319Y-112958629D01*
X136323351Y-112844661D01*
X136323350Y-112844660D01*
X136176516Y-112754092D01*
X136012753Y-112699826D01*
X136012751Y-112699825D01*
X135911678Y-112689500D01*
X135313330Y-112689500D01*
X135313312Y-112689501D01*
X135212247Y-112699825D01*
X135048484Y-112754092D01*
X135048481Y-112754093D01*
X134901648Y-112844661D01*
X134779660Y-112966649D01*
X134779659Y-112966651D01*
X134771058Y-112980596D01*
X134719110Y-113027321D01*
X134665519Y-113039500D01*
X134627153Y-113039500D01*
X134560114Y-113019815D01*
X134539476Y-113003185D01*
X134438321Y-112902030D01*
X134438320Y-112902029D01*
X134437065Y-112900774D01*
X134437046Y-112900756D01*
X119063919Y-97527628D01*
X119030434Y-97466305D01*
X119027600Y-97439947D01*
X119027600Y-91878395D01*
X119047285Y-91811356D01*
X119100089Y-91765601D01*
X119169247Y-91755657D01*
X119222721Y-91776820D01*
X119387361Y-91892102D01*
X119585670Y-91984575D01*
X119797023Y-92041207D01*
X119979926Y-92057208D01*
X120014998Y-92060277D01*
X120015000Y-92060277D01*
X120015002Y-92060277D01*
X120043254Y-92057805D01*
X120232977Y-92041207D01*
X120444330Y-91984575D01*
X120642639Y-91892102D01*
X120821877Y-91766598D01*
X120976598Y-91611877D01*
X121066575Y-91483375D01*
X121121151Y-91439752D01*
X121168149Y-91430500D01*
X121471691Y-91430500D01*
X121538730Y-91450185D01*
G37*
G04 #@! TD.AperFunction*
G04 #@! TA.AperFunction,Conductor*
G36*
X147570000Y-96839314D02*
G01*
X147558045Y-96827359D01*
X147445148Y-96769835D01*
X147351481Y-96755000D01*
X147288519Y-96755000D01*
X147194852Y-96769835D01*
X147081955Y-96827359D01*
X147070000Y-96839314D01*
X147070000Y-94930686D01*
X147081955Y-94942641D01*
X147194852Y-95000165D01*
X147288519Y-95015000D01*
X147351481Y-95015000D01*
X147445148Y-95000165D01*
X147558045Y-94942641D01*
X147570000Y-94930686D01*
X147570000Y-96839314D01*
G37*
G04 #@! TD.AperFunction*
G04 #@! TA.AperFunction,Conductor*
G36*
X131360539Y-85494685D02*
G01*
X131406294Y-85547489D01*
X131417500Y-85599000D01*
X131417500Y-86699999D01*
X131434130Y-86716629D01*
X131467615Y-86777952D01*
X131469186Y-86787110D01*
X131469335Y-86787690D01*
X131486490Y-86831019D01*
X131488382Y-86836547D01*
X131500837Y-86879416D01*
X131501382Y-86881290D01*
X131502167Y-86882618D01*
X131511580Y-86898534D01*
X131520138Y-86916003D01*
X131527514Y-86934632D01*
X131554898Y-86972323D01*
X131558106Y-86977207D01*
X131581827Y-87017316D01*
X131581833Y-87017324D01*
X131595990Y-87031480D01*
X131608628Y-87046276D01*
X131620405Y-87062486D01*
X131620406Y-87062487D01*
X131656309Y-87092188D01*
X131660620Y-87096110D01*
X132895806Y-88331296D01*
X134120500Y-89555990D01*
X134153985Y-89617313D01*
X134149001Y-89687005D01*
X134132086Y-89717982D01*
X134061204Y-89812668D01*
X134061202Y-89812671D01*
X134010908Y-89947517D01*
X134004501Y-90007116D01*
X134004500Y-90007135D01*
X134004500Y-91602870D01*
X134004501Y-91602876D01*
X134010908Y-91662483D01*
X134061202Y-91797328D01*
X134061206Y-91797335D01*
X134147452Y-91912544D01*
X134147455Y-91912547D01*
X134262664Y-91998793D01*
X134262671Y-91998797D01*
X134397517Y-92049091D01*
X134397516Y-92049091D01*
X134404444Y-92049835D01*
X134457127Y-92055500D01*
X136052872Y-92055499D01*
X136112483Y-92049091D01*
X136247331Y-91998796D01*
X136362546Y-91912546D01*
X136448796Y-91797331D01*
X136499091Y-91662483D01*
X136505500Y-91602873D01*
X136505499Y-90284499D01*
X136525184Y-90217461D01*
X136577987Y-90171706D01*
X136629499Y-90160500D01*
X138085812Y-90160500D01*
X138152851Y-90180185D01*
X138187387Y-90213377D01*
X138299954Y-90374141D01*
X138460858Y-90535045D01*
X138460861Y-90535047D01*
X138647266Y-90665568D01*
X138705275Y-90692618D01*
X138757714Y-90738791D01*
X138776866Y-90805984D01*
X138756650Y-90872865D01*
X138705275Y-90917382D01*
X138647267Y-90944431D01*
X138647265Y-90944432D01*
X138460858Y-91074954D01*
X138299954Y-91235858D01*
X138169432Y-91422265D01*
X138169431Y-91422267D01*
X138073261Y-91628502D01*
X138073258Y-91628511D01*
X138014366Y-91848302D01*
X138014364Y-91848313D01*
X137994532Y-92074998D01*
X137994532Y-92075001D01*
X138014364Y-92301686D01*
X138014366Y-92301697D01*
X138073258Y-92521488D01*
X138073261Y-92521497D01*
X138169431Y-92727732D01*
X138169432Y-92727734D01*
X138299954Y-92914141D01*
X138460858Y-93075045D01*
X138460861Y-93075047D01*
X138647266Y-93205568D01*
X138705275Y-93232618D01*
X138757714Y-93278791D01*
X138776866Y-93345984D01*
X138756650Y-93412865D01*
X138705275Y-93457381D01*
X138688272Y-93465310D01*
X138647267Y-93484431D01*
X138647265Y-93484432D01*
X138460858Y-93614954D01*
X138299954Y-93775858D01*
X138187387Y-93936623D01*
X138132811Y-93980248D01*
X138085812Y-93989500D01*
X137114481Y-93989500D01*
X137047442Y-93969815D01*
X137008942Y-93930596D01*
X137007908Y-93928920D01*
X137000340Y-93916650D01*
X136878350Y-93794660D01*
X136731516Y-93704092D01*
X136567753Y-93649826D01*
X136567751Y-93649825D01*
X136466678Y-93639500D01*
X135868330Y-93639500D01*
X135868312Y-93639501D01*
X135767247Y-93649825D01*
X135603484Y-93704092D01*
X135603481Y-93704093D01*
X135456648Y-93794661D01*
X135342681Y-93908629D01*
X135281358Y-93942114D01*
X135211666Y-93937130D01*
X135167319Y-93908629D01*
X135053351Y-93794661D01*
X135053350Y-93794660D01*
X134906516Y-93704092D01*
X134742753Y-93649826D01*
X134742751Y-93649825D01*
X134641678Y-93639500D01*
X134043330Y-93639500D01*
X134043312Y-93639501D01*
X133942247Y-93649825D01*
X133778484Y-93704092D01*
X133778481Y-93704093D01*
X133631648Y-93794661D01*
X133509661Y-93916648D01*
X133419093Y-94063481D01*
X133419091Y-94063486D01*
X133365735Y-94224504D01*
X133325962Y-94281949D01*
X133261446Y-94308772D01*
X133248029Y-94309500D01*
X133133309Y-94309500D01*
X133066270Y-94289815D01*
X133045628Y-94273181D01*
X133039370Y-94266923D01*
X133039362Y-94266917D01*
X132897896Y-94183255D01*
X132897893Y-94183254D01*
X132740073Y-94137402D01*
X132740067Y-94137401D01*
X132703196Y-94134500D01*
X132703194Y-94134500D01*
X131396806Y-94134500D01*
X131396804Y-94134500D01*
X131359932Y-94137401D01*
X131359926Y-94137402D01*
X131202106Y-94183254D01*
X131202103Y-94183255D01*
X131060637Y-94266917D01*
X131060629Y-94266923D01*
X131012181Y-94315372D01*
X130950858Y-94348857D01*
X130881166Y-94343873D01*
X130825233Y-94302001D01*
X130800816Y-94236537D01*
X130800500Y-94227691D01*
X130800500Y-93828052D01*
X130820185Y-93761013D01*
X130836819Y-93740371D01*
X132642272Y-91934919D01*
X132703595Y-91901434D01*
X132729953Y-91898600D01*
X132789144Y-91898600D01*
X132789146Y-91898600D01*
X132974303Y-91859244D01*
X133147230Y-91782251D01*
X133300371Y-91670988D01*
X133427033Y-91530316D01*
X133521679Y-91366384D01*
X133580174Y-91186356D01*
X133599960Y-90998100D01*
X133580174Y-90809844D01*
X133521679Y-90629816D01*
X133427033Y-90465884D01*
X133300371Y-90325212D01*
X133244336Y-90284500D01*
X133147234Y-90213951D01*
X133147229Y-90213948D01*
X132974307Y-90136957D01*
X132974302Y-90136955D01*
X132820197Y-90104200D01*
X132789146Y-90097600D01*
X132599854Y-90097600D01*
X132568803Y-90104200D01*
X132414697Y-90136955D01*
X132414692Y-90136957D01*
X132241770Y-90213948D01*
X132241765Y-90213951D01*
X132088629Y-90325211D01*
X131961966Y-90465885D01*
X131867321Y-90629815D01*
X131867318Y-90629822D01*
X131824456Y-90761739D01*
X131808826Y-90809844D01*
X131791798Y-90971856D01*
X131791179Y-90977749D01*
X131764594Y-91042363D01*
X131755539Y-91052468D01*
X129791208Y-93016799D01*
X129778951Y-93026620D01*
X129779134Y-93026841D01*
X129773123Y-93031813D01*
X129725772Y-93082236D01*
X129704889Y-93103119D01*
X129704877Y-93103132D01*
X129700621Y-93108617D01*
X129696837Y-93113047D01*
X129664937Y-93147018D01*
X129664936Y-93147020D01*
X129655284Y-93164576D01*
X129644610Y-93180826D01*
X129632329Y-93196661D01*
X129632324Y-93196668D01*
X129613815Y-93239438D01*
X129611245Y-93244684D01*
X129588803Y-93285506D01*
X129583822Y-93304907D01*
X129577521Y-93323310D01*
X129569562Y-93341702D01*
X129569561Y-93341705D01*
X129562271Y-93387727D01*
X129561087Y-93393446D01*
X129549501Y-93438572D01*
X129549500Y-93438582D01*
X129549500Y-93458616D01*
X129547973Y-93478015D01*
X129544840Y-93497794D01*
X129544840Y-93497795D01*
X129549225Y-93544183D01*
X129549500Y-93550021D01*
X129549500Y-94975541D01*
X129529815Y-95042580D01*
X129477011Y-95088335D01*
X129460095Y-95094617D01*
X129327106Y-95133254D01*
X129327105Y-95133254D01*
X129327102Y-95133256D01*
X129306819Y-95145251D01*
X129239096Y-95162432D01*
X129172834Y-95140272D01*
X129129071Y-95085806D01*
X129119700Y-95038518D01*
X129119700Y-92642129D01*
X129139385Y-92575090D01*
X129156014Y-92554452D01*
X130269542Y-91440924D01*
X130283171Y-91429147D01*
X130302430Y-91414810D01*
X130336001Y-91374801D01*
X130339661Y-91370806D01*
X130345490Y-91364978D01*
X130365841Y-91339239D01*
X130371848Y-91332079D01*
X130415202Y-91280414D01*
X130415206Y-91280405D01*
X130419174Y-91274375D01*
X130419225Y-91274408D01*
X130423272Y-91268056D01*
X130423220Y-91268024D01*
X130427012Y-91261875D01*
X130459475Y-91192258D01*
X130493936Y-91123640D01*
X130493940Y-91123633D01*
X130493942Y-91123621D01*
X130496409Y-91116846D01*
X130496467Y-91116867D01*
X130498943Y-91109746D01*
X130498886Y-91109728D01*
X130501157Y-91102873D01*
X130516692Y-91027634D01*
X130522605Y-91002684D01*
X130534400Y-90952921D01*
X130534400Y-90952910D01*
X130535238Y-90945748D01*
X130535298Y-90945755D01*
X130536064Y-90938255D01*
X130536005Y-90938250D01*
X130536634Y-90931060D01*
X130534400Y-90854282D01*
X130534400Y-88392605D01*
X130535709Y-88374635D01*
X130536029Y-88372447D01*
X130539189Y-88350877D01*
X130538921Y-88347819D01*
X130534636Y-88298834D01*
X130534400Y-88293428D01*
X130534400Y-88285197D01*
X130534400Y-88285191D01*
X130530593Y-88252624D01*
X130523899Y-88176103D01*
X130523899Y-88176101D01*
X130522439Y-88169029D01*
X130522497Y-88169016D01*
X130520865Y-88161657D01*
X130520806Y-88161672D01*
X130519142Y-88154653D01*
X130519141Y-88154645D01*
X130492874Y-88082476D01*
X130468714Y-88009566D01*
X130468709Y-88009559D01*
X130465660Y-88003018D01*
X130465715Y-88002991D01*
X130462433Y-87996213D01*
X130462380Y-87996240D01*
X130459135Y-87989780D01*
X130416928Y-87925608D01*
X130376610Y-87860242D01*
X130372134Y-87854582D01*
X130372181Y-87854544D01*
X130367419Y-87848699D01*
X130367374Y-87848738D01*
X130362734Y-87843208D01*
X130362369Y-87842864D01*
X130336682Y-87818629D01*
X130306864Y-87790496D01*
X129385311Y-86868944D01*
X129351826Y-86807621D01*
X129356810Y-86737930D01*
X129398682Y-86681996D01*
X129433989Y-86663557D01*
X129518798Y-86635454D01*
X129518811Y-86635448D01*
X129665534Y-86544947D01*
X129665538Y-86544944D01*
X129787444Y-86423038D01*
X129787447Y-86423034D01*
X129877948Y-86276311D01*
X129877953Y-86276300D01*
X129932181Y-86112651D01*
X129937892Y-86056749D01*
X129964288Y-85992057D01*
X130021468Y-85951906D01*
X130091279Y-85949042D01*
X130151556Y-85984376D01*
X130183162Y-86046689D01*
X130184608Y-86056749D01*
X130190319Y-86112652D01*
X130244546Y-86276300D01*
X130244551Y-86276311D01*
X130335052Y-86423034D01*
X130335055Y-86423038D01*
X130456961Y-86544944D01*
X130456965Y-86544947D01*
X130603688Y-86635448D01*
X130603699Y-86635453D01*
X130767347Y-86689680D01*
X130868351Y-86699999D01*
X130917499Y-86699998D01*
X130917500Y-86699998D01*
X130917500Y-85599000D01*
X130937185Y-85531961D01*
X130989989Y-85486206D01*
X131041500Y-85475000D01*
X131293500Y-85475000D01*
X131360539Y-85494685D01*
G37*
G04 #@! TD.AperFunction*
G04 #@! TA.AperFunction,Conductor*
G36*
X121538730Y-83830185D02*
G01*
X121559372Y-83846819D01*
X121565629Y-83853076D01*
X121565633Y-83853079D01*
X121565635Y-83853081D01*
X121707102Y-83936744D01*
X121748724Y-83948836D01*
X121864926Y-83982597D01*
X121864929Y-83982597D01*
X121864931Y-83982598D01*
X121877222Y-83983565D01*
X121901804Y-83985500D01*
X121901806Y-83985500D01*
X123068000Y-83985500D01*
X123135039Y-84005185D01*
X123180794Y-84057989D01*
X123192000Y-84109500D01*
X123192000Y-84350696D01*
X123194901Y-84387567D01*
X123194902Y-84387573D01*
X123240754Y-84545393D01*
X123240755Y-84545396D01*
X123324417Y-84686862D01*
X123324423Y-84686870D01*
X123440629Y-84803076D01*
X123440633Y-84803079D01*
X123440635Y-84803081D01*
X123582102Y-84886744D01*
X123623724Y-84898836D01*
X123739926Y-84932597D01*
X123739929Y-84932597D01*
X123739931Y-84932598D01*
X123752222Y-84933565D01*
X123776804Y-84935500D01*
X123776806Y-84935500D01*
X124117770Y-84935500D01*
X124184809Y-84955185D01*
X124205451Y-84971819D01*
X124988026Y-85754394D01*
X125018275Y-85803754D01*
X125029817Y-85839276D01*
X125029821Y-85839284D01*
X125124467Y-86003216D01*
X125200372Y-86087517D01*
X125251129Y-86143888D01*
X125404265Y-86255148D01*
X125404267Y-86255149D01*
X125404270Y-86255151D01*
X125558719Y-86323916D01*
X125587983Y-86342203D01*
X125604786Y-86356302D01*
X125604790Y-86356304D01*
X125610822Y-86360272D01*
X125610789Y-86360322D01*
X125617147Y-86364372D01*
X125617179Y-86364321D01*
X125623319Y-86368108D01*
X125623323Y-86368111D01*
X125658132Y-86384343D01*
X125692941Y-86400575D01*
X125737661Y-86423034D01*
X125761567Y-86435040D01*
X125761569Y-86435040D01*
X125768357Y-86437511D01*
X125768336Y-86437567D01*
X125775457Y-86440043D01*
X125775476Y-86439986D01*
X125782322Y-86442254D01*
X125782327Y-86442257D01*
X125782332Y-86442258D01*
X125782335Y-86442259D01*
X125857565Y-86457792D01*
X125932279Y-86475500D01*
X125932282Y-86475500D01*
X125932286Y-86475501D01*
X125939453Y-86476339D01*
X125939446Y-86476398D01*
X125946944Y-86477164D01*
X125946950Y-86477105D01*
X125954139Y-86477734D01*
X125954143Y-86477733D01*
X125954144Y-86477734D01*
X126030917Y-86475500D01*
X126297948Y-86475500D01*
X126364987Y-86495185D01*
X126385629Y-86511819D01*
X126419150Y-86545340D01*
X126565984Y-86635908D01*
X126729747Y-86690174D01*
X126830823Y-86700500D01*
X127042768Y-86700499D01*
X127109808Y-86720183D01*
X127130450Y-86736818D01*
X127940148Y-87546516D01*
X128741452Y-88347819D01*
X128774937Y-88409142D01*
X128769953Y-88478834D01*
X128728081Y-88534767D01*
X128662617Y-88559184D01*
X128653772Y-88559500D01*
X128525831Y-88559500D01*
X128525812Y-88559501D01*
X128424747Y-88569825D01*
X128260984Y-88624092D01*
X128260981Y-88624093D01*
X128114148Y-88714661D01*
X128000181Y-88828629D01*
X127938858Y-88862114D01*
X127869166Y-88857130D01*
X127824819Y-88828629D01*
X127710851Y-88714661D01*
X127710850Y-88714660D01*
X127564016Y-88624092D01*
X127400253Y-88569826D01*
X127400251Y-88569825D01*
X127299178Y-88559500D01*
X126700830Y-88559500D01*
X126700812Y-88559501D01*
X126599747Y-88569825D01*
X126435984Y-88624092D01*
X126435981Y-88624093D01*
X126289148Y-88714661D01*
X126167160Y-88836649D01*
X126167159Y-88836651D01*
X126158558Y-88850596D01*
X126106610Y-88897321D01*
X126053019Y-88909500D01*
X124832737Y-88909500D01*
X124817120Y-88907776D01*
X124817093Y-88908062D01*
X124809331Y-88907327D01*
X124740203Y-88909500D01*
X124710650Y-88909500D01*
X124709929Y-88909590D01*
X124703757Y-88910369D01*
X124697945Y-88910826D01*
X124651378Y-88912290D01*
X124651367Y-88912292D01*
X124632134Y-88917879D01*
X124613094Y-88921822D01*
X124593217Y-88924334D01*
X124593210Y-88924335D01*
X124593208Y-88924336D01*
X124593206Y-88924336D01*
X124593205Y-88924337D01*
X124549868Y-88941494D01*
X124544342Y-88943386D01*
X124499611Y-88956382D01*
X124499608Y-88956383D01*
X124482363Y-88966581D01*
X124464901Y-88975135D01*
X124446272Y-88982511D01*
X124446267Y-88982514D01*
X124408564Y-89009905D01*
X124403682Y-89013112D01*
X124362901Y-89037231D01*
X124299778Y-89054500D01*
X123776804Y-89054500D01*
X123739932Y-89057401D01*
X123739926Y-89057402D01*
X123582106Y-89103254D01*
X123582103Y-89103255D01*
X123440637Y-89186917D01*
X123440629Y-89186923D01*
X123324423Y-89303129D01*
X123324417Y-89303137D01*
X123240755Y-89444603D01*
X123240754Y-89444606D01*
X123194902Y-89602426D01*
X123194901Y-89602432D01*
X123192000Y-89639304D01*
X123192000Y-89880500D01*
X123172315Y-89947539D01*
X123119511Y-89993294D01*
X123068000Y-90004500D01*
X121901804Y-90004500D01*
X121864932Y-90007401D01*
X121864926Y-90007402D01*
X121707106Y-90053254D01*
X121707103Y-90053255D01*
X121565637Y-90136917D01*
X121565629Y-90136923D01*
X121559372Y-90143181D01*
X121498049Y-90176666D01*
X121471691Y-90179500D01*
X121168150Y-90179500D01*
X121101111Y-90159815D01*
X121066575Y-90126623D01*
X120976599Y-89998124D01*
X120925992Y-89947517D01*
X120821877Y-89843402D01*
X120642639Y-89717898D01*
X120491414Y-89647381D01*
X120438977Y-89601210D01*
X120419825Y-89534016D01*
X120440041Y-89467135D01*
X120491414Y-89422618D01*
X120642639Y-89352102D01*
X120821877Y-89226598D01*
X120976598Y-89071877D01*
X121102102Y-88892639D01*
X121194575Y-88694330D01*
X121251207Y-88482977D01*
X121270277Y-88265000D01*
X121267671Y-88235218D01*
X121265836Y-88214235D01*
X121251207Y-88047023D01*
X121201159Y-87860242D01*
X121194577Y-87835677D01*
X121194576Y-87835676D01*
X121194575Y-87835670D01*
X121102102Y-87637362D01*
X121102100Y-87637359D01*
X121102099Y-87637357D01*
X120976599Y-87458124D01*
X120901127Y-87382652D01*
X120821877Y-87303402D01*
X120642639Y-87177898D01*
X120491414Y-87107381D01*
X120438977Y-87061210D01*
X120419825Y-86994016D01*
X120440041Y-86927135D01*
X120491414Y-86882618D01*
X120642639Y-86812102D01*
X120821877Y-86686598D01*
X120976598Y-86531877D01*
X121102102Y-86352639D01*
X121194575Y-86154330D01*
X121251207Y-85942977D01*
X121270277Y-85725000D01*
X121251207Y-85507023D01*
X121194575Y-85295670D01*
X121102102Y-85097362D01*
X121102100Y-85097359D01*
X121102099Y-85097357D01*
X120976599Y-84918124D01*
X120907751Y-84849276D01*
X120821877Y-84763402D01*
X120642639Y-84637898D01*
X120491414Y-84567381D01*
X120438977Y-84521210D01*
X120419825Y-84454016D01*
X120440041Y-84387135D01*
X120491414Y-84342618D01*
X120642639Y-84272102D01*
X120821877Y-84146598D01*
X120976598Y-83991877D01*
X121066575Y-83863375D01*
X121121151Y-83819752D01*
X121168149Y-83810500D01*
X121471691Y-83810500D01*
X121538730Y-83830185D01*
G37*
G04 #@! TD.AperFunction*
G04 #@! TA.AperFunction,Conductor*
G36*
X127955834Y-82592870D02*
G01*
X128000181Y-82621371D01*
X128114150Y-82735340D01*
X128260984Y-82825908D01*
X128424747Y-82880174D01*
X128525823Y-82890500D01*
X128864547Y-82890499D01*
X128931586Y-82910183D01*
X128952228Y-82926818D01*
X130639601Y-84614191D01*
X130673086Y-84675514D01*
X130668102Y-84745206D01*
X130626230Y-84801139D01*
X130604327Y-84814253D01*
X130603695Y-84814547D01*
X130456965Y-84905052D01*
X130456961Y-84905055D01*
X130335055Y-85026961D01*
X130335052Y-85026965D01*
X130244551Y-85173688D01*
X130244546Y-85173699D01*
X130190319Y-85337347D01*
X130184607Y-85393252D01*
X130158210Y-85457944D01*
X130101028Y-85498094D01*
X130031217Y-85500956D01*
X129970941Y-85465622D01*
X129939337Y-85403308D01*
X129937891Y-85393249D01*
X129932180Y-85337347D01*
X129877953Y-85173699D01*
X129877948Y-85173688D01*
X129787447Y-85026965D01*
X129787444Y-85026961D01*
X129665538Y-84905055D01*
X129665534Y-84905052D01*
X129518811Y-84814551D01*
X129518800Y-84814546D01*
X129355152Y-84760319D01*
X129254154Y-84750000D01*
X129155000Y-84750000D01*
X129155000Y-85851000D01*
X129135315Y-85918039D01*
X129082511Y-85963794D01*
X129031000Y-85975000D01*
X128779000Y-85975000D01*
X128711961Y-85955315D01*
X128666206Y-85902511D01*
X128655000Y-85851000D01*
X128655000Y-84749999D01*
X128555860Y-84750000D01*
X128555844Y-84750001D01*
X128454847Y-84760319D01*
X128291199Y-84814546D01*
X128291188Y-84814551D01*
X128144465Y-84905052D01*
X128130532Y-84918985D01*
X128069208Y-84952468D01*
X127999516Y-84947482D01*
X127955172Y-84918982D01*
X127940851Y-84904661D01*
X127940850Y-84904660D01*
X127795386Y-84814937D01*
X127794018Y-84814093D01*
X127794013Y-84814091D01*
X127760772Y-84803076D01*
X127630253Y-84759826D01*
X127630251Y-84759825D01*
X127529178Y-84749500D01*
X126830830Y-84749500D01*
X126830812Y-84749501D01*
X126729747Y-84759825D01*
X126729744Y-84759826D01*
X126570680Y-84812535D01*
X126500851Y-84814937D01*
X126458791Y-84795147D01*
X126309734Y-84686851D01*
X126309729Y-84686848D01*
X126136807Y-84609857D01*
X126136802Y-84609855D01*
X125956107Y-84571448D01*
X125894625Y-84538256D01*
X125894207Y-84537839D01*
X125704319Y-84347951D01*
X125670834Y-84286628D01*
X125668000Y-84260270D01*
X125668000Y-83919304D01*
X125665098Y-83882432D01*
X125665097Y-83882426D01*
X125619245Y-83724606D01*
X125619244Y-83724603D01*
X125619244Y-83724602D01*
X125535581Y-83583135D01*
X125535579Y-83583133D01*
X125535576Y-83583129D01*
X125419370Y-83466923D01*
X125419362Y-83466917D01*
X125311248Y-83402979D01*
X125277898Y-83383256D01*
X125277897Y-83383255D01*
X125277896Y-83383255D01*
X125277893Y-83383254D01*
X125120073Y-83337402D01*
X125120067Y-83337401D01*
X125083196Y-83334500D01*
X125083194Y-83334500D01*
X123917000Y-83334500D01*
X123849961Y-83314815D01*
X123804206Y-83262011D01*
X123793000Y-83210500D01*
X123793000Y-83159500D01*
X123812685Y-83092461D01*
X123865489Y-83046706D01*
X123917000Y-83035500D01*
X125083196Y-83035500D01*
X125101631Y-83034049D01*
X125120069Y-83032598D01*
X125120071Y-83032597D01*
X125120073Y-83032597D01*
X125169992Y-83018094D01*
X125277898Y-82986744D01*
X125419365Y-82903081D01*
X125419370Y-82903076D01*
X125425628Y-82896819D01*
X125486951Y-82863334D01*
X125513309Y-82860500D01*
X126520365Y-82860500D01*
X126559368Y-82866794D01*
X126583185Y-82874686D01*
X126599747Y-82880174D01*
X126700823Y-82890500D01*
X127299176Y-82890499D01*
X127299184Y-82890498D01*
X127299187Y-82890498D01*
X127354530Y-82884844D01*
X127400253Y-82880174D01*
X127564016Y-82825908D01*
X127710850Y-82735340D01*
X127824819Y-82621371D01*
X127886142Y-82587886D01*
X127955834Y-82592870D01*
G37*
G04 #@! TD.AperFunction*
G04 #@! TA.AperFunction,Conductor*
G36*
X138240376Y-75065185D02*
G01*
X138274912Y-75098377D01*
X138299954Y-75134141D01*
X138324629Y-75158816D01*
X138358114Y-75220139D01*
X138353130Y-75289831D01*
X138324629Y-75334178D01*
X136376322Y-77282485D01*
X136314999Y-77315970D01*
X136245307Y-77310986D01*
X136200960Y-77282485D01*
X136061881Y-77143406D01*
X136061877Y-77143402D01*
X135882639Y-77017898D01*
X135882640Y-77017898D01*
X135882638Y-77017897D01*
X135783484Y-76971661D01*
X135684330Y-76925425D01*
X135684326Y-76925424D01*
X135684322Y-76925422D01*
X135472977Y-76868793D01*
X135255002Y-76849723D01*
X135254998Y-76849723D01*
X135109682Y-76862436D01*
X135037023Y-76868793D01*
X135037020Y-76868793D01*
X134825677Y-76925422D01*
X134825668Y-76925426D01*
X134627361Y-77017898D01*
X134627357Y-77017900D01*
X134448121Y-77143402D01*
X134293402Y-77298121D01*
X134167900Y-77477357D01*
X134167898Y-77477361D01*
X134075426Y-77675668D01*
X134075422Y-77675677D01*
X134018793Y-77887020D01*
X134018793Y-77887023D01*
X133999723Y-78105000D01*
X134014639Y-78275500D01*
X134018793Y-78322975D01*
X134018793Y-78322979D01*
X134075422Y-78534322D01*
X134075424Y-78534326D01*
X134075425Y-78534330D01*
X134106843Y-78601706D01*
X134167897Y-78732638D01*
X134190908Y-78765500D01*
X134293402Y-78911877D01*
X134448123Y-79066598D01*
X134627361Y-79192102D01*
X134778583Y-79262618D01*
X134831022Y-79308790D01*
X134850174Y-79375984D01*
X134829958Y-79442865D01*
X134778583Y-79487382D01*
X134627361Y-79557898D01*
X134627357Y-79557900D01*
X134448121Y-79683402D01*
X134293402Y-79838121D01*
X134167900Y-80017357D01*
X134167898Y-80017361D01*
X134075426Y-80215668D01*
X134075422Y-80215677D01*
X134018793Y-80427020D01*
X134018793Y-80427024D01*
X133999723Y-80644997D01*
X133999723Y-80645002D01*
X134018793Y-80862975D01*
X134018793Y-80862979D01*
X134075422Y-81074322D01*
X134075424Y-81074326D01*
X134075425Y-81074330D01*
X134116057Y-81161466D01*
X134167897Y-81272638D01*
X134167898Y-81272639D01*
X134293402Y-81451877D01*
X134448123Y-81606598D01*
X134573720Y-81694542D01*
X134627361Y-81732102D01*
X134778583Y-81802618D01*
X134831022Y-81848790D01*
X134850174Y-81915984D01*
X134829958Y-81982865D01*
X134778583Y-82027382D01*
X134627361Y-82097898D01*
X134627357Y-82097900D01*
X134448121Y-82223402D01*
X134293402Y-82378121D01*
X134167900Y-82557357D01*
X134167898Y-82557361D01*
X134075426Y-82755668D01*
X134075422Y-82755677D01*
X134018793Y-82967020D01*
X134018793Y-82967024D01*
X133999723Y-83184997D01*
X133999723Y-83185002D01*
X134018793Y-83402975D01*
X134018793Y-83402979D01*
X134075422Y-83614322D01*
X134075424Y-83614326D01*
X134075425Y-83614330D01*
X134121661Y-83713484D01*
X134167897Y-83812638D01*
X134174733Y-83822400D01*
X134293402Y-83991877D01*
X134448123Y-84146598D01*
X134627355Y-84272098D01*
X134627361Y-84272102D01*
X134778583Y-84342618D01*
X134831022Y-84388790D01*
X134850174Y-84455984D01*
X134829958Y-84522865D01*
X134778583Y-84567382D01*
X134627361Y-84637898D01*
X134627357Y-84637900D01*
X134448121Y-84763402D01*
X134293402Y-84918121D01*
X134203425Y-85046623D01*
X134148848Y-85090248D01*
X134101850Y-85099500D01*
X133939481Y-85099500D01*
X133872442Y-85079815D01*
X133833942Y-85040596D01*
X133825534Y-85026965D01*
X133825340Y-85026650D01*
X133703350Y-84904660D01*
X133557886Y-84814937D01*
X133556518Y-84814093D01*
X133556513Y-84814091D01*
X133523272Y-84803076D01*
X133392753Y-84759826D01*
X133392751Y-84759825D01*
X133291678Y-84749500D01*
X132693330Y-84749500D01*
X132693310Y-84749502D01*
X132620062Y-84756984D01*
X132551370Y-84744214D01*
X132528423Y-84729171D01*
X132503694Y-84708714D01*
X132499381Y-84704790D01*
X129849318Y-82054727D01*
X129815833Y-81993404D01*
X129812999Y-81967046D01*
X129812999Y-81628330D01*
X129812998Y-81628313D01*
X129802674Y-81527247D01*
X129795728Y-81506285D01*
X129748408Y-81363484D01*
X129657840Y-81216650D01*
X129535850Y-81094660D01*
X129408982Y-81016407D01*
X129389018Y-81004093D01*
X129389013Y-81004091D01*
X129387569Y-81003612D01*
X129225253Y-80949826D01*
X129225251Y-80949825D01*
X129124178Y-80939500D01*
X128525830Y-80939500D01*
X128525812Y-80939501D01*
X128424747Y-80949825D01*
X128260984Y-81004092D01*
X128260981Y-81004093D01*
X128114148Y-81094661D01*
X128000181Y-81208629D01*
X127938858Y-81242114D01*
X127869166Y-81237130D01*
X127824819Y-81208629D01*
X127710851Y-81094661D01*
X127710850Y-81094660D01*
X127583982Y-81016407D01*
X127564018Y-81004093D01*
X127564013Y-81004091D01*
X127562569Y-81003612D01*
X127400253Y-80949826D01*
X127400251Y-80949825D01*
X127299178Y-80939500D01*
X126700830Y-80939500D01*
X126700812Y-80939501D01*
X126599747Y-80949825D01*
X126435984Y-81004092D01*
X126435981Y-81004093D01*
X126289148Y-81094661D01*
X126167161Y-81216648D01*
X126076593Y-81363481D01*
X126076591Y-81363486D01*
X126023235Y-81524504D01*
X125983462Y-81581949D01*
X125918946Y-81608772D01*
X125905529Y-81609500D01*
X125513309Y-81609500D01*
X125446270Y-81589815D01*
X125425628Y-81573181D01*
X125419370Y-81566923D01*
X125419362Y-81566917D01*
X125316838Y-81506285D01*
X125277898Y-81483256D01*
X125277897Y-81483255D01*
X125277896Y-81483255D01*
X125277893Y-81483254D01*
X125120073Y-81437402D01*
X125120067Y-81437401D01*
X125083196Y-81434500D01*
X125083194Y-81434500D01*
X123776806Y-81434500D01*
X123776804Y-81434500D01*
X123739932Y-81437401D01*
X123739926Y-81437402D01*
X123582106Y-81483254D01*
X123582103Y-81483255D01*
X123440637Y-81566917D01*
X123440629Y-81566923D01*
X123324423Y-81683129D01*
X123324417Y-81683137D01*
X123240755Y-81824603D01*
X123240754Y-81824606D01*
X123194902Y-81982426D01*
X123194901Y-81982432D01*
X123192000Y-82019304D01*
X123192000Y-82260500D01*
X123172315Y-82327539D01*
X123119511Y-82373294D01*
X123068000Y-82384500D01*
X121901804Y-82384500D01*
X121864932Y-82387401D01*
X121864926Y-82387402D01*
X121707106Y-82433254D01*
X121707103Y-82433255D01*
X121565637Y-82516917D01*
X121565629Y-82516923D01*
X121559372Y-82523181D01*
X121498049Y-82556666D01*
X121471691Y-82559500D01*
X121168150Y-82559500D01*
X121101111Y-82539815D01*
X121066575Y-82506623D01*
X120976599Y-82378124D01*
X120901227Y-82302752D01*
X120821877Y-82223402D01*
X120642639Y-82097898D01*
X120491414Y-82027381D01*
X120438977Y-81981210D01*
X120419825Y-81914016D01*
X120440041Y-81847135D01*
X120491414Y-81802618D01*
X120642639Y-81732102D01*
X120821877Y-81606598D01*
X120976598Y-81451877D01*
X121102102Y-81272639D01*
X121194575Y-81074330D01*
X121251207Y-80862977D01*
X121270277Y-80645000D01*
X121251207Y-80427023D01*
X121241494Y-80390774D01*
X121243157Y-80320925D01*
X121273586Y-80271002D01*
X121967772Y-79576819D01*
X122029095Y-79543334D01*
X122055453Y-79540500D01*
X123068000Y-79540500D01*
X123135039Y-79560185D01*
X123180794Y-79612989D01*
X123192000Y-79664500D01*
X123192000Y-79905696D01*
X123194901Y-79942567D01*
X123194902Y-79942573D01*
X123240754Y-80100393D01*
X123240755Y-80100396D01*
X123240756Y-80100398D01*
X123263430Y-80138738D01*
X123324417Y-80241862D01*
X123324423Y-80241870D01*
X123440629Y-80358076D01*
X123440633Y-80358079D01*
X123440635Y-80358081D01*
X123582102Y-80441744D01*
X123594304Y-80445289D01*
X123739926Y-80487597D01*
X123739929Y-80487597D01*
X123739931Y-80487598D01*
X123752222Y-80488565D01*
X123776804Y-80490500D01*
X123776806Y-80490500D01*
X125083196Y-80490500D01*
X125101631Y-80489049D01*
X125120069Y-80487598D01*
X125120071Y-80487597D01*
X125120073Y-80487597D01*
X125265233Y-80445424D01*
X125299828Y-80440500D01*
X125439339Y-80440500D01*
X125489775Y-80451221D01*
X125577192Y-80490142D01*
X125577197Y-80490144D01*
X125762354Y-80529500D01*
X125762355Y-80529500D01*
X125951644Y-80529500D01*
X125951646Y-80529500D01*
X126136803Y-80490144D01*
X126224225Y-80451221D01*
X126274661Y-80440500D01*
X130129295Y-80440500D01*
X130147265Y-80441809D01*
X130171023Y-80445289D01*
X130223068Y-80440735D01*
X130228470Y-80440500D01*
X130236704Y-80440500D01*
X130236709Y-80440500D01*
X130248327Y-80439141D01*
X130269276Y-80436693D01*
X130282028Y-80435577D01*
X130345797Y-80429999D01*
X130345805Y-80429996D01*
X130352866Y-80428539D01*
X130352878Y-80428598D01*
X130360243Y-80426965D01*
X130360229Y-80426906D01*
X130367246Y-80425241D01*
X130367255Y-80425241D01*
X130439423Y-80398974D01*
X130512334Y-80374814D01*
X130512343Y-80374807D01*
X130518882Y-80371760D01*
X130518908Y-80371816D01*
X130525690Y-80368532D01*
X130525663Y-80368478D01*
X130532106Y-80365240D01*
X130532117Y-80365237D01*
X130596283Y-80323034D01*
X130661656Y-80282712D01*
X130661662Y-80282705D01*
X130667325Y-80278229D01*
X130667362Y-80278277D01*
X130673204Y-80273518D01*
X130673164Y-80273471D01*
X130678691Y-80268832D01*
X130678696Y-80268830D01*
X130728843Y-80215677D01*
X130731386Y-80212981D01*
X135862548Y-75081819D01*
X135923871Y-75048334D01*
X135950229Y-75045500D01*
X138173337Y-75045500D01*
X138240376Y-75065185D01*
G37*
G04 #@! TD.AperFunction*
G04 #@! TA.AperFunction,Conductor*
G36*
X125720769Y-51336533D02*
G01*
X125776702Y-51378405D01*
X125789817Y-51400310D01*
X125825965Y-51477830D01*
X125825967Y-51477834D01*
X125934281Y-51632521D01*
X125961504Y-51671400D01*
X125961506Y-51671402D01*
X126128595Y-51838492D01*
X126128598Y-51838494D01*
X126128599Y-51838495D01*
X126196623Y-51886125D01*
X126240248Y-51940701D01*
X126249500Y-51987700D01*
X126249500Y-54546294D01*
X126248191Y-54564263D01*
X126244710Y-54588025D01*
X126249264Y-54640064D01*
X126249500Y-54645470D01*
X126249500Y-54653709D01*
X126253306Y-54686274D01*
X126260000Y-54762791D01*
X126261461Y-54769867D01*
X126261403Y-54769878D01*
X126263034Y-54777237D01*
X126263092Y-54777224D01*
X126264757Y-54784250D01*
X126291025Y-54856424D01*
X126315185Y-54929331D01*
X126318236Y-54935874D01*
X126318182Y-54935898D01*
X126321470Y-54942688D01*
X126321521Y-54942663D01*
X126324761Y-54949113D01*
X126324762Y-54949114D01*
X126324763Y-54949117D01*
X126356379Y-54997187D01*
X126366965Y-55013283D01*
X126407287Y-55078655D01*
X126411766Y-55084319D01*
X126411719Y-55084356D01*
X126416482Y-55090202D01*
X126416528Y-55090164D01*
X126421173Y-55095700D01*
X126477017Y-55148385D01*
X129599270Y-58270638D01*
X129611051Y-58284270D01*
X129625388Y-58303528D01*
X129665409Y-58337111D01*
X129669397Y-58340766D01*
X129675216Y-58346585D01*
X129675220Y-58346588D01*
X129675223Y-58346591D01*
X129700959Y-58366940D01*
X129759786Y-58416302D01*
X129759787Y-58416302D01*
X129759789Y-58416304D01*
X129765818Y-58420270D01*
X129765785Y-58420319D01*
X129772147Y-58424372D01*
X129772179Y-58424321D01*
X129778319Y-58428108D01*
X129778323Y-58428111D01*
X129813132Y-58444343D01*
X129847941Y-58460575D01*
X129893290Y-58483350D01*
X129916567Y-58495040D01*
X129916569Y-58495040D01*
X129923357Y-58497511D01*
X129923336Y-58497567D01*
X129930457Y-58500043D01*
X129930476Y-58499986D01*
X129937322Y-58502254D01*
X129937327Y-58502257D01*
X129937332Y-58502258D01*
X129937335Y-58502259D01*
X130012565Y-58517792D01*
X130087279Y-58535500D01*
X130087282Y-58535500D01*
X130087286Y-58535501D01*
X130094453Y-58536339D01*
X130094446Y-58536398D01*
X130101944Y-58537164D01*
X130101950Y-58537105D01*
X130109139Y-58537734D01*
X130109143Y-58537733D01*
X130109144Y-58537734D01*
X130185917Y-58535500D01*
X134738000Y-58535500D01*
X134805039Y-58555185D01*
X134850794Y-58607989D01*
X134862000Y-58659500D01*
X134862000Y-62632594D01*
X134860691Y-62650563D01*
X134857210Y-62674325D01*
X134861764Y-62726364D01*
X134862000Y-62731770D01*
X134862000Y-62740009D01*
X134865806Y-62772574D01*
X134872500Y-62849091D01*
X134873961Y-62856167D01*
X134873903Y-62856178D01*
X134875534Y-62863537D01*
X134875592Y-62863524D01*
X134877257Y-62870550D01*
X134903525Y-62942724D01*
X134927685Y-63015631D01*
X134930736Y-63022174D01*
X134930682Y-63022198D01*
X134933970Y-63028988D01*
X134934021Y-63028963D01*
X134937261Y-63035413D01*
X134937262Y-63035414D01*
X134937263Y-63035417D01*
X134974914Y-63092664D01*
X134979465Y-63099583D01*
X135019787Y-63164955D01*
X135024266Y-63170619D01*
X135024219Y-63170656D01*
X135028982Y-63176502D01*
X135029028Y-63176464D01*
X135033673Y-63182000D01*
X135089518Y-63234686D01*
X137725867Y-65871034D01*
X137737648Y-65884666D01*
X137751990Y-65903930D01*
X137792020Y-65937519D01*
X137795992Y-65941159D01*
X137801824Y-65946991D01*
X137801827Y-65946994D01*
X137827547Y-65967331D01*
X137886388Y-66016704D01*
X137892418Y-66020670D01*
X137892385Y-66020719D01*
X137898747Y-66024772D01*
X137898779Y-66024721D01*
X137904919Y-66028508D01*
X137904923Y-66028511D01*
X137925345Y-66038034D01*
X137974541Y-66060975D01*
X137995005Y-66071252D01*
X138010943Y-66079256D01*
X138062017Y-66126934D01*
X138079207Y-66194656D01*
X138073669Y-66223008D01*
X138074662Y-66223274D01*
X138014366Y-66448302D01*
X138014364Y-66448313D01*
X137994532Y-66674998D01*
X137994532Y-66675001D01*
X138014364Y-66901686D01*
X138014366Y-66901697D01*
X138073258Y-67121488D01*
X138073261Y-67121497D01*
X138169431Y-67327732D01*
X138169432Y-67327734D01*
X138299954Y-67514141D01*
X138460858Y-67675045D01*
X138468373Y-67680307D01*
X138647266Y-67805568D01*
X138705275Y-67832618D01*
X138757714Y-67878791D01*
X138776866Y-67945984D01*
X138756650Y-68012865D01*
X138705275Y-68057382D01*
X138647267Y-68084431D01*
X138647265Y-68084432D01*
X138460858Y-68214954D01*
X138299954Y-68375858D01*
X138169432Y-68562265D01*
X138169431Y-68562267D01*
X138073261Y-68768502D01*
X138073258Y-68768511D01*
X138014366Y-68988302D01*
X138014364Y-68988313D01*
X137994532Y-69214998D01*
X137994532Y-69215001D01*
X138014364Y-69441686D01*
X138014366Y-69441697D01*
X138073258Y-69661488D01*
X138073260Y-69661492D01*
X138073261Y-69661496D01*
X138083333Y-69683095D01*
X138093825Y-69752173D01*
X138065305Y-69815957D01*
X138006829Y-69854196D01*
X137970951Y-69859500D01*
X137115743Y-69859500D01*
X137100122Y-69857775D01*
X137100095Y-69858061D01*
X137092333Y-69857326D01*
X137023172Y-69859500D01*
X136993649Y-69859500D01*
X136986778Y-69860367D01*
X136980959Y-69860825D01*
X136934374Y-69862289D01*
X136934368Y-69862290D01*
X136915126Y-69867880D01*
X136896087Y-69871823D01*
X136876217Y-69874334D01*
X136876203Y-69874337D01*
X136832883Y-69891488D01*
X136827358Y-69893380D01*
X136782613Y-69906380D01*
X136782610Y-69906381D01*
X136765366Y-69916579D01*
X136747905Y-69925133D01*
X136729274Y-69932510D01*
X136729262Y-69932517D01*
X136691570Y-69959902D01*
X136686687Y-69963109D01*
X136646580Y-69986829D01*
X136632414Y-70000995D01*
X136617624Y-70013627D01*
X136601414Y-70025404D01*
X136601411Y-70025407D01*
X136571710Y-70061309D01*
X136567777Y-70065631D01*
X130700528Y-75932881D01*
X130639205Y-75966366D01*
X130612847Y-75969200D01*
X123369635Y-75969200D01*
X123354014Y-75967475D01*
X123353988Y-75967761D01*
X123346226Y-75967027D01*
X123346225Y-75967027D01*
X123277078Y-75969200D01*
X123247541Y-75969200D01*
X123240658Y-75970069D01*
X123234841Y-75970526D01*
X123188265Y-75971990D01*
X123169021Y-75977581D01*
X123149971Y-75981525D01*
X123130103Y-75984034D01*
X123086776Y-76001188D01*
X123081250Y-76003079D01*
X123036506Y-76016079D01*
X123036502Y-76016081D01*
X123019258Y-76026279D01*
X123001797Y-76034833D01*
X122983166Y-76042210D01*
X122983154Y-76042217D01*
X122945462Y-76069602D01*
X122940579Y-76072809D01*
X122900472Y-76096529D01*
X122886306Y-76110695D01*
X122871516Y-76123327D01*
X122855306Y-76135104D01*
X122855303Y-76135107D01*
X122825602Y-76171009D01*
X122821669Y-76175331D01*
X121360106Y-77636893D01*
X121298783Y-77670378D01*
X121229091Y-77665394D01*
X121173158Y-77623522D01*
X121160043Y-77601617D01*
X121147125Y-77573914D01*
X121102102Y-77477362D01*
X121102100Y-77477359D01*
X121102099Y-77477357D01*
X120976599Y-77298124D01*
X120940886Y-77262411D01*
X120821877Y-77143402D01*
X120642639Y-77017898D01*
X120642640Y-77017898D01*
X120642638Y-77017897D01*
X120543484Y-76971661D01*
X120444330Y-76925425D01*
X120444326Y-76925424D01*
X120444322Y-76925422D01*
X120232977Y-76868793D01*
X120015002Y-76849723D01*
X120014998Y-76849723D01*
X119869682Y-76862436D01*
X119797023Y-76868793D01*
X119797020Y-76868793D01*
X119585677Y-76925422D01*
X119585668Y-76925426D01*
X119387361Y-77017898D01*
X119387357Y-77017900D01*
X119222723Y-77133178D01*
X119156517Y-77155505D01*
X119088750Y-77138495D01*
X119040937Y-77087546D01*
X119027600Y-77031603D01*
X119027600Y-57978551D01*
X119047285Y-57911512D01*
X119063914Y-57890875D01*
X125589756Y-51365032D01*
X125651077Y-51331549D01*
X125720769Y-51336533D01*
G37*
G04 #@! TD.AperFunction*
G04 #@! TA.AperFunction,Conductor*
G36*
X141361487Y-48905185D02*
G01*
X141382129Y-48921819D01*
X146123075Y-53662765D01*
X146156560Y-53724088D01*
X146151576Y-53793780D01*
X146109704Y-53849713D01*
X146084446Y-53863114D01*
X146084885Y-53864113D01*
X146080188Y-53866172D01*
X145861493Y-53984524D01*
X145665257Y-54137261D01*
X145496833Y-54320217D01*
X145360826Y-54528393D01*
X145260936Y-54756118D01*
X145199892Y-54997175D01*
X145199890Y-54997187D01*
X145179357Y-55244994D01*
X145179357Y-55245005D01*
X145199890Y-55492812D01*
X145199892Y-55492824D01*
X145260936Y-55733881D01*
X145360826Y-55961606D01*
X145496833Y-56169782D01*
X145496836Y-56169785D01*
X145665256Y-56352738D01*
X145861491Y-56505474D01*
X146080190Y-56623828D01*
X146315386Y-56704571D01*
X146560665Y-56745500D01*
X146809335Y-56745500D01*
X147054614Y-56704571D01*
X147289810Y-56623828D01*
X147508509Y-56505474D01*
X147704744Y-56352738D01*
X147873164Y-56169785D01*
X148009173Y-55961607D01*
X148062114Y-55840912D01*
X148107069Y-55787426D01*
X148173805Y-55766736D01*
X148241133Y-55785410D01*
X148263351Y-55803041D01*
X148563181Y-56102871D01*
X148596666Y-56164194D01*
X148599500Y-56190552D01*
X148599500Y-62925013D01*
X148579815Y-62992052D01*
X148527011Y-63037807D01*
X148457853Y-63047751D01*
X148404379Y-63026589D01*
X148372738Y-63004435D01*
X148372732Y-63004431D01*
X148166497Y-62908261D01*
X148166488Y-62908258D01*
X147946697Y-62849366D01*
X147946687Y-62849364D01*
X147776784Y-62834500D01*
X146863216Y-62834500D01*
X146693312Y-62849364D01*
X146693302Y-62849366D01*
X146473511Y-62908258D01*
X146473502Y-62908261D01*
X146267267Y-63004431D01*
X146267265Y-63004432D01*
X146080862Y-63134951D01*
X145919818Y-63295995D01*
X145858495Y-63329479D01*
X145788803Y-63324495D01*
X145767040Y-63313852D01*
X145621518Y-63224093D01*
X145621513Y-63224091D01*
X145620069Y-63223612D01*
X145457753Y-63169826D01*
X145457751Y-63169825D01*
X145356678Y-63159500D01*
X144658330Y-63159500D01*
X144658312Y-63159501D01*
X144557247Y-63169825D01*
X144393484Y-63224092D01*
X144393481Y-63224093D01*
X144246648Y-63314661D01*
X144232325Y-63328984D01*
X144171001Y-63362468D01*
X144101309Y-63357482D01*
X144056965Y-63328982D01*
X144043038Y-63315055D01*
X144043034Y-63315052D01*
X143896311Y-63224551D01*
X143896300Y-63224546D01*
X143732652Y-63170319D01*
X143631654Y-63160000D01*
X143532500Y-63160000D01*
X143532500Y-64261000D01*
X143512815Y-64328039D01*
X143460011Y-64373794D01*
X143408500Y-64385000D01*
X142245001Y-64385000D01*
X142245001Y-64421654D01*
X142255319Y-64522652D01*
X142309546Y-64686300D01*
X142309549Y-64686307D01*
X142398497Y-64830511D01*
X142416938Y-64897904D01*
X142396016Y-64964567D01*
X142380640Y-64983290D01*
X141907280Y-65456651D01*
X141845957Y-65490136D01*
X141776266Y-65485152D01*
X141731918Y-65456651D01*
X141428397Y-65153130D01*
X141394912Y-65091807D01*
X141395289Y-65050413D01*
X141393262Y-65050196D01*
X141394883Y-65035108D01*
X141400500Y-64982873D01*
X141400499Y-63885000D01*
X142245000Y-63885000D01*
X143032500Y-63885000D01*
X143032500Y-63159999D01*
X142933360Y-63160000D01*
X142933344Y-63160001D01*
X142832347Y-63170319D01*
X142668699Y-63224546D01*
X142668688Y-63224551D01*
X142521965Y-63315052D01*
X142521961Y-63315055D01*
X142400055Y-63436961D01*
X142400052Y-63436965D01*
X142309551Y-63583688D01*
X142309546Y-63583699D01*
X142255319Y-63747347D01*
X142245000Y-63848345D01*
X142245000Y-63885000D01*
X141400499Y-63885000D01*
X141400499Y-63287128D01*
X141394091Y-63227517D01*
X141392813Y-63224091D01*
X141343797Y-63092671D01*
X141343793Y-63092664D01*
X141257547Y-62977455D01*
X141257544Y-62977452D01*
X141142335Y-62891206D01*
X141142328Y-62891202D01*
X141007482Y-62840908D01*
X141007483Y-62840908D01*
X140947883Y-62834501D01*
X140947881Y-62834500D01*
X140947873Y-62834500D01*
X140947864Y-62834500D01*
X138452129Y-62834500D01*
X138452123Y-62834501D01*
X138392516Y-62840908D01*
X138257671Y-62891202D01*
X138257664Y-62891206D01*
X138142455Y-62977452D01*
X138142452Y-62977455D01*
X138056206Y-63092664D01*
X138056202Y-63092671D01*
X138005908Y-63227517D01*
X137999501Y-63287116D01*
X137999501Y-63287123D01*
X137999500Y-63287135D01*
X137999500Y-63722570D01*
X137979815Y-63789609D01*
X137927011Y-63835364D01*
X137857853Y-63845308D01*
X137794297Y-63816283D01*
X137787819Y-63810251D01*
X136399319Y-62421751D01*
X136365834Y-62360428D01*
X136363000Y-62334070D01*
X136363000Y-59745005D01*
X138679859Y-59745005D01*
X138700385Y-59992729D01*
X138700387Y-59992738D01*
X138761412Y-60233717D01*
X138861266Y-60461364D01*
X138961564Y-60614882D01*
X139659070Y-59917376D01*
X139661884Y-59930915D01*
X139731442Y-60065156D01*
X139834638Y-60175652D01*
X139963819Y-60254209D01*
X140015002Y-60268549D01*
X139314942Y-60968609D01*
X139361768Y-61005055D01*
X139361770Y-61005056D01*
X139580385Y-61123364D01*
X139580396Y-61123369D01*
X139815506Y-61204083D01*
X140060707Y-61245000D01*
X140309293Y-61245000D01*
X140554493Y-61204083D01*
X140789603Y-61123369D01*
X140789614Y-61123364D01*
X141008228Y-61005057D01*
X141008231Y-61005055D01*
X141055056Y-60968609D01*
X140356568Y-60270121D01*
X140473458Y-60219349D01*
X140590739Y-60123934D01*
X140677928Y-60000415D01*
X140708354Y-59914802D01*
X141408434Y-60614882D01*
X141508731Y-60461369D01*
X141608587Y-60233717D01*
X141669612Y-59992738D01*
X141669614Y-59992729D01*
X141690141Y-59745005D01*
X145179859Y-59745005D01*
X145200385Y-59992729D01*
X145200387Y-59992738D01*
X145261412Y-60233717D01*
X145361266Y-60461364D01*
X145461564Y-60614882D01*
X146159070Y-59917376D01*
X146161884Y-59930915D01*
X146231442Y-60065156D01*
X146334638Y-60175652D01*
X146463819Y-60254209D01*
X146515002Y-60268549D01*
X145814942Y-60968609D01*
X145861768Y-61005055D01*
X145861770Y-61005056D01*
X146080385Y-61123364D01*
X146080396Y-61123369D01*
X146315506Y-61204083D01*
X146560707Y-61245000D01*
X146809293Y-61245000D01*
X147054493Y-61204083D01*
X147289603Y-61123369D01*
X147289614Y-61123364D01*
X147508228Y-61005057D01*
X147508231Y-61005055D01*
X147555056Y-60968609D01*
X146856568Y-60270121D01*
X146973458Y-60219349D01*
X147090739Y-60123934D01*
X147177928Y-60000415D01*
X147208354Y-59914802D01*
X147908434Y-60614882D01*
X148008731Y-60461369D01*
X148108587Y-60233717D01*
X148169612Y-59992738D01*
X148169614Y-59992729D01*
X148190141Y-59745005D01*
X148190141Y-59744994D01*
X148169614Y-59497270D01*
X148169612Y-59497261D01*
X148108587Y-59256282D01*
X148008731Y-59028630D01*
X147908434Y-58875116D01*
X147210929Y-59572622D01*
X147208116Y-59559085D01*
X147138558Y-59424844D01*
X147035362Y-59314348D01*
X146906181Y-59235791D01*
X146854997Y-59221450D01*
X147555057Y-58521390D01*
X147555056Y-58521389D01*
X147508229Y-58484943D01*
X147289614Y-58366635D01*
X147289603Y-58366630D01*
X147054493Y-58285916D01*
X146809293Y-58245000D01*
X146560707Y-58245000D01*
X146315506Y-58285916D01*
X146080396Y-58366630D01*
X146080390Y-58366632D01*
X145861761Y-58484949D01*
X145814942Y-58521388D01*
X145814942Y-58521390D01*
X146513431Y-59219878D01*
X146396542Y-59270651D01*
X146279261Y-59366066D01*
X146192072Y-59489585D01*
X146161645Y-59575197D01*
X145461564Y-58875116D01*
X145361267Y-59028632D01*
X145261412Y-59256282D01*
X145200387Y-59497261D01*
X145200385Y-59497270D01*
X145179859Y-59744994D01*
X145179859Y-59745005D01*
X141690141Y-59745005D01*
X141690141Y-59744994D01*
X141669614Y-59497270D01*
X141669612Y-59497261D01*
X141608587Y-59256282D01*
X141508731Y-59028630D01*
X141408434Y-58875116D01*
X140710929Y-59572622D01*
X140708116Y-59559085D01*
X140638558Y-59424844D01*
X140535362Y-59314348D01*
X140406181Y-59235791D01*
X140354997Y-59221450D01*
X141055057Y-58521390D01*
X141055056Y-58521389D01*
X141008229Y-58484943D01*
X140789614Y-58366635D01*
X140789603Y-58366630D01*
X140554493Y-58285916D01*
X140309293Y-58245000D01*
X140060707Y-58245000D01*
X139815506Y-58285916D01*
X139580396Y-58366630D01*
X139580390Y-58366632D01*
X139361761Y-58484949D01*
X139314942Y-58521388D01*
X139314942Y-58521390D01*
X140013431Y-59219878D01*
X139896542Y-59270651D01*
X139779261Y-59366066D01*
X139692072Y-59489585D01*
X139661645Y-59575197D01*
X138961564Y-58875116D01*
X138861267Y-59028632D01*
X138761412Y-59256282D01*
X138700387Y-59497261D01*
X138700385Y-59497270D01*
X138679859Y-59744994D01*
X138679859Y-59745005D01*
X136363000Y-59745005D01*
X136363000Y-58617052D01*
X136382685Y-58550013D01*
X136399319Y-58529371D01*
X136437319Y-58491371D01*
X136498642Y-58457886D01*
X136568334Y-58462870D01*
X136612681Y-58491371D01*
X136726650Y-58605340D01*
X136873484Y-58695908D01*
X137037247Y-58750174D01*
X137138323Y-58760500D01*
X137736676Y-58760499D01*
X137736684Y-58760498D01*
X137736687Y-58760498D01*
X137792030Y-58754844D01*
X137837753Y-58750174D01*
X138001516Y-58695908D01*
X138148350Y-58605340D01*
X138270340Y-58483350D01*
X138360908Y-58336516D01*
X138415174Y-58172753D01*
X138425500Y-58071677D01*
X138425499Y-57498324D01*
X138419133Y-57436008D01*
X138415174Y-57397247D01*
X138398577Y-57347161D01*
X138360908Y-57233484D01*
X138270340Y-57086650D01*
X138148350Y-56964660D01*
X138148347Y-56964657D01*
X138121901Y-56948345D01*
X138075178Y-56896397D01*
X138063000Y-56842808D01*
X138063000Y-56187191D01*
X138082685Y-56120152D01*
X138121904Y-56081652D01*
X138124599Y-56079989D01*
X138148350Y-56065340D01*
X138270340Y-55943350D01*
X138278942Y-55929404D01*
X138330890Y-55882679D01*
X138384481Y-55870500D01*
X138739850Y-55870500D01*
X138806889Y-55890185D01*
X138852644Y-55942989D01*
X138853405Y-55944689D01*
X138860824Y-55961603D01*
X138996833Y-56169782D01*
X138996836Y-56169785D01*
X139165256Y-56352738D01*
X139361491Y-56505474D01*
X139580190Y-56623828D01*
X139815386Y-56704571D01*
X140060665Y-56745500D01*
X140309335Y-56745500D01*
X140554614Y-56704571D01*
X140789810Y-56623828D01*
X141008509Y-56505474D01*
X141204744Y-56352738D01*
X141373164Y-56169785D01*
X141509173Y-55961607D01*
X141609063Y-55733881D01*
X141670108Y-55492821D01*
X141670109Y-55492812D01*
X141690643Y-55245005D01*
X141690643Y-55244994D01*
X141670109Y-54997187D01*
X141670107Y-54997175D01*
X141609063Y-54756118D01*
X141509173Y-54528393D01*
X141373166Y-54320217D01*
X141335982Y-54279825D01*
X141204744Y-54137262D01*
X141008509Y-53984526D01*
X141008507Y-53984525D01*
X141008506Y-53984524D01*
X140789811Y-53866172D01*
X140789802Y-53866169D01*
X140554616Y-53785429D01*
X140309335Y-53744500D01*
X140060665Y-53744500D01*
X139815383Y-53785429D01*
X139580197Y-53866169D01*
X139580188Y-53866172D01*
X139361493Y-53984524D01*
X139165257Y-54137261D01*
X138996833Y-54320217D01*
X138860824Y-54528396D01*
X138853405Y-54545311D01*
X138808449Y-54598797D01*
X138741713Y-54619486D01*
X138739850Y-54619500D01*
X138384481Y-54619500D01*
X138317442Y-54599815D01*
X138278942Y-54560596D01*
X138277908Y-54558920D01*
X138270340Y-54546650D01*
X138148350Y-54424660D01*
X138001516Y-54334092D01*
X137837753Y-54279826D01*
X137837751Y-54279825D01*
X137736678Y-54269500D01*
X137138330Y-54269500D01*
X137138312Y-54269501D01*
X137037247Y-54279825D01*
X136873484Y-54334092D01*
X136873481Y-54334093D01*
X136726648Y-54424661D01*
X136612681Y-54538629D01*
X136551358Y-54572114D01*
X136481666Y-54567130D01*
X136437319Y-54538629D01*
X136323351Y-54424661D01*
X136323350Y-54424660D01*
X136176516Y-54334092D01*
X136012753Y-54279826D01*
X136012751Y-54279825D01*
X135911678Y-54269500D01*
X135313330Y-54269500D01*
X135313312Y-54269501D01*
X135212247Y-54279825D01*
X135048484Y-54334092D01*
X135048481Y-54334093D01*
X134901648Y-54424661D01*
X134779661Y-54546648D01*
X134689093Y-54693481D01*
X134689092Y-54693484D01*
X134634826Y-54857247D01*
X134634826Y-54857248D01*
X134634825Y-54857248D01*
X134624500Y-54958315D01*
X134624500Y-55297046D01*
X134604815Y-55364085D01*
X134588181Y-55384727D01*
X133738728Y-56234181D01*
X133677405Y-56267666D01*
X133651047Y-56270500D01*
X130866453Y-56270500D01*
X130799414Y-56250815D01*
X130778772Y-56234181D01*
X128931819Y-54387228D01*
X128898334Y-54325905D01*
X128895500Y-54299547D01*
X128895500Y-52183665D01*
X128915185Y-52116626D01*
X128967989Y-52070871D01*
X129037147Y-52060927D01*
X129071914Y-52071287D01*
X129076513Y-52073432D01*
X129076516Y-52073433D01*
X129290000Y-52130634D01*
X129290000Y-51235501D01*
X129397685Y-51284680D01*
X129504237Y-51300000D01*
X129575763Y-51300000D01*
X129682315Y-51284680D01*
X129790000Y-51235501D01*
X129790000Y-52130633D01*
X130003483Y-52073433D01*
X130003492Y-52073429D01*
X130217578Y-51973600D01*
X130411082Y-51838105D01*
X130578105Y-51671082D01*
X130708119Y-51485405D01*
X130762696Y-51441781D01*
X130832195Y-51434588D01*
X130894549Y-51466110D01*
X130911269Y-51485405D01*
X131041505Y-51671401D01*
X131208599Y-51838495D01*
X131305384Y-51906265D01*
X131402165Y-51974032D01*
X131402167Y-51974033D01*
X131402170Y-51974035D01*
X131616337Y-52073903D01*
X131844592Y-52135063D01*
X132021034Y-52150500D01*
X132079999Y-52155659D01*
X132080000Y-52155659D01*
X132080001Y-52155659D01*
X132138966Y-52150500D01*
X132315408Y-52135063D01*
X132543663Y-52073903D01*
X132757830Y-51974035D01*
X132951401Y-51838495D01*
X133118495Y-51671401D01*
X133248425Y-51485842D01*
X133303002Y-51442217D01*
X133372500Y-51435023D01*
X133434855Y-51466546D01*
X133451575Y-51485842D01*
X133581500Y-51671395D01*
X133581505Y-51671401D01*
X133748599Y-51838495D01*
X133845384Y-51906265D01*
X133942165Y-51974032D01*
X133942167Y-51974033D01*
X133942170Y-51974035D01*
X134156337Y-52073903D01*
X134384592Y-52135063D01*
X134561034Y-52150500D01*
X134619999Y-52155659D01*
X134620000Y-52155659D01*
X134620001Y-52155659D01*
X134678966Y-52150500D01*
X134855408Y-52135063D01*
X135083663Y-52073903D01*
X135297830Y-51974035D01*
X135491401Y-51838495D01*
X135658495Y-51671401D01*
X135788425Y-51485842D01*
X135843002Y-51442217D01*
X135912500Y-51435023D01*
X135974855Y-51466546D01*
X135991575Y-51485842D01*
X136121500Y-51671395D01*
X136121505Y-51671401D01*
X136288599Y-51838495D01*
X136385384Y-51906265D01*
X136482165Y-51974032D01*
X136482167Y-51974033D01*
X136482170Y-51974035D01*
X136696337Y-52073903D01*
X136924592Y-52135063D01*
X137101034Y-52150500D01*
X137159999Y-52155659D01*
X137160000Y-52155659D01*
X137160001Y-52155659D01*
X137218966Y-52150500D01*
X137395408Y-52135063D01*
X137623663Y-52073903D01*
X137837830Y-51974035D01*
X138031401Y-51838495D01*
X138153329Y-51716566D01*
X138214648Y-51683084D01*
X138284340Y-51688068D01*
X138340274Y-51729939D01*
X138357189Y-51760917D01*
X138406202Y-51892328D01*
X138406206Y-51892335D01*
X138492452Y-52007544D01*
X138492455Y-52007547D01*
X138607664Y-52093793D01*
X138607671Y-52093797D01*
X138742517Y-52144091D01*
X138742516Y-52144091D01*
X138749444Y-52144835D01*
X138802127Y-52150500D01*
X140597872Y-52150499D01*
X140657483Y-52144091D01*
X140792331Y-52093796D01*
X140907546Y-52007546D01*
X140993796Y-51892331D01*
X141044091Y-51757483D01*
X141050500Y-51697873D01*
X141050499Y-49902128D01*
X141044091Y-49842517D01*
X141042810Y-49839083D01*
X140993797Y-49707671D01*
X140993793Y-49707664D01*
X140907547Y-49592455D01*
X140907544Y-49592452D01*
X140792335Y-49506206D01*
X140792328Y-49506202D01*
X140660917Y-49457189D01*
X140604983Y-49415318D01*
X140580566Y-49349853D01*
X140595418Y-49281580D01*
X140616563Y-49253332D01*
X140738495Y-49131401D01*
X140873652Y-48938377D01*
X140928229Y-48894752D01*
X140975227Y-48885500D01*
X141294448Y-48885500D01*
X141361487Y-48905185D01*
G37*
G04 #@! TD.AperFunction*
G04 #@! TA.AperFunction,Conductor*
G36*
X129733039Y-50080485D02*
G01*
X129778794Y-50133289D01*
X129790000Y-50184800D01*
X129790000Y-50364498D01*
X129682315Y-50315320D01*
X129575763Y-50300000D01*
X129504237Y-50300000D01*
X129397685Y-50315320D01*
X129290000Y-50364498D01*
X129290000Y-50284952D01*
X129309685Y-50217913D01*
X129326311Y-50197279D01*
X129426474Y-50097116D01*
X129487796Y-50063634D01*
X129514153Y-50060800D01*
X129666000Y-50060800D01*
X129733039Y-50080485D01*
G37*
G04 #@! TD.AperFunction*
G04 #@! TA.AperFunction,Conductor*
G36*
X129397685Y-48744680D02*
G01*
X129504237Y-48760000D01*
X129575763Y-48760000D01*
X129682315Y-48744680D01*
X129786710Y-48697003D01*
X129770315Y-48752839D01*
X129717511Y-48798594D01*
X129666000Y-48809800D01*
X129414000Y-48809800D01*
X129346961Y-48790115D01*
X129301206Y-48737311D01*
X129292343Y-48696571D01*
X129397685Y-48744680D01*
G37*
G04 #@! TD.AperFunction*
M02*
