M48
; DRILL file {KiCad 7.0.9-7.0.9~ubuntu20.04.1} date sre 20 dec 2023 18:48:24
; FORMAT={-:-/ absolute / metric / decimal}
; #@! TF.CreationDate,2023-12-20T18:48:24+01:00
; #@! TF.GenerationSoftware,Kicad,Pcbnew,7.0.9-7.0.9~ubuntu20.04.1
; #@! TF.FileFunction,Plated,1,2,PTH
FMAT,2
METRIC
; #@! TA.AperFunction,Plated,PTH,ViaDrill
T1C0.400
; #@! TA.AperFunction,Plated,PTH,ComponentDrill
T2C0.800
; #@! TA.AperFunction,Plated,PTH,ComponentDrill
T3C1.000
; #@! TA.AperFunction,Plated,PTH,ComponentDrill
T4C1.100
%
G90
G05
T1
X124.46Y-86.995
X125.095Y-53.975
X125.857Y-79.629
X125.857Y-85.471
X127.0Y-99.695
X127.635Y-78.74
X128.786Y-90.643
X130.288Y-77.32
X131.445Y-81.28
X132.695Y-90.998
X138.43Y-84.455
X141.312Y-80.833
X141.988Y-83.822
X142.875Y-52.07
T2
X139.7Y-64.135
X139.7Y-66.675
X139.7Y-69.215
X139.7Y-71.755
X139.7Y-74.295
X139.7Y-76.835
X139.7Y-79.375
X139.7Y-81.915
X139.7Y-86.995
X139.7Y-89.535
X139.7Y-92.075
X139.7Y-94.615
X139.7Y-97.155
X139.7Y-99.695
X139.7Y-102.235
X139.7Y-104.775
X147.32Y-64.135
X147.32Y-66.675
X147.32Y-69.215
X147.32Y-71.755
X147.32Y-74.295
X147.32Y-76.835
X147.32Y-79.375
X147.32Y-81.915
X147.32Y-86.995
X147.32Y-89.535
X147.32Y-92.075
X147.32Y-94.615
X147.32Y-97.155
X147.32Y-99.695
X147.32Y-102.235
X147.32Y-104.775
T3
X120.015Y-78.105
X120.015Y-80.645
X120.015Y-83.185
X120.015Y-85.725
X120.015Y-88.265
X120.015Y-90.805
X127.0Y-48.26
X127.0Y-50.8
X129.54Y-48.26
X129.54Y-50.8
X132.08Y-48.26
X132.08Y-50.8
X134.62Y-48.26
X134.62Y-50.8
X135.255Y-78.105
X135.255Y-80.645
X135.255Y-83.185
X135.255Y-85.725
X135.255Y-88.265
X135.255Y-90.805
X137.16Y-48.26
X137.16Y-50.8
X139.7Y-48.26
X139.7Y-50.8
T4
X140.185Y-55.245
X140.185Y-59.745
X140.335Y-109.165
X140.335Y-113.665
X146.685Y-55.245
X146.685Y-59.745
X146.835Y-109.165
X146.835Y-113.665
T0
M30
