%TF.GenerationSoftware,KiCad,Pcbnew,7.0.9-7.0.9~ubuntu20.04.1*%
%TF.CreationDate,2023-12-20T19:17:53+01:00*%
%TF.ProjectId,kicad-pmod_7seg,6b696361-642d-4706-9d6f-645f37736567,1.0*%
%TF.SameCoordinates,Original*%
%TF.FileFunction,Drillmap*%
%TF.FilePolarity,Positive*%
%FSLAX45Y45*%
G04 Gerber Fmt 4.5, Leading zero omitted, Abs format (unit mm)*
G04 Created by KiCad (PCBNEW 7.0.9-7.0.9~ubuntu20.04.1) date 2023-12-20 19:17:53*
%MOMM*%
%LPD*%
G01*
G04 APERTURE LIST*
%ADD10C,0.100000*%
%ADD11C,0.200000*%
%ADD12C,0.110000*%
G04 APERTURE END LIST*
D10*
X14986000Y-12115800D02*
X14986000Y-4495800D01*
X11760200Y-4419600D02*
G75*
G03*
X11684000Y-4495800I0J-76200D01*
G01*
X14909800Y-12192000D02*
G75*
G03*
X14986000Y-12115800I0J76200D01*
G01*
X11760200Y-12192000D02*
X14909800Y-12192000D01*
X11684000Y-4495800D02*
X11684000Y-12115800D01*
X14986000Y-4495800D02*
G75*
G03*
X14909800Y-4419600I-76200J0D01*
G01*
X11684000Y-12115800D02*
G75*
G03*
X11760200Y-12192000I76200J0D01*
G01*
X14909800Y-4419600D02*
X11760200Y-4419600D01*
D11*
D10*
X12426000Y-8679500D02*
X12466000Y-8719500D01*
X12466000Y-8679500D02*
X12426000Y-8719500D01*
X12489500Y-5377500D02*
X12529500Y-5417500D01*
X12529500Y-5377500D02*
X12489500Y-5417500D01*
X12565700Y-7942900D02*
X12605700Y-7982900D01*
X12605700Y-7942900D02*
X12565700Y-7982900D01*
X12565700Y-8527100D02*
X12605700Y-8567100D01*
X12605700Y-8527100D02*
X12565700Y-8567100D01*
X12680000Y-9949500D02*
X12720000Y-9989500D01*
X12720000Y-9949500D02*
X12680000Y-9989500D01*
X12743500Y-7854000D02*
X12783500Y-7894000D01*
X12783500Y-7854000D02*
X12743500Y-7894000D01*
X12858610Y-9044260D02*
X12898610Y-9084260D01*
X12898610Y-9044260D02*
X12858610Y-9084260D01*
X13008820Y-7711970D02*
X13048820Y-7751970D01*
X13048820Y-7711970D02*
X13008820Y-7751970D01*
X13124500Y-8108000D02*
X13164500Y-8148000D01*
X13164500Y-8108000D02*
X13124500Y-8148000D01*
X13249450Y-9079810D02*
X13289450Y-9119810D01*
X13289450Y-9079810D02*
X13249450Y-9119810D01*
X13823000Y-8425500D02*
X13863000Y-8465500D01*
X13863000Y-8425500D02*
X13823000Y-8465500D01*
X14111230Y-8063340D02*
X14151230Y-8103340D01*
X14151230Y-8063340D02*
X14111230Y-8103340D01*
X14178840Y-8362240D02*
X14218840Y-8402240D01*
X14218840Y-8362240D02*
X14178840Y-8402240D01*
X14267500Y-5187000D02*
X14307500Y-5227000D01*
X14307500Y-5187000D02*
X14267500Y-5227000D01*
X14010000Y-6413500D02*
G75*
G03*
X14010000Y-6413500I-40000J0D01*
G01*
X14010000Y-6667500D02*
G75*
G03*
X14010000Y-6667500I-40000J0D01*
G01*
X14010000Y-6921500D02*
G75*
G03*
X14010000Y-6921500I-40000J0D01*
G01*
X14010000Y-7175500D02*
G75*
G03*
X14010000Y-7175500I-40000J0D01*
G01*
X14010000Y-7429500D02*
G75*
G03*
X14010000Y-7429500I-40000J0D01*
G01*
X14010000Y-7683500D02*
G75*
G03*
X14010000Y-7683500I-40000J0D01*
G01*
X14010000Y-7937500D02*
G75*
G03*
X14010000Y-7937500I-40000J0D01*
G01*
X14010000Y-8191500D02*
G75*
G03*
X14010000Y-8191500I-40000J0D01*
G01*
X14010000Y-8699500D02*
G75*
G03*
X14010000Y-8699500I-40000J0D01*
G01*
X14010000Y-8953500D02*
G75*
G03*
X14010000Y-8953500I-40000J0D01*
G01*
X14010000Y-9207500D02*
G75*
G03*
X14010000Y-9207500I-40000J0D01*
G01*
X14010000Y-9461500D02*
G75*
G03*
X14010000Y-9461500I-40000J0D01*
G01*
X14010000Y-9715500D02*
G75*
G03*
X14010000Y-9715500I-40000J0D01*
G01*
X14010000Y-9969500D02*
G75*
G03*
X14010000Y-9969500I-40000J0D01*
G01*
X14010000Y-10223500D02*
G75*
G03*
X14010000Y-10223500I-40000J0D01*
G01*
X14010000Y-10477500D02*
G75*
G03*
X14010000Y-10477500I-40000J0D01*
G01*
X14772000Y-6413500D02*
G75*
G03*
X14772000Y-6413500I-40000J0D01*
G01*
X14772000Y-6667500D02*
G75*
G03*
X14772000Y-6667500I-40000J0D01*
G01*
X14772000Y-6921500D02*
G75*
G03*
X14772000Y-6921500I-40000J0D01*
G01*
X14772000Y-7175500D02*
G75*
G03*
X14772000Y-7175500I-40000J0D01*
G01*
X14772000Y-7429500D02*
G75*
G03*
X14772000Y-7429500I-40000J0D01*
G01*
X14772000Y-7683500D02*
G75*
G03*
X14772000Y-7683500I-40000J0D01*
G01*
X14772000Y-7937500D02*
G75*
G03*
X14772000Y-7937500I-40000J0D01*
G01*
X14772000Y-8191500D02*
G75*
G03*
X14772000Y-8191500I-40000J0D01*
G01*
X14772000Y-8699500D02*
G75*
G03*
X14772000Y-8699500I-40000J0D01*
G01*
X14772000Y-8953500D02*
G75*
G03*
X14772000Y-8953500I-40000J0D01*
G01*
X14772000Y-9207500D02*
G75*
G03*
X14772000Y-9207500I-40000J0D01*
G01*
X14772000Y-9461500D02*
G75*
G03*
X14772000Y-9461500I-40000J0D01*
G01*
X14772000Y-9715500D02*
G75*
G03*
X14772000Y-9715500I-40000J0D01*
G01*
X14772000Y-9969500D02*
G75*
G03*
X14772000Y-9969500I-40000J0D01*
G01*
X14772000Y-10223500D02*
G75*
G03*
X14772000Y-10223500I-40000J0D01*
G01*
X14772000Y-10477500D02*
G75*
G03*
X14772000Y-10477500I-40000J0D01*
G01*
X12001500Y-7760500D02*
X12001500Y-7860500D01*
X11951500Y-7810500D02*
X12051500Y-7810500D01*
X12001500Y-8014500D02*
X12001500Y-8114500D01*
X11951500Y-8064500D02*
X12051500Y-8064500D01*
X12001500Y-8268500D02*
X12001500Y-8368500D01*
X11951500Y-8318500D02*
X12051500Y-8318500D01*
X12001500Y-8522500D02*
X12001500Y-8622500D01*
X11951500Y-8572500D02*
X12051500Y-8572500D01*
X12001500Y-8776500D02*
X12001500Y-8876500D01*
X11951500Y-8826500D02*
X12051500Y-8826500D01*
X12001500Y-9030500D02*
X12001500Y-9130500D01*
X11951500Y-9080500D02*
X12051500Y-9080500D01*
X12700000Y-4776000D02*
X12700000Y-4876000D01*
X12650000Y-4826000D02*
X12750000Y-4826000D01*
X12700000Y-5030000D02*
X12700000Y-5130000D01*
X12650000Y-5080000D02*
X12750000Y-5080000D01*
X12954000Y-4776000D02*
X12954000Y-4876000D01*
X12904000Y-4826000D02*
X13004000Y-4826000D01*
X12954000Y-5030000D02*
X12954000Y-5130000D01*
X12904000Y-5080000D02*
X13004000Y-5080000D01*
X13208000Y-4776000D02*
X13208000Y-4876000D01*
X13158000Y-4826000D02*
X13258000Y-4826000D01*
X13208000Y-5030000D02*
X13208000Y-5130000D01*
X13158000Y-5080000D02*
X13258000Y-5080000D01*
X13462000Y-4776000D02*
X13462000Y-4876000D01*
X13412000Y-4826000D02*
X13512000Y-4826000D01*
X13462000Y-5030000D02*
X13462000Y-5130000D01*
X13412000Y-5080000D02*
X13512000Y-5080000D01*
X13525500Y-7760500D02*
X13525500Y-7860500D01*
X13475500Y-7810500D02*
X13575500Y-7810500D01*
X13525500Y-8014500D02*
X13525500Y-8114500D01*
X13475500Y-8064500D02*
X13575500Y-8064500D01*
X13525500Y-8268500D02*
X13525500Y-8368500D01*
X13475500Y-8318500D02*
X13575500Y-8318500D01*
X13525500Y-8522500D02*
X13525500Y-8622500D01*
X13475500Y-8572500D02*
X13575500Y-8572500D01*
X13525500Y-8776500D02*
X13525500Y-8876500D01*
X13475500Y-8826500D02*
X13575500Y-8826500D01*
X13525500Y-9030500D02*
X13525500Y-9130500D01*
X13475500Y-9080500D02*
X13575500Y-9080500D01*
X13716000Y-4776000D02*
X13716000Y-4876000D01*
X13666000Y-4826000D02*
X13766000Y-4826000D01*
X13716000Y-5030000D02*
X13716000Y-5130000D01*
X13666000Y-5080000D02*
X13766000Y-5080000D01*
X13970000Y-4776000D02*
X13970000Y-4876000D01*
X13920000Y-4826000D02*
X14020000Y-4826000D01*
X13970000Y-5030000D02*
X13970000Y-5130000D01*
X13920000Y-5080000D02*
X14020000Y-5080000D01*
D12*
X14057391Y-5563391D02*
X14057391Y-5485609D01*
X13979609Y-5485609D01*
X13979609Y-5563391D01*
X14057391Y-5563391D01*
X14057391Y-6013391D02*
X14057391Y-5935609D01*
X13979609Y-5935609D01*
X13979609Y-6013391D01*
X14057391Y-6013391D01*
X14072391Y-10955391D02*
X14072391Y-10877609D01*
X13994609Y-10877609D01*
X13994609Y-10955391D01*
X14072391Y-10955391D01*
X14072391Y-11405391D02*
X14072391Y-11327609D01*
X13994609Y-11327609D01*
X13994609Y-11405391D01*
X14072391Y-11405391D01*
X14707391Y-5563391D02*
X14707391Y-5485609D01*
X14629609Y-5485609D01*
X14629609Y-5563391D01*
X14707391Y-5563391D01*
X14707391Y-6013391D02*
X14707391Y-5935609D01*
X14629609Y-5935609D01*
X14629609Y-6013391D01*
X14707391Y-6013391D01*
X14722391Y-10955391D02*
X14722391Y-10877609D01*
X14644609Y-10877609D01*
X14644609Y-10955391D01*
X14722391Y-10955391D01*
X14722391Y-11405391D02*
X14722391Y-11327609D01*
X14644609Y-11327609D01*
X14644609Y-11405391D01*
X14722391Y-11405391D01*
D11*
X11939777Y-12508484D02*
X11939777Y-12308484D01*
X11939777Y-12308484D02*
X11987396Y-12308484D01*
X11987396Y-12308484D02*
X12015967Y-12318008D01*
X12015967Y-12318008D02*
X12035015Y-12337055D01*
X12035015Y-12337055D02*
X12044539Y-12356103D01*
X12044539Y-12356103D02*
X12054062Y-12394198D01*
X12054062Y-12394198D02*
X12054062Y-12422769D01*
X12054062Y-12422769D02*
X12044539Y-12460865D01*
X12044539Y-12460865D02*
X12035015Y-12479912D01*
X12035015Y-12479912D02*
X12015967Y-12498960D01*
X12015967Y-12498960D02*
X11987396Y-12508484D01*
X11987396Y-12508484D02*
X11939777Y-12508484D01*
X12139777Y-12508484D02*
X12139777Y-12375150D01*
X12139777Y-12413246D02*
X12149301Y-12394198D01*
X12149301Y-12394198D02*
X12158824Y-12384674D01*
X12158824Y-12384674D02*
X12177872Y-12375150D01*
X12177872Y-12375150D02*
X12196920Y-12375150D01*
X12263586Y-12508484D02*
X12263586Y-12375150D01*
X12263586Y-12308484D02*
X12254062Y-12318008D01*
X12254062Y-12318008D02*
X12263586Y-12327531D01*
X12263586Y-12327531D02*
X12273110Y-12318008D01*
X12273110Y-12318008D02*
X12263586Y-12308484D01*
X12263586Y-12308484D02*
X12263586Y-12327531D01*
X12387396Y-12508484D02*
X12368348Y-12498960D01*
X12368348Y-12498960D02*
X12358824Y-12479912D01*
X12358824Y-12479912D02*
X12358824Y-12308484D01*
X12492158Y-12508484D02*
X12473110Y-12498960D01*
X12473110Y-12498960D02*
X12463586Y-12479912D01*
X12463586Y-12479912D02*
X12463586Y-12308484D01*
X12720729Y-12508484D02*
X12720729Y-12308484D01*
X12720729Y-12308484D02*
X12787396Y-12451341D01*
X12787396Y-12451341D02*
X12854062Y-12308484D01*
X12854062Y-12308484D02*
X12854062Y-12508484D01*
X13035015Y-12508484D02*
X13035015Y-12403722D01*
X13035015Y-12403722D02*
X13025491Y-12384674D01*
X13025491Y-12384674D02*
X13006443Y-12375150D01*
X13006443Y-12375150D02*
X12968348Y-12375150D01*
X12968348Y-12375150D02*
X12949301Y-12384674D01*
X13035015Y-12498960D02*
X13015967Y-12508484D01*
X13015967Y-12508484D02*
X12968348Y-12508484D01*
X12968348Y-12508484D02*
X12949301Y-12498960D01*
X12949301Y-12498960D02*
X12939777Y-12479912D01*
X12939777Y-12479912D02*
X12939777Y-12460865D01*
X12939777Y-12460865D02*
X12949301Y-12441817D01*
X12949301Y-12441817D02*
X12968348Y-12432293D01*
X12968348Y-12432293D02*
X13015967Y-12432293D01*
X13015967Y-12432293D02*
X13035015Y-12422769D01*
X13130253Y-12375150D02*
X13130253Y-12575150D01*
X13130253Y-12384674D02*
X13149301Y-12375150D01*
X13149301Y-12375150D02*
X13187396Y-12375150D01*
X13187396Y-12375150D02*
X13206443Y-12384674D01*
X13206443Y-12384674D02*
X13215967Y-12394198D01*
X13215967Y-12394198D02*
X13225491Y-12413246D01*
X13225491Y-12413246D02*
X13225491Y-12470388D01*
X13225491Y-12470388D02*
X13215967Y-12489436D01*
X13215967Y-12489436D02*
X13206443Y-12498960D01*
X13206443Y-12498960D02*
X13187396Y-12508484D01*
X13187396Y-12508484D02*
X13149301Y-12508484D01*
X13149301Y-12508484D02*
X13130253Y-12498960D01*
X13311205Y-12489436D02*
X13320729Y-12498960D01*
X13320729Y-12498960D02*
X13311205Y-12508484D01*
X13311205Y-12508484D02*
X13301682Y-12498960D01*
X13301682Y-12498960D02*
X13311205Y-12489436D01*
X13311205Y-12489436D02*
X13311205Y-12508484D01*
X13311205Y-12384674D02*
X13320729Y-12394198D01*
X13320729Y-12394198D02*
X13311205Y-12403722D01*
X13311205Y-12403722D02*
X13301682Y-12394198D01*
X13301682Y-12394198D02*
X13311205Y-12384674D01*
X13311205Y-12384674D02*
X13311205Y-12403722D01*
D10*
X11639000Y-12817000D02*
X11679000Y-12857000D01*
X11679000Y-12817000D02*
X11639000Y-12857000D01*
D11*
X11977872Y-12728484D02*
X11996920Y-12728484D01*
X11996920Y-12728484D02*
X12015967Y-12738008D01*
X12015967Y-12738008D02*
X12025491Y-12747531D01*
X12025491Y-12747531D02*
X12035015Y-12766579D01*
X12035015Y-12766579D02*
X12044539Y-12804674D01*
X12044539Y-12804674D02*
X12044539Y-12852293D01*
X12044539Y-12852293D02*
X12035015Y-12890388D01*
X12035015Y-12890388D02*
X12025491Y-12909436D01*
X12025491Y-12909436D02*
X12015967Y-12918960D01*
X12015967Y-12918960D02*
X11996920Y-12928484D01*
X11996920Y-12928484D02*
X11977872Y-12928484D01*
X11977872Y-12928484D02*
X11958824Y-12918960D01*
X11958824Y-12918960D02*
X11949301Y-12909436D01*
X11949301Y-12909436D02*
X11939777Y-12890388D01*
X11939777Y-12890388D02*
X11930253Y-12852293D01*
X11930253Y-12852293D02*
X11930253Y-12804674D01*
X11930253Y-12804674D02*
X11939777Y-12766579D01*
X11939777Y-12766579D02*
X11949301Y-12747531D01*
X11949301Y-12747531D02*
X11958824Y-12738008D01*
X11958824Y-12738008D02*
X11977872Y-12728484D01*
X12130253Y-12909436D02*
X12139777Y-12918960D01*
X12139777Y-12918960D02*
X12130253Y-12928484D01*
X12130253Y-12928484D02*
X12120729Y-12918960D01*
X12120729Y-12918960D02*
X12130253Y-12909436D01*
X12130253Y-12909436D02*
X12130253Y-12928484D01*
X12311205Y-12795150D02*
X12311205Y-12928484D01*
X12263586Y-12718960D02*
X12215967Y-12861817D01*
X12215967Y-12861817D02*
X12339777Y-12861817D01*
X12454062Y-12728484D02*
X12473110Y-12728484D01*
X12473110Y-12728484D02*
X12492158Y-12738008D01*
X12492158Y-12738008D02*
X12501682Y-12747531D01*
X12501682Y-12747531D02*
X12511205Y-12766579D01*
X12511205Y-12766579D02*
X12520729Y-12804674D01*
X12520729Y-12804674D02*
X12520729Y-12852293D01*
X12520729Y-12852293D02*
X12511205Y-12890388D01*
X12511205Y-12890388D02*
X12501682Y-12909436D01*
X12501682Y-12909436D02*
X12492158Y-12918960D01*
X12492158Y-12918960D02*
X12473110Y-12928484D01*
X12473110Y-12928484D02*
X12454062Y-12928484D01*
X12454062Y-12928484D02*
X12435015Y-12918960D01*
X12435015Y-12918960D02*
X12425491Y-12909436D01*
X12425491Y-12909436D02*
X12415967Y-12890388D01*
X12415967Y-12890388D02*
X12406443Y-12852293D01*
X12406443Y-12852293D02*
X12406443Y-12804674D01*
X12406443Y-12804674D02*
X12415967Y-12766579D01*
X12415967Y-12766579D02*
X12425491Y-12747531D01*
X12425491Y-12747531D02*
X12435015Y-12738008D01*
X12435015Y-12738008D02*
X12454062Y-12728484D01*
X12644539Y-12728484D02*
X12663586Y-12728484D01*
X12663586Y-12728484D02*
X12682634Y-12738008D01*
X12682634Y-12738008D02*
X12692158Y-12747531D01*
X12692158Y-12747531D02*
X12701682Y-12766579D01*
X12701682Y-12766579D02*
X12711205Y-12804674D01*
X12711205Y-12804674D02*
X12711205Y-12852293D01*
X12711205Y-12852293D02*
X12701682Y-12890388D01*
X12701682Y-12890388D02*
X12692158Y-12909436D01*
X12692158Y-12909436D02*
X12682634Y-12918960D01*
X12682634Y-12918960D02*
X12663586Y-12928484D01*
X12663586Y-12928484D02*
X12644539Y-12928484D01*
X12644539Y-12928484D02*
X12625491Y-12918960D01*
X12625491Y-12918960D02*
X12615967Y-12909436D01*
X12615967Y-12909436D02*
X12606443Y-12890388D01*
X12606443Y-12890388D02*
X12596920Y-12852293D01*
X12596920Y-12852293D02*
X12596920Y-12804674D01*
X12596920Y-12804674D02*
X12606443Y-12766579D01*
X12606443Y-12766579D02*
X12615967Y-12747531D01*
X12615967Y-12747531D02*
X12625491Y-12738008D01*
X12625491Y-12738008D02*
X12644539Y-12728484D01*
X12796920Y-12928484D02*
X12796920Y-12795150D01*
X12796920Y-12814198D02*
X12806443Y-12804674D01*
X12806443Y-12804674D02*
X12825491Y-12795150D01*
X12825491Y-12795150D02*
X12854063Y-12795150D01*
X12854063Y-12795150D02*
X12873110Y-12804674D01*
X12873110Y-12804674D02*
X12882634Y-12823722D01*
X12882634Y-12823722D02*
X12882634Y-12928484D01*
X12882634Y-12823722D02*
X12892158Y-12804674D01*
X12892158Y-12804674D02*
X12911205Y-12795150D01*
X12911205Y-12795150D02*
X12939777Y-12795150D01*
X12939777Y-12795150D02*
X12958824Y-12804674D01*
X12958824Y-12804674D02*
X12968348Y-12823722D01*
X12968348Y-12823722D02*
X12968348Y-12928484D01*
X13063586Y-12928484D02*
X13063586Y-12795150D01*
X13063586Y-12814198D02*
X13073110Y-12804674D01*
X13073110Y-12804674D02*
X13092158Y-12795150D01*
X13092158Y-12795150D02*
X13120729Y-12795150D01*
X13120729Y-12795150D02*
X13139777Y-12804674D01*
X13139777Y-12804674D02*
X13149301Y-12823722D01*
X13149301Y-12823722D02*
X13149301Y-12928484D01*
X13149301Y-12823722D02*
X13158824Y-12804674D01*
X13158824Y-12804674D02*
X13177872Y-12795150D01*
X13177872Y-12795150D02*
X13206443Y-12795150D01*
X13206443Y-12795150D02*
X13225491Y-12804674D01*
X13225491Y-12804674D02*
X13235015Y-12823722D01*
X13235015Y-12823722D02*
X13235015Y-12928484D01*
X13625491Y-12718960D02*
X13454063Y-12976103D01*
X13882634Y-12728484D02*
X13901682Y-12728484D01*
X13901682Y-12728484D02*
X13920729Y-12738008D01*
X13920729Y-12738008D02*
X13930253Y-12747531D01*
X13930253Y-12747531D02*
X13939777Y-12766579D01*
X13939777Y-12766579D02*
X13949301Y-12804674D01*
X13949301Y-12804674D02*
X13949301Y-12852293D01*
X13949301Y-12852293D02*
X13939777Y-12890388D01*
X13939777Y-12890388D02*
X13930253Y-12909436D01*
X13930253Y-12909436D02*
X13920729Y-12918960D01*
X13920729Y-12918960D02*
X13901682Y-12928484D01*
X13901682Y-12928484D02*
X13882634Y-12928484D01*
X13882634Y-12928484D02*
X13863586Y-12918960D01*
X13863586Y-12918960D02*
X13854063Y-12909436D01*
X13854063Y-12909436D02*
X13844539Y-12890388D01*
X13844539Y-12890388D02*
X13835015Y-12852293D01*
X13835015Y-12852293D02*
X13835015Y-12804674D01*
X13835015Y-12804674D02*
X13844539Y-12766579D01*
X13844539Y-12766579D02*
X13854063Y-12747531D01*
X13854063Y-12747531D02*
X13863586Y-12738008D01*
X13863586Y-12738008D02*
X13882634Y-12728484D01*
X14035015Y-12909436D02*
X14044539Y-12918960D01*
X14044539Y-12918960D02*
X14035015Y-12928484D01*
X14035015Y-12928484D02*
X14025491Y-12918960D01*
X14025491Y-12918960D02*
X14035015Y-12909436D01*
X14035015Y-12909436D02*
X14035015Y-12928484D01*
X14168348Y-12728484D02*
X14187396Y-12728484D01*
X14187396Y-12728484D02*
X14206444Y-12738008D01*
X14206444Y-12738008D02*
X14215967Y-12747531D01*
X14215967Y-12747531D02*
X14225491Y-12766579D01*
X14225491Y-12766579D02*
X14235015Y-12804674D01*
X14235015Y-12804674D02*
X14235015Y-12852293D01*
X14235015Y-12852293D02*
X14225491Y-12890388D01*
X14225491Y-12890388D02*
X14215967Y-12909436D01*
X14215967Y-12909436D02*
X14206444Y-12918960D01*
X14206444Y-12918960D02*
X14187396Y-12928484D01*
X14187396Y-12928484D02*
X14168348Y-12928484D01*
X14168348Y-12928484D02*
X14149301Y-12918960D01*
X14149301Y-12918960D02*
X14139777Y-12909436D01*
X14139777Y-12909436D02*
X14130253Y-12890388D01*
X14130253Y-12890388D02*
X14120729Y-12852293D01*
X14120729Y-12852293D02*
X14120729Y-12804674D01*
X14120729Y-12804674D02*
X14130253Y-12766579D01*
X14130253Y-12766579D02*
X14139777Y-12747531D01*
X14139777Y-12747531D02*
X14149301Y-12738008D01*
X14149301Y-12738008D02*
X14168348Y-12728484D01*
X14425491Y-12928484D02*
X14311206Y-12928484D01*
X14368348Y-12928484D02*
X14368348Y-12728484D01*
X14368348Y-12728484D02*
X14349301Y-12757055D01*
X14349301Y-12757055D02*
X14330253Y-12776103D01*
X14330253Y-12776103D02*
X14311206Y-12785627D01*
X14606444Y-12728484D02*
X14511206Y-12728484D01*
X14511206Y-12728484D02*
X14501682Y-12823722D01*
X14501682Y-12823722D02*
X14511206Y-12814198D01*
X14511206Y-12814198D02*
X14530253Y-12804674D01*
X14530253Y-12804674D02*
X14577872Y-12804674D01*
X14577872Y-12804674D02*
X14596920Y-12814198D01*
X14596920Y-12814198D02*
X14606444Y-12823722D01*
X14606444Y-12823722D02*
X14615967Y-12842769D01*
X14615967Y-12842769D02*
X14615967Y-12890388D01*
X14615967Y-12890388D02*
X14606444Y-12909436D01*
X14606444Y-12909436D02*
X14596920Y-12918960D01*
X14596920Y-12918960D02*
X14577872Y-12928484D01*
X14577872Y-12928484D02*
X14530253Y-12928484D01*
X14530253Y-12928484D02*
X14511206Y-12918960D01*
X14511206Y-12918960D02*
X14501682Y-12909436D01*
X14682634Y-12728484D02*
X14815967Y-12728484D01*
X14815967Y-12728484D02*
X14730253Y-12928484D01*
X14882634Y-12728484D02*
X14882634Y-12766579D01*
X14958825Y-12728484D02*
X14958825Y-12766579D01*
X15254063Y-13004674D02*
X15244539Y-12995150D01*
X15244539Y-12995150D02*
X15225491Y-12966579D01*
X15225491Y-12966579D02*
X15215968Y-12947531D01*
X15215968Y-12947531D02*
X15206444Y-12918960D01*
X15206444Y-12918960D02*
X15196920Y-12871341D01*
X15196920Y-12871341D02*
X15196920Y-12833246D01*
X15196920Y-12833246D02*
X15206444Y-12785627D01*
X15206444Y-12785627D02*
X15215968Y-12757055D01*
X15215968Y-12757055D02*
X15225491Y-12738008D01*
X15225491Y-12738008D02*
X15244539Y-12709436D01*
X15244539Y-12709436D02*
X15254063Y-12699912D01*
X15435015Y-12928484D02*
X15320729Y-12928484D01*
X15377872Y-12928484D02*
X15377872Y-12728484D01*
X15377872Y-12728484D02*
X15358825Y-12757055D01*
X15358825Y-12757055D02*
X15339777Y-12776103D01*
X15339777Y-12776103D02*
X15320729Y-12785627D01*
X15606444Y-12795150D02*
X15606444Y-12928484D01*
X15558825Y-12718960D02*
X15511206Y-12861817D01*
X15511206Y-12861817D02*
X15635015Y-12861817D01*
X15863587Y-12928484D02*
X15863587Y-12728484D01*
X15949301Y-12928484D02*
X15949301Y-12823722D01*
X15949301Y-12823722D02*
X15939777Y-12804674D01*
X15939777Y-12804674D02*
X15920730Y-12795150D01*
X15920730Y-12795150D02*
X15892158Y-12795150D01*
X15892158Y-12795150D02*
X15873110Y-12804674D01*
X15873110Y-12804674D02*
X15863587Y-12814198D01*
X16073110Y-12928484D02*
X16054063Y-12918960D01*
X16054063Y-12918960D02*
X16044539Y-12909436D01*
X16044539Y-12909436D02*
X16035015Y-12890388D01*
X16035015Y-12890388D02*
X16035015Y-12833246D01*
X16035015Y-12833246D02*
X16044539Y-12814198D01*
X16044539Y-12814198D02*
X16054063Y-12804674D01*
X16054063Y-12804674D02*
X16073110Y-12795150D01*
X16073110Y-12795150D02*
X16101682Y-12795150D01*
X16101682Y-12795150D02*
X16120730Y-12804674D01*
X16120730Y-12804674D02*
X16130253Y-12814198D01*
X16130253Y-12814198D02*
X16139777Y-12833246D01*
X16139777Y-12833246D02*
X16139777Y-12890388D01*
X16139777Y-12890388D02*
X16130253Y-12909436D01*
X16130253Y-12909436D02*
X16120730Y-12918960D01*
X16120730Y-12918960D02*
X16101682Y-12928484D01*
X16101682Y-12928484D02*
X16073110Y-12928484D01*
X16254063Y-12928484D02*
X16235015Y-12918960D01*
X16235015Y-12918960D02*
X16225491Y-12899912D01*
X16225491Y-12899912D02*
X16225491Y-12728484D01*
X16406444Y-12918960D02*
X16387396Y-12928484D01*
X16387396Y-12928484D02*
X16349301Y-12928484D01*
X16349301Y-12928484D02*
X16330253Y-12918960D01*
X16330253Y-12918960D02*
X16320730Y-12899912D01*
X16320730Y-12899912D02*
X16320730Y-12823722D01*
X16320730Y-12823722D02*
X16330253Y-12804674D01*
X16330253Y-12804674D02*
X16349301Y-12795150D01*
X16349301Y-12795150D02*
X16387396Y-12795150D01*
X16387396Y-12795150D02*
X16406444Y-12804674D01*
X16406444Y-12804674D02*
X16415968Y-12823722D01*
X16415968Y-12823722D02*
X16415968Y-12842769D01*
X16415968Y-12842769D02*
X16320730Y-12861817D01*
X16492158Y-12918960D02*
X16511206Y-12928484D01*
X16511206Y-12928484D02*
X16549301Y-12928484D01*
X16549301Y-12928484D02*
X16568349Y-12918960D01*
X16568349Y-12918960D02*
X16577872Y-12899912D01*
X16577872Y-12899912D02*
X16577872Y-12890388D01*
X16577872Y-12890388D02*
X16568349Y-12871341D01*
X16568349Y-12871341D02*
X16549301Y-12861817D01*
X16549301Y-12861817D02*
X16520730Y-12861817D01*
X16520730Y-12861817D02*
X16501682Y-12852293D01*
X16501682Y-12852293D02*
X16492158Y-12833246D01*
X16492158Y-12833246D02*
X16492158Y-12823722D01*
X16492158Y-12823722D02*
X16501682Y-12804674D01*
X16501682Y-12804674D02*
X16520730Y-12795150D01*
X16520730Y-12795150D02*
X16549301Y-12795150D01*
X16549301Y-12795150D02*
X16568349Y-12804674D01*
X16644539Y-13004674D02*
X16654063Y-12995150D01*
X16654063Y-12995150D02*
X16673111Y-12966579D01*
X16673111Y-12966579D02*
X16682634Y-12947531D01*
X16682634Y-12947531D02*
X16692158Y-12918960D01*
X16692158Y-12918960D02*
X16701682Y-12871341D01*
X16701682Y-12871341D02*
X16701682Y-12833246D01*
X16701682Y-12833246D02*
X16692158Y-12785627D01*
X16692158Y-12785627D02*
X16682634Y-12757055D01*
X16682634Y-12757055D02*
X16673111Y-12738008D01*
X16673111Y-12738008D02*
X16654063Y-12709436D01*
X16654063Y-12709436D02*
X16644539Y-12699912D01*
D10*
X11679000Y-13101000D02*
G75*
G03*
X11679000Y-13101000I-40000J0D01*
G01*
D11*
X11977872Y-12992484D02*
X11996920Y-12992484D01*
X11996920Y-12992484D02*
X12015967Y-13002008D01*
X12015967Y-13002008D02*
X12025491Y-13011531D01*
X12025491Y-13011531D02*
X12035015Y-13030579D01*
X12035015Y-13030579D02*
X12044539Y-13068674D01*
X12044539Y-13068674D02*
X12044539Y-13116293D01*
X12044539Y-13116293D02*
X12035015Y-13154388D01*
X12035015Y-13154388D02*
X12025491Y-13173436D01*
X12025491Y-13173436D02*
X12015967Y-13182960D01*
X12015967Y-13182960D02*
X11996920Y-13192484D01*
X11996920Y-13192484D02*
X11977872Y-13192484D01*
X11977872Y-13192484D02*
X11958824Y-13182960D01*
X11958824Y-13182960D02*
X11949301Y-13173436D01*
X11949301Y-13173436D02*
X11939777Y-13154388D01*
X11939777Y-13154388D02*
X11930253Y-13116293D01*
X11930253Y-13116293D02*
X11930253Y-13068674D01*
X11930253Y-13068674D02*
X11939777Y-13030579D01*
X11939777Y-13030579D02*
X11949301Y-13011531D01*
X11949301Y-13011531D02*
X11958824Y-13002008D01*
X11958824Y-13002008D02*
X11977872Y-12992484D01*
X12130253Y-13173436D02*
X12139777Y-13182960D01*
X12139777Y-13182960D02*
X12130253Y-13192484D01*
X12130253Y-13192484D02*
X12120729Y-13182960D01*
X12120729Y-13182960D02*
X12130253Y-13173436D01*
X12130253Y-13173436D02*
X12130253Y-13192484D01*
X12254062Y-13078198D02*
X12235015Y-13068674D01*
X12235015Y-13068674D02*
X12225491Y-13059150D01*
X12225491Y-13059150D02*
X12215967Y-13040103D01*
X12215967Y-13040103D02*
X12215967Y-13030579D01*
X12215967Y-13030579D02*
X12225491Y-13011531D01*
X12225491Y-13011531D02*
X12235015Y-13002008D01*
X12235015Y-13002008D02*
X12254062Y-12992484D01*
X12254062Y-12992484D02*
X12292158Y-12992484D01*
X12292158Y-12992484D02*
X12311205Y-13002008D01*
X12311205Y-13002008D02*
X12320729Y-13011531D01*
X12320729Y-13011531D02*
X12330253Y-13030579D01*
X12330253Y-13030579D02*
X12330253Y-13040103D01*
X12330253Y-13040103D02*
X12320729Y-13059150D01*
X12320729Y-13059150D02*
X12311205Y-13068674D01*
X12311205Y-13068674D02*
X12292158Y-13078198D01*
X12292158Y-13078198D02*
X12254062Y-13078198D01*
X12254062Y-13078198D02*
X12235015Y-13087722D01*
X12235015Y-13087722D02*
X12225491Y-13097246D01*
X12225491Y-13097246D02*
X12215967Y-13116293D01*
X12215967Y-13116293D02*
X12215967Y-13154388D01*
X12215967Y-13154388D02*
X12225491Y-13173436D01*
X12225491Y-13173436D02*
X12235015Y-13182960D01*
X12235015Y-13182960D02*
X12254062Y-13192484D01*
X12254062Y-13192484D02*
X12292158Y-13192484D01*
X12292158Y-13192484D02*
X12311205Y-13182960D01*
X12311205Y-13182960D02*
X12320729Y-13173436D01*
X12320729Y-13173436D02*
X12330253Y-13154388D01*
X12330253Y-13154388D02*
X12330253Y-13116293D01*
X12330253Y-13116293D02*
X12320729Y-13097246D01*
X12320729Y-13097246D02*
X12311205Y-13087722D01*
X12311205Y-13087722D02*
X12292158Y-13078198D01*
X12454062Y-12992484D02*
X12473110Y-12992484D01*
X12473110Y-12992484D02*
X12492158Y-13002008D01*
X12492158Y-13002008D02*
X12501682Y-13011531D01*
X12501682Y-13011531D02*
X12511205Y-13030579D01*
X12511205Y-13030579D02*
X12520729Y-13068674D01*
X12520729Y-13068674D02*
X12520729Y-13116293D01*
X12520729Y-13116293D02*
X12511205Y-13154388D01*
X12511205Y-13154388D02*
X12501682Y-13173436D01*
X12501682Y-13173436D02*
X12492158Y-13182960D01*
X12492158Y-13182960D02*
X12473110Y-13192484D01*
X12473110Y-13192484D02*
X12454062Y-13192484D01*
X12454062Y-13192484D02*
X12435015Y-13182960D01*
X12435015Y-13182960D02*
X12425491Y-13173436D01*
X12425491Y-13173436D02*
X12415967Y-13154388D01*
X12415967Y-13154388D02*
X12406443Y-13116293D01*
X12406443Y-13116293D02*
X12406443Y-13068674D01*
X12406443Y-13068674D02*
X12415967Y-13030579D01*
X12415967Y-13030579D02*
X12425491Y-13011531D01*
X12425491Y-13011531D02*
X12435015Y-13002008D01*
X12435015Y-13002008D02*
X12454062Y-12992484D01*
X12644539Y-12992484D02*
X12663586Y-12992484D01*
X12663586Y-12992484D02*
X12682634Y-13002008D01*
X12682634Y-13002008D02*
X12692158Y-13011531D01*
X12692158Y-13011531D02*
X12701682Y-13030579D01*
X12701682Y-13030579D02*
X12711205Y-13068674D01*
X12711205Y-13068674D02*
X12711205Y-13116293D01*
X12711205Y-13116293D02*
X12701682Y-13154388D01*
X12701682Y-13154388D02*
X12692158Y-13173436D01*
X12692158Y-13173436D02*
X12682634Y-13182960D01*
X12682634Y-13182960D02*
X12663586Y-13192484D01*
X12663586Y-13192484D02*
X12644539Y-13192484D01*
X12644539Y-13192484D02*
X12625491Y-13182960D01*
X12625491Y-13182960D02*
X12615967Y-13173436D01*
X12615967Y-13173436D02*
X12606443Y-13154388D01*
X12606443Y-13154388D02*
X12596920Y-13116293D01*
X12596920Y-13116293D02*
X12596920Y-13068674D01*
X12596920Y-13068674D02*
X12606443Y-13030579D01*
X12606443Y-13030579D02*
X12615967Y-13011531D01*
X12615967Y-13011531D02*
X12625491Y-13002008D01*
X12625491Y-13002008D02*
X12644539Y-12992484D01*
X12796920Y-13192484D02*
X12796920Y-13059150D01*
X12796920Y-13078198D02*
X12806443Y-13068674D01*
X12806443Y-13068674D02*
X12825491Y-13059150D01*
X12825491Y-13059150D02*
X12854063Y-13059150D01*
X12854063Y-13059150D02*
X12873110Y-13068674D01*
X12873110Y-13068674D02*
X12882634Y-13087722D01*
X12882634Y-13087722D02*
X12882634Y-13192484D01*
X12882634Y-13087722D02*
X12892158Y-13068674D01*
X12892158Y-13068674D02*
X12911205Y-13059150D01*
X12911205Y-13059150D02*
X12939777Y-13059150D01*
X12939777Y-13059150D02*
X12958824Y-13068674D01*
X12958824Y-13068674D02*
X12968348Y-13087722D01*
X12968348Y-13087722D02*
X12968348Y-13192484D01*
X13063586Y-13192484D02*
X13063586Y-13059150D01*
X13063586Y-13078198D02*
X13073110Y-13068674D01*
X13073110Y-13068674D02*
X13092158Y-13059150D01*
X13092158Y-13059150D02*
X13120729Y-13059150D01*
X13120729Y-13059150D02*
X13139777Y-13068674D01*
X13139777Y-13068674D02*
X13149301Y-13087722D01*
X13149301Y-13087722D02*
X13149301Y-13192484D01*
X13149301Y-13087722D02*
X13158824Y-13068674D01*
X13158824Y-13068674D02*
X13177872Y-13059150D01*
X13177872Y-13059150D02*
X13206443Y-13059150D01*
X13206443Y-13059150D02*
X13225491Y-13068674D01*
X13225491Y-13068674D02*
X13235015Y-13087722D01*
X13235015Y-13087722D02*
X13235015Y-13192484D01*
X13625491Y-12982960D02*
X13454063Y-13240103D01*
X13882634Y-12992484D02*
X13901682Y-12992484D01*
X13901682Y-12992484D02*
X13920729Y-13002008D01*
X13920729Y-13002008D02*
X13930253Y-13011531D01*
X13930253Y-13011531D02*
X13939777Y-13030579D01*
X13939777Y-13030579D02*
X13949301Y-13068674D01*
X13949301Y-13068674D02*
X13949301Y-13116293D01*
X13949301Y-13116293D02*
X13939777Y-13154388D01*
X13939777Y-13154388D02*
X13930253Y-13173436D01*
X13930253Y-13173436D02*
X13920729Y-13182960D01*
X13920729Y-13182960D02*
X13901682Y-13192484D01*
X13901682Y-13192484D02*
X13882634Y-13192484D01*
X13882634Y-13192484D02*
X13863586Y-13182960D01*
X13863586Y-13182960D02*
X13854063Y-13173436D01*
X13854063Y-13173436D02*
X13844539Y-13154388D01*
X13844539Y-13154388D02*
X13835015Y-13116293D01*
X13835015Y-13116293D02*
X13835015Y-13068674D01*
X13835015Y-13068674D02*
X13844539Y-13030579D01*
X13844539Y-13030579D02*
X13854063Y-13011531D01*
X13854063Y-13011531D02*
X13863586Y-13002008D01*
X13863586Y-13002008D02*
X13882634Y-12992484D01*
X14035015Y-13173436D02*
X14044539Y-13182960D01*
X14044539Y-13182960D02*
X14035015Y-13192484D01*
X14035015Y-13192484D02*
X14025491Y-13182960D01*
X14025491Y-13182960D02*
X14035015Y-13173436D01*
X14035015Y-13173436D02*
X14035015Y-13192484D01*
X14168348Y-12992484D02*
X14187396Y-12992484D01*
X14187396Y-12992484D02*
X14206444Y-13002008D01*
X14206444Y-13002008D02*
X14215967Y-13011531D01*
X14215967Y-13011531D02*
X14225491Y-13030579D01*
X14225491Y-13030579D02*
X14235015Y-13068674D01*
X14235015Y-13068674D02*
X14235015Y-13116293D01*
X14235015Y-13116293D02*
X14225491Y-13154388D01*
X14225491Y-13154388D02*
X14215967Y-13173436D01*
X14215967Y-13173436D02*
X14206444Y-13182960D01*
X14206444Y-13182960D02*
X14187396Y-13192484D01*
X14187396Y-13192484D02*
X14168348Y-13192484D01*
X14168348Y-13192484D02*
X14149301Y-13182960D01*
X14149301Y-13182960D02*
X14139777Y-13173436D01*
X14139777Y-13173436D02*
X14130253Y-13154388D01*
X14130253Y-13154388D02*
X14120729Y-13116293D01*
X14120729Y-13116293D02*
X14120729Y-13068674D01*
X14120729Y-13068674D02*
X14130253Y-13030579D01*
X14130253Y-13030579D02*
X14139777Y-13011531D01*
X14139777Y-13011531D02*
X14149301Y-13002008D01*
X14149301Y-13002008D02*
X14168348Y-12992484D01*
X14301682Y-12992484D02*
X14425491Y-12992484D01*
X14425491Y-12992484D02*
X14358825Y-13068674D01*
X14358825Y-13068674D02*
X14387396Y-13068674D01*
X14387396Y-13068674D02*
X14406444Y-13078198D01*
X14406444Y-13078198D02*
X14415967Y-13087722D01*
X14415967Y-13087722D02*
X14425491Y-13106769D01*
X14425491Y-13106769D02*
X14425491Y-13154388D01*
X14425491Y-13154388D02*
X14415967Y-13173436D01*
X14415967Y-13173436D02*
X14406444Y-13182960D01*
X14406444Y-13182960D02*
X14387396Y-13192484D01*
X14387396Y-13192484D02*
X14330253Y-13192484D01*
X14330253Y-13192484D02*
X14311206Y-13182960D01*
X14311206Y-13182960D02*
X14301682Y-13173436D01*
X14615967Y-13192484D02*
X14501682Y-13192484D01*
X14558825Y-13192484D02*
X14558825Y-12992484D01*
X14558825Y-12992484D02*
X14539777Y-13021055D01*
X14539777Y-13021055D02*
X14520729Y-13040103D01*
X14520729Y-13040103D02*
X14501682Y-13049627D01*
X14796920Y-12992484D02*
X14701682Y-12992484D01*
X14701682Y-12992484D02*
X14692158Y-13087722D01*
X14692158Y-13087722D02*
X14701682Y-13078198D01*
X14701682Y-13078198D02*
X14720729Y-13068674D01*
X14720729Y-13068674D02*
X14768348Y-13068674D01*
X14768348Y-13068674D02*
X14787396Y-13078198D01*
X14787396Y-13078198D02*
X14796920Y-13087722D01*
X14796920Y-13087722D02*
X14806444Y-13106769D01*
X14806444Y-13106769D02*
X14806444Y-13154388D01*
X14806444Y-13154388D02*
X14796920Y-13173436D01*
X14796920Y-13173436D02*
X14787396Y-13182960D01*
X14787396Y-13182960D02*
X14768348Y-13192484D01*
X14768348Y-13192484D02*
X14720729Y-13192484D01*
X14720729Y-13192484D02*
X14701682Y-13182960D01*
X14701682Y-13182960D02*
X14692158Y-13173436D01*
X14882634Y-12992484D02*
X14882634Y-13030579D01*
X14958825Y-12992484D02*
X14958825Y-13030579D01*
X15254063Y-13268674D02*
X15244539Y-13259150D01*
X15244539Y-13259150D02*
X15225491Y-13230579D01*
X15225491Y-13230579D02*
X15215968Y-13211531D01*
X15215968Y-13211531D02*
X15206444Y-13182960D01*
X15206444Y-13182960D02*
X15196920Y-13135341D01*
X15196920Y-13135341D02*
X15196920Y-13097246D01*
X15196920Y-13097246D02*
X15206444Y-13049627D01*
X15206444Y-13049627D02*
X15215968Y-13021055D01*
X15215968Y-13021055D02*
X15225491Y-13002008D01*
X15225491Y-13002008D02*
X15244539Y-12973436D01*
X15244539Y-12973436D02*
X15254063Y-12963912D01*
X15311206Y-12992484D02*
X15435015Y-12992484D01*
X15435015Y-12992484D02*
X15368348Y-13068674D01*
X15368348Y-13068674D02*
X15396920Y-13068674D01*
X15396920Y-13068674D02*
X15415968Y-13078198D01*
X15415968Y-13078198D02*
X15425491Y-13087722D01*
X15425491Y-13087722D02*
X15435015Y-13106769D01*
X15435015Y-13106769D02*
X15435015Y-13154388D01*
X15435015Y-13154388D02*
X15425491Y-13173436D01*
X15425491Y-13173436D02*
X15415968Y-13182960D01*
X15415968Y-13182960D02*
X15396920Y-13192484D01*
X15396920Y-13192484D02*
X15339777Y-13192484D01*
X15339777Y-13192484D02*
X15320729Y-13182960D01*
X15320729Y-13182960D02*
X15311206Y-13173436D01*
X15511206Y-13011531D02*
X15520729Y-13002008D01*
X15520729Y-13002008D02*
X15539777Y-12992484D01*
X15539777Y-12992484D02*
X15587396Y-12992484D01*
X15587396Y-12992484D02*
X15606444Y-13002008D01*
X15606444Y-13002008D02*
X15615968Y-13011531D01*
X15615968Y-13011531D02*
X15625491Y-13030579D01*
X15625491Y-13030579D02*
X15625491Y-13049627D01*
X15625491Y-13049627D02*
X15615968Y-13078198D01*
X15615968Y-13078198D02*
X15501682Y-13192484D01*
X15501682Y-13192484D02*
X15625491Y-13192484D01*
X15863587Y-13192484D02*
X15863587Y-12992484D01*
X15949301Y-13192484D02*
X15949301Y-13087722D01*
X15949301Y-13087722D02*
X15939777Y-13068674D01*
X15939777Y-13068674D02*
X15920730Y-13059150D01*
X15920730Y-13059150D02*
X15892158Y-13059150D01*
X15892158Y-13059150D02*
X15873110Y-13068674D01*
X15873110Y-13068674D02*
X15863587Y-13078198D01*
X16073110Y-13192484D02*
X16054063Y-13182960D01*
X16054063Y-13182960D02*
X16044539Y-13173436D01*
X16044539Y-13173436D02*
X16035015Y-13154388D01*
X16035015Y-13154388D02*
X16035015Y-13097246D01*
X16035015Y-13097246D02*
X16044539Y-13078198D01*
X16044539Y-13078198D02*
X16054063Y-13068674D01*
X16054063Y-13068674D02*
X16073110Y-13059150D01*
X16073110Y-13059150D02*
X16101682Y-13059150D01*
X16101682Y-13059150D02*
X16120730Y-13068674D01*
X16120730Y-13068674D02*
X16130253Y-13078198D01*
X16130253Y-13078198D02*
X16139777Y-13097246D01*
X16139777Y-13097246D02*
X16139777Y-13154388D01*
X16139777Y-13154388D02*
X16130253Y-13173436D01*
X16130253Y-13173436D02*
X16120730Y-13182960D01*
X16120730Y-13182960D02*
X16101682Y-13192484D01*
X16101682Y-13192484D02*
X16073110Y-13192484D01*
X16254063Y-13192484D02*
X16235015Y-13182960D01*
X16235015Y-13182960D02*
X16225491Y-13163912D01*
X16225491Y-13163912D02*
X16225491Y-12992484D01*
X16406444Y-13182960D02*
X16387396Y-13192484D01*
X16387396Y-13192484D02*
X16349301Y-13192484D01*
X16349301Y-13192484D02*
X16330253Y-13182960D01*
X16330253Y-13182960D02*
X16320730Y-13163912D01*
X16320730Y-13163912D02*
X16320730Y-13087722D01*
X16320730Y-13087722D02*
X16330253Y-13068674D01*
X16330253Y-13068674D02*
X16349301Y-13059150D01*
X16349301Y-13059150D02*
X16387396Y-13059150D01*
X16387396Y-13059150D02*
X16406444Y-13068674D01*
X16406444Y-13068674D02*
X16415968Y-13087722D01*
X16415968Y-13087722D02*
X16415968Y-13106769D01*
X16415968Y-13106769D02*
X16320730Y-13125817D01*
X16492158Y-13182960D02*
X16511206Y-13192484D01*
X16511206Y-13192484D02*
X16549301Y-13192484D01*
X16549301Y-13192484D02*
X16568349Y-13182960D01*
X16568349Y-13182960D02*
X16577872Y-13163912D01*
X16577872Y-13163912D02*
X16577872Y-13154388D01*
X16577872Y-13154388D02*
X16568349Y-13135341D01*
X16568349Y-13135341D02*
X16549301Y-13125817D01*
X16549301Y-13125817D02*
X16520730Y-13125817D01*
X16520730Y-13125817D02*
X16501682Y-13116293D01*
X16501682Y-13116293D02*
X16492158Y-13097246D01*
X16492158Y-13097246D02*
X16492158Y-13087722D01*
X16492158Y-13087722D02*
X16501682Y-13068674D01*
X16501682Y-13068674D02*
X16520730Y-13059150D01*
X16520730Y-13059150D02*
X16549301Y-13059150D01*
X16549301Y-13059150D02*
X16568349Y-13068674D01*
X16644539Y-13268674D02*
X16654063Y-13259150D01*
X16654063Y-13259150D02*
X16673111Y-13230579D01*
X16673111Y-13230579D02*
X16682634Y-13211531D01*
X16682634Y-13211531D02*
X16692158Y-13182960D01*
X16692158Y-13182960D02*
X16701682Y-13135341D01*
X16701682Y-13135341D02*
X16701682Y-13097246D01*
X16701682Y-13097246D02*
X16692158Y-13049627D01*
X16692158Y-13049627D02*
X16682634Y-13021055D01*
X16682634Y-13021055D02*
X16673111Y-13002008D01*
X16673111Y-13002008D02*
X16654063Y-12973436D01*
X16654063Y-12973436D02*
X16644539Y-12963912D01*
D10*
X11629000Y-13315000D02*
X11629000Y-13415000D01*
X11579000Y-13365000D02*
X11679000Y-13365000D01*
D11*
X12044539Y-13456484D02*
X11930253Y-13456484D01*
X11987396Y-13456484D02*
X11987396Y-13256484D01*
X11987396Y-13256484D02*
X11968348Y-13285055D01*
X11968348Y-13285055D02*
X11949301Y-13304103D01*
X11949301Y-13304103D02*
X11930253Y-13313627D01*
X12130253Y-13437436D02*
X12139777Y-13446960D01*
X12139777Y-13446960D02*
X12130253Y-13456484D01*
X12130253Y-13456484D02*
X12120729Y-13446960D01*
X12120729Y-13446960D02*
X12130253Y-13437436D01*
X12130253Y-13437436D02*
X12130253Y-13456484D01*
X12263586Y-13256484D02*
X12282634Y-13256484D01*
X12282634Y-13256484D02*
X12301682Y-13266008D01*
X12301682Y-13266008D02*
X12311205Y-13275531D01*
X12311205Y-13275531D02*
X12320729Y-13294579D01*
X12320729Y-13294579D02*
X12330253Y-13332674D01*
X12330253Y-13332674D02*
X12330253Y-13380293D01*
X12330253Y-13380293D02*
X12320729Y-13418388D01*
X12320729Y-13418388D02*
X12311205Y-13437436D01*
X12311205Y-13437436D02*
X12301682Y-13446960D01*
X12301682Y-13446960D02*
X12282634Y-13456484D01*
X12282634Y-13456484D02*
X12263586Y-13456484D01*
X12263586Y-13456484D02*
X12244539Y-13446960D01*
X12244539Y-13446960D02*
X12235015Y-13437436D01*
X12235015Y-13437436D02*
X12225491Y-13418388D01*
X12225491Y-13418388D02*
X12215967Y-13380293D01*
X12215967Y-13380293D02*
X12215967Y-13332674D01*
X12215967Y-13332674D02*
X12225491Y-13294579D01*
X12225491Y-13294579D02*
X12235015Y-13275531D01*
X12235015Y-13275531D02*
X12244539Y-13266008D01*
X12244539Y-13266008D02*
X12263586Y-13256484D01*
X12454062Y-13256484D02*
X12473110Y-13256484D01*
X12473110Y-13256484D02*
X12492158Y-13266008D01*
X12492158Y-13266008D02*
X12501682Y-13275531D01*
X12501682Y-13275531D02*
X12511205Y-13294579D01*
X12511205Y-13294579D02*
X12520729Y-13332674D01*
X12520729Y-13332674D02*
X12520729Y-13380293D01*
X12520729Y-13380293D02*
X12511205Y-13418388D01*
X12511205Y-13418388D02*
X12501682Y-13437436D01*
X12501682Y-13437436D02*
X12492158Y-13446960D01*
X12492158Y-13446960D02*
X12473110Y-13456484D01*
X12473110Y-13456484D02*
X12454062Y-13456484D01*
X12454062Y-13456484D02*
X12435015Y-13446960D01*
X12435015Y-13446960D02*
X12425491Y-13437436D01*
X12425491Y-13437436D02*
X12415967Y-13418388D01*
X12415967Y-13418388D02*
X12406443Y-13380293D01*
X12406443Y-13380293D02*
X12406443Y-13332674D01*
X12406443Y-13332674D02*
X12415967Y-13294579D01*
X12415967Y-13294579D02*
X12425491Y-13275531D01*
X12425491Y-13275531D02*
X12435015Y-13266008D01*
X12435015Y-13266008D02*
X12454062Y-13256484D01*
X12644539Y-13256484D02*
X12663586Y-13256484D01*
X12663586Y-13256484D02*
X12682634Y-13266008D01*
X12682634Y-13266008D02*
X12692158Y-13275531D01*
X12692158Y-13275531D02*
X12701682Y-13294579D01*
X12701682Y-13294579D02*
X12711205Y-13332674D01*
X12711205Y-13332674D02*
X12711205Y-13380293D01*
X12711205Y-13380293D02*
X12701682Y-13418388D01*
X12701682Y-13418388D02*
X12692158Y-13437436D01*
X12692158Y-13437436D02*
X12682634Y-13446960D01*
X12682634Y-13446960D02*
X12663586Y-13456484D01*
X12663586Y-13456484D02*
X12644539Y-13456484D01*
X12644539Y-13456484D02*
X12625491Y-13446960D01*
X12625491Y-13446960D02*
X12615967Y-13437436D01*
X12615967Y-13437436D02*
X12606443Y-13418388D01*
X12606443Y-13418388D02*
X12596920Y-13380293D01*
X12596920Y-13380293D02*
X12596920Y-13332674D01*
X12596920Y-13332674D02*
X12606443Y-13294579D01*
X12606443Y-13294579D02*
X12615967Y-13275531D01*
X12615967Y-13275531D02*
X12625491Y-13266008D01*
X12625491Y-13266008D02*
X12644539Y-13256484D01*
X12796920Y-13456484D02*
X12796920Y-13323150D01*
X12796920Y-13342198D02*
X12806443Y-13332674D01*
X12806443Y-13332674D02*
X12825491Y-13323150D01*
X12825491Y-13323150D02*
X12854063Y-13323150D01*
X12854063Y-13323150D02*
X12873110Y-13332674D01*
X12873110Y-13332674D02*
X12882634Y-13351722D01*
X12882634Y-13351722D02*
X12882634Y-13456484D01*
X12882634Y-13351722D02*
X12892158Y-13332674D01*
X12892158Y-13332674D02*
X12911205Y-13323150D01*
X12911205Y-13323150D02*
X12939777Y-13323150D01*
X12939777Y-13323150D02*
X12958824Y-13332674D01*
X12958824Y-13332674D02*
X12968348Y-13351722D01*
X12968348Y-13351722D02*
X12968348Y-13456484D01*
X13063586Y-13456484D02*
X13063586Y-13323150D01*
X13063586Y-13342198D02*
X13073110Y-13332674D01*
X13073110Y-13332674D02*
X13092158Y-13323150D01*
X13092158Y-13323150D02*
X13120729Y-13323150D01*
X13120729Y-13323150D02*
X13139777Y-13332674D01*
X13139777Y-13332674D02*
X13149301Y-13351722D01*
X13149301Y-13351722D02*
X13149301Y-13456484D01*
X13149301Y-13351722D02*
X13158824Y-13332674D01*
X13158824Y-13332674D02*
X13177872Y-13323150D01*
X13177872Y-13323150D02*
X13206443Y-13323150D01*
X13206443Y-13323150D02*
X13225491Y-13332674D01*
X13225491Y-13332674D02*
X13235015Y-13351722D01*
X13235015Y-13351722D02*
X13235015Y-13456484D01*
X13625491Y-13246960D02*
X13454063Y-13504103D01*
X13882634Y-13256484D02*
X13901682Y-13256484D01*
X13901682Y-13256484D02*
X13920729Y-13266008D01*
X13920729Y-13266008D02*
X13930253Y-13275531D01*
X13930253Y-13275531D02*
X13939777Y-13294579D01*
X13939777Y-13294579D02*
X13949301Y-13332674D01*
X13949301Y-13332674D02*
X13949301Y-13380293D01*
X13949301Y-13380293D02*
X13939777Y-13418388D01*
X13939777Y-13418388D02*
X13930253Y-13437436D01*
X13930253Y-13437436D02*
X13920729Y-13446960D01*
X13920729Y-13446960D02*
X13901682Y-13456484D01*
X13901682Y-13456484D02*
X13882634Y-13456484D01*
X13882634Y-13456484D02*
X13863586Y-13446960D01*
X13863586Y-13446960D02*
X13854063Y-13437436D01*
X13854063Y-13437436D02*
X13844539Y-13418388D01*
X13844539Y-13418388D02*
X13835015Y-13380293D01*
X13835015Y-13380293D02*
X13835015Y-13332674D01*
X13835015Y-13332674D02*
X13844539Y-13294579D01*
X13844539Y-13294579D02*
X13854063Y-13275531D01*
X13854063Y-13275531D02*
X13863586Y-13266008D01*
X13863586Y-13266008D02*
X13882634Y-13256484D01*
X14035015Y-13437436D02*
X14044539Y-13446960D01*
X14044539Y-13446960D02*
X14035015Y-13456484D01*
X14035015Y-13456484D02*
X14025491Y-13446960D01*
X14025491Y-13446960D02*
X14035015Y-13437436D01*
X14035015Y-13437436D02*
X14035015Y-13456484D01*
X14168348Y-13256484D02*
X14187396Y-13256484D01*
X14187396Y-13256484D02*
X14206444Y-13266008D01*
X14206444Y-13266008D02*
X14215967Y-13275531D01*
X14215967Y-13275531D02*
X14225491Y-13294579D01*
X14225491Y-13294579D02*
X14235015Y-13332674D01*
X14235015Y-13332674D02*
X14235015Y-13380293D01*
X14235015Y-13380293D02*
X14225491Y-13418388D01*
X14225491Y-13418388D02*
X14215967Y-13437436D01*
X14215967Y-13437436D02*
X14206444Y-13446960D01*
X14206444Y-13446960D02*
X14187396Y-13456484D01*
X14187396Y-13456484D02*
X14168348Y-13456484D01*
X14168348Y-13456484D02*
X14149301Y-13446960D01*
X14149301Y-13446960D02*
X14139777Y-13437436D01*
X14139777Y-13437436D02*
X14130253Y-13418388D01*
X14130253Y-13418388D02*
X14120729Y-13380293D01*
X14120729Y-13380293D02*
X14120729Y-13332674D01*
X14120729Y-13332674D02*
X14130253Y-13294579D01*
X14130253Y-13294579D02*
X14139777Y-13275531D01*
X14139777Y-13275531D02*
X14149301Y-13266008D01*
X14149301Y-13266008D02*
X14168348Y-13256484D01*
X14301682Y-13256484D02*
X14425491Y-13256484D01*
X14425491Y-13256484D02*
X14358825Y-13332674D01*
X14358825Y-13332674D02*
X14387396Y-13332674D01*
X14387396Y-13332674D02*
X14406444Y-13342198D01*
X14406444Y-13342198D02*
X14415967Y-13351722D01*
X14415967Y-13351722D02*
X14425491Y-13370769D01*
X14425491Y-13370769D02*
X14425491Y-13418388D01*
X14425491Y-13418388D02*
X14415967Y-13437436D01*
X14415967Y-13437436D02*
X14406444Y-13446960D01*
X14406444Y-13446960D02*
X14387396Y-13456484D01*
X14387396Y-13456484D02*
X14330253Y-13456484D01*
X14330253Y-13456484D02*
X14311206Y-13446960D01*
X14311206Y-13446960D02*
X14301682Y-13437436D01*
X14520729Y-13456484D02*
X14558825Y-13456484D01*
X14558825Y-13456484D02*
X14577872Y-13446960D01*
X14577872Y-13446960D02*
X14587396Y-13437436D01*
X14587396Y-13437436D02*
X14606444Y-13408865D01*
X14606444Y-13408865D02*
X14615967Y-13370769D01*
X14615967Y-13370769D02*
X14615967Y-13294579D01*
X14615967Y-13294579D02*
X14606444Y-13275531D01*
X14606444Y-13275531D02*
X14596920Y-13266008D01*
X14596920Y-13266008D02*
X14577872Y-13256484D01*
X14577872Y-13256484D02*
X14539777Y-13256484D01*
X14539777Y-13256484D02*
X14520729Y-13266008D01*
X14520729Y-13266008D02*
X14511206Y-13275531D01*
X14511206Y-13275531D02*
X14501682Y-13294579D01*
X14501682Y-13294579D02*
X14501682Y-13342198D01*
X14501682Y-13342198D02*
X14511206Y-13361246D01*
X14511206Y-13361246D02*
X14520729Y-13370769D01*
X14520729Y-13370769D02*
X14539777Y-13380293D01*
X14539777Y-13380293D02*
X14577872Y-13380293D01*
X14577872Y-13380293D02*
X14596920Y-13370769D01*
X14596920Y-13370769D02*
X14606444Y-13361246D01*
X14606444Y-13361246D02*
X14615967Y-13342198D01*
X14787396Y-13323150D02*
X14787396Y-13456484D01*
X14739777Y-13246960D02*
X14692158Y-13389817D01*
X14692158Y-13389817D02*
X14815967Y-13389817D01*
X14882634Y-13256484D02*
X14882634Y-13294579D01*
X14958825Y-13256484D02*
X14958825Y-13294579D01*
X15254063Y-13532674D02*
X15244539Y-13523150D01*
X15244539Y-13523150D02*
X15225491Y-13494579D01*
X15225491Y-13494579D02*
X15215968Y-13475531D01*
X15215968Y-13475531D02*
X15206444Y-13446960D01*
X15206444Y-13446960D02*
X15196920Y-13399341D01*
X15196920Y-13399341D02*
X15196920Y-13361246D01*
X15196920Y-13361246D02*
X15206444Y-13313627D01*
X15206444Y-13313627D02*
X15215968Y-13285055D01*
X15215968Y-13285055D02*
X15225491Y-13266008D01*
X15225491Y-13266008D02*
X15244539Y-13237436D01*
X15244539Y-13237436D02*
X15254063Y-13227912D01*
X15320729Y-13275531D02*
X15330253Y-13266008D01*
X15330253Y-13266008D02*
X15349301Y-13256484D01*
X15349301Y-13256484D02*
X15396920Y-13256484D01*
X15396920Y-13256484D02*
X15415968Y-13266008D01*
X15415968Y-13266008D02*
X15425491Y-13275531D01*
X15425491Y-13275531D02*
X15435015Y-13294579D01*
X15435015Y-13294579D02*
X15435015Y-13313627D01*
X15435015Y-13313627D02*
X15425491Y-13342198D01*
X15425491Y-13342198D02*
X15311206Y-13456484D01*
X15311206Y-13456484D02*
X15435015Y-13456484D01*
X15606444Y-13323150D02*
X15606444Y-13456484D01*
X15558825Y-13246960D02*
X15511206Y-13389817D01*
X15511206Y-13389817D02*
X15635015Y-13389817D01*
X15863587Y-13456484D02*
X15863587Y-13256484D01*
X15949301Y-13456484D02*
X15949301Y-13351722D01*
X15949301Y-13351722D02*
X15939777Y-13332674D01*
X15939777Y-13332674D02*
X15920730Y-13323150D01*
X15920730Y-13323150D02*
X15892158Y-13323150D01*
X15892158Y-13323150D02*
X15873110Y-13332674D01*
X15873110Y-13332674D02*
X15863587Y-13342198D01*
X16073110Y-13456484D02*
X16054063Y-13446960D01*
X16054063Y-13446960D02*
X16044539Y-13437436D01*
X16044539Y-13437436D02*
X16035015Y-13418388D01*
X16035015Y-13418388D02*
X16035015Y-13361246D01*
X16035015Y-13361246D02*
X16044539Y-13342198D01*
X16044539Y-13342198D02*
X16054063Y-13332674D01*
X16054063Y-13332674D02*
X16073110Y-13323150D01*
X16073110Y-13323150D02*
X16101682Y-13323150D01*
X16101682Y-13323150D02*
X16120730Y-13332674D01*
X16120730Y-13332674D02*
X16130253Y-13342198D01*
X16130253Y-13342198D02*
X16139777Y-13361246D01*
X16139777Y-13361246D02*
X16139777Y-13418388D01*
X16139777Y-13418388D02*
X16130253Y-13437436D01*
X16130253Y-13437436D02*
X16120730Y-13446960D01*
X16120730Y-13446960D02*
X16101682Y-13456484D01*
X16101682Y-13456484D02*
X16073110Y-13456484D01*
X16254063Y-13456484D02*
X16235015Y-13446960D01*
X16235015Y-13446960D02*
X16225491Y-13427912D01*
X16225491Y-13427912D02*
X16225491Y-13256484D01*
X16406444Y-13446960D02*
X16387396Y-13456484D01*
X16387396Y-13456484D02*
X16349301Y-13456484D01*
X16349301Y-13456484D02*
X16330253Y-13446960D01*
X16330253Y-13446960D02*
X16320730Y-13427912D01*
X16320730Y-13427912D02*
X16320730Y-13351722D01*
X16320730Y-13351722D02*
X16330253Y-13332674D01*
X16330253Y-13332674D02*
X16349301Y-13323150D01*
X16349301Y-13323150D02*
X16387396Y-13323150D01*
X16387396Y-13323150D02*
X16406444Y-13332674D01*
X16406444Y-13332674D02*
X16415968Y-13351722D01*
X16415968Y-13351722D02*
X16415968Y-13370769D01*
X16415968Y-13370769D02*
X16320730Y-13389817D01*
X16492158Y-13446960D02*
X16511206Y-13456484D01*
X16511206Y-13456484D02*
X16549301Y-13456484D01*
X16549301Y-13456484D02*
X16568349Y-13446960D01*
X16568349Y-13446960D02*
X16577872Y-13427912D01*
X16577872Y-13427912D02*
X16577872Y-13418388D01*
X16577872Y-13418388D02*
X16568349Y-13399341D01*
X16568349Y-13399341D02*
X16549301Y-13389817D01*
X16549301Y-13389817D02*
X16520730Y-13389817D01*
X16520730Y-13389817D02*
X16501682Y-13380293D01*
X16501682Y-13380293D02*
X16492158Y-13361246D01*
X16492158Y-13361246D02*
X16492158Y-13351722D01*
X16492158Y-13351722D02*
X16501682Y-13332674D01*
X16501682Y-13332674D02*
X16520730Y-13323150D01*
X16520730Y-13323150D02*
X16549301Y-13323150D01*
X16549301Y-13323150D02*
X16568349Y-13332674D01*
X16644539Y-13532674D02*
X16654063Y-13523150D01*
X16654063Y-13523150D02*
X16673111Y-13494579D01*
X16673111Y-13494579D02*
X16682634Y-13475531D01*
X16682634Y-13475531D02*
X16692158Y-13446960D01*
X16692158Y-13446960D02*
X16701682Y-13399341D01*
X16701682Y-13399341D02*
X16701682Y-13361246D01*
X16701682Y-13361246D02*
X16692158Y-13313627D01*
X16692158Y-13313627D02*
X16682634Y-13285055D01*
X16682634Y-13285055D02*
X16673111Y-13266008D01*
X16673111Y-13266008D02*
X16654063Y-13237436D01*
X16654063Y-13237436D02*
X16644539Y-13227912D01*
D12*
X11662891Y-13667891D02*
X11662891Y-13590109D01*
X11585109Y-13590109D01*
X11585109Y-13667891D01*
X11662891Y-13667891D01*
D11*
X12044539Y-13720484D02*
X11930253Y-13720484D01*
X11987396Y-13720484D02*
X11987396Y-13520484D01*
X11987396Y-13520484D02*
X11968348Y-13549055D01*
X11968348Y-13549055D02*
X11949301Y-13568103D01*
X11949301Y-13568103D02*
X11930253Y-13577627D01*
X12130253Y-13701436D02*
X12139777Y-13710960D01*
X12139777Y-13710960D02*
X12130253Y-13720484D01*
X12130253Y-13720484D02*
X12120729Y-13710960D01*
X12120729Y-13710960D02*
X12130253Y-13701436D01*
X12130253Y-13701436D02*
X12130253Y-13720484D01*
X12330253Y-13720484D02*
X12215967Y-13720484D01*
X12273110Y-13720484D02*
X12273110Y-13520484D01*
X12273110Y-13520484D02*
X12254062Y-13549055D01*
X12254062Y-13549055D02*
X12235015Y-13568103D01*
X12235015Y-13568103D02*
X12215967Y-13577627D01*
X12454062Y-13520484D02*
X12473110Y-13520484D01*
X12473110Y-13520484D02*
X12492158Y-13530008D01*
X12492158Y-13530008D02*
X12501682Y-13539531D01*
X12501682Y-13539531D02*
X12511205Y-13558579D01*
X12511205Y-13558579D02*
X12520729Y-13596674D01*
X12520729Y-13596674D02*
X12520729Y-13644293D01*
X12520729Y-13644293D02*
X12511205Y-13682388D01*
X12511205Y-13682388D02*
X12501682Y-13701436D01*
X12501682Y-13701436D02*
X12492158Y-13710960D01*
X12492158Y-13710960D02*
X12473110Y-13720484D01*
X12473110Y-13720484D02*
X12454062Y-13720484D01*
X12454062Y-13720484D02*
X12435015Y-13710960D01*
X12435015Y-13710960D02*
X12425491Y-13701436D01*
X12425491Y-13701436D02*
X12415967Y-13682388D01*
X12415967Y-13682388D02*
X12406443Y-13644293D01*
X12406443Y-13644293D02*
X12406443Y-13596674D01*
X12406443Y-13596674D02*
X12415967Y-13558579D01*
X12415967Y-13558579D02*
X12425491Y-13539531D01*
X12425491Y-13539531D02*
X12435015Y-13530008D01*
X12435015Y-13530008D02*
X12454062Y-13520484D01*
X12644539Y-13520484D02*
X12663586Y-13520484D01*
X12663586Y-13520484D02*
X12682634Y-13530008D01*
X12682634Y-13530008D02*
X12692158Y-13539531D01*
X12692158Y-13539531D02*
X12701682Y-13558579D01*
X12701682Y-13558579D02*
X12711205Y-13596674D01*
X12711205Y-13596674D02*
X12711205Y-13644293D01*
X12711205Y-13644293D02*
X12701682Y-13682388D01*
X12701682Y-13682388D02*
X12692158Y-13701436D01*
X12692158Y-13701436D02*
X12682634Y-13710960D01*
X12682634Y-13710960D02*
X12663586Y-13720484D01*
X12663586Y-13720484D02*
X12644539Y-13720484D01*
X12644539Y-13720484D02*
X12625491Y-13710960D01*
X12625491Y-13710960D02*
X12615967Y-13701436D01*
X12615967Y-13701436D02*
X12606443Y-13682388D01*
X12606443Y-13682388D02*
X12596920Y-13644293D01*
X12596920Y-13644293D02*
X12596920Y-13596674D01*
X12596920Y-13596674D02*
X12606443Y-13558579D01*
X12606443Y-13558579D02*
X12615967Y-13539531D01*
X12615967Y-13539531D02*
X12625491Y-13530008D01*
X12625491Y-13530008D02*
X12644539Y-13520484D01*
X12796920Y-13720484D02*
X12796920Y-13587150D01*
X12796920Y-13606198D02*
X12806443Y-13596674D01*
X12806443Y-13596674D02*
X12825491Y-13587150D01*
X12825491Y-13587150D02*
X12854063Y-13587150D01*
X12854063Y-13587150D02*
X12873110Y-13596674D01*
X12873110Y-13596674D02*
X12882634Y-13615722D01*
X12882634Y-13615722D02*
X12882634Y-13720484D01*
X12882634Y-13615722D02*
X12892158Y-13596674D01*
X12892158Y-13596674D02*
X12911205Y-13587150D01*
X12911205Y-13587150D02*
X12939777Y-13587150D01*
X12939777Y-13587150D02*
X12958824Y-13596674D01*
X12958824Y-13596674D02*
X12968348Y-13615722D01*
X12968348Y-13615722D02*
X12968348Y-13720484D01*
X13063586Y-13720484D02*
X13063586Y-13587150D01*
X13063586Y-13606198D02*
X13073110Y-13596674D01*
X13073110Y-13596674D02*
X13092158Y-13587150D01*
X13092158Y-13587150D02*
X13120729Y-13587150D01*
X13120729Y-13587150D02*
X13139777Y-13596674D01*
X13139777Y-13596674D02*
X13149301Y-13615722D01*
X13149301Y-13615722D02*
X13149301Y-13720484D01*
X13149301Y-13615722D02*
X13158824Y-13596674D01*
X13158824Y-13596674D02*
X13177872Y-13587150D01*
X13177872Y-13587150D02*
X13206443Y-13587150D01*
X13206443Y-13587150D02*
X13225491Y-13596674D01*
X13225491Y-13596674D02*
X13235015Y-13615722D01*
X13235015Y-13615722D02*
X13235015Y-13720484D01*
X13625491Y-13510960D02*
X13454063Y-13768103D01*
X13882634Y-13520484D02*
X13901682Y-13520484D01*
X13901682Y-13520484D02*
X13920729Y-13530008D01*
X13920729Y-13530008D02*
X13930253Y-13539531D01*
X13930253Y-13539531D02*
X13939777Y-13558579D01*
X13939777Y-13558579D02*
X13949301Y-13596674D01*
X13949301Y-13596674D02*
X13949301Y-13644293D01*
X13949301Y-13644293D02*
X13939777Y-13682388D01*
X13939777Y-13682388D02*
X13930253Y-13701436D01*
X13930253Y-13701436D02*
X13920729Y-13710960D01*
X13920729Y-13710960D02*
X13901682Y-13720484D01*
X13901682Y-13720484D02*
X13882634Y-13720484D01*
X13882634Y-13720484D02*
X13863586Y-13710960D01*
X13863586Y-13710960D02*
X13854063Y-13701436D01*
X13854063Y-13701436D02*
X13844539Y-13682388D01*
X13844539Y-13682388D02*
X13835015Y-13644293D01*
X13835015Y-13644293D02*
X13835015Y-13596674D01*
X13835015Y-13596674D02*
X13844539Y-13558579D01*
X13844539Y-13558579D02*
X13854063Y-13539531D01*
X13854063Y-13539531D02*
X13863586Y-13530008D01*
X13863586Y-13530008D02*
X13882634Y-13520484D01*
X14035015Y-13701436D02*
X14044539Y-13710960D01*
X14044539Y-13710960D02*
X14035015Y-13720484D01*
X14035015Y-13720484D02*
X14025491Y-13710960D01*
X14025491Y-13710960D02*
X14035015Y-13701436D01*
X14035015Y-13701436D02*
X14035015Y-13720484D01*
X14168348Y-13520484D02*
X14187396Y-13520484D01*
X14187396Y-13520484D02*
X14206444Y-13530008D01*
X14206444Y-13530008D02*
X14215967Y-13539531D01*
X14215967Y-13539531D02*
X14225491Y-13558579D01*
X14225491Y-13558579D02*
X14235015Y-13596674D01*
X14235015Y-13596674D02*
X14235015Y-13644293D01*
X14235015Y-13644293D02*
X14225491Y-13682388D01*
X14225491Y-13682388D02*
X14215967Y-13701436D01*
X14215967Y-13701436D02*
X14206444Y-13710960D01*
X14206444Y-13710960D02*
X14187396Y-13720484D01*
X14187396Y-13720484D02*
X14168348Y-13720484D01*
X14168348Y-13720484D02*
X14149301Y-13710960D01*
X14149301Y-13710960D02*
X14139777Y-13701436D01*
X14139777Y-13701436D02*
X14130253Y-13682388D01*
X14130253Y-13682388D02*
X14120729Y-13644293D01*
X14120729Y-13644293D02*
X14120729Y-13596674D01*
X14120729Y-13596674D02*
X14130253Y-13558579D01*
X14130253Y-13558579D02*
X14139777Y-13539531D01*
X14139777Y-13539531D02*
X14149301Y-13530008D01*
X14149301Y-13530008D02*
X14168348Y-13520484D01*
X14406444Y-13587150D02*
X14406444Y-13720484D01*
X14358825Y-13510960D02*
X14311206Y-13653817D01*
X14311206Y-13653817D02*
X14435015Y-13653817D01*
X14492158Y-13520484D02*
X14615967Y-13520484D01*
X14615967Y-13520484D02*
X14549301Y-13596674D01*
X14549301Y-13596674D02*
X14577872Y-13596674D01*
X14577872Y-13596674D02*
X14596920Y-13606198D01*
X14596920Y-13606198D02*
X14606444Y-13615722D01*
X14606444Y-13615722D02*
X14615967Y-13634769D01*
X14615967Y-13634769D02*
X14615967Y-13682388D01*
X14615967Y-13682388D02*
X14606444Y-13701436D01*
X14606444Y-13701436D02*
X14596920Y-13710960D01*
X14596920Y-13710960D02*
X14577872Y-13720484D01*
X14577872Y-13720484D02*
X14520729Y-13720484D01*
X14520729Y-13720484D02*
X14501682Y-13710960D01*
X14501682Y-13710960D02*
X14492158Y-13701436D01*
X14682634Y-13520484D02*
X14806444Y-13520484D01*
X14806444Y-13520484D02*
X14739777Y-13596674D01*
X14739777Y-13596674D02*
X14768348Y-13596674D01*
X14768348Y-13596674D02*
X14787396Y-13606198D01*
X14787396Y-13606198D02*
X14796920Y-13615722D01*
X14796920Y-13615722D02*
X14806444Y-13634769D01*
X14806444Y-13634769D02*
X14806444Y-13682388D01*
X14806444Y-13682388D02*
X14796920Y-13701436D01*
X14796920Y-13701436D02*
X14787396Y-13710960D01*
X14787396Y-13710960D02*
X14768348Y-13720484D01*
X14768348Y-13720484D02*
X14711206Y-13720484D01*
X14711206Y-13720484D02*
X14692158Y-13710960D01*
X14692158Y-13710960D02*
X14682634Y-13701436D01*
X14882634Y-13520484D02*
X14882634Y-13558579D01*
X14958825Y-13520484D02*
X14958825Y-13558579D01*
X15254063Y-13796674D02*
X15244539Y-13787150D01*
X15244539Y-13787150D02*
X15225491Y-13758579D01*
X15225491Y-13758579D02*
X15215968Y-13739531D01*
X15215968Y-13739531D02*
X15206444Y-13710960D01*
X15206444Y-13710960D02*
X15196920Y-13663341D01*
X15196920Y-13663341D02*
X15196920Y-13625246D01*
X15196920Y-13625246D02*
X15206444Y-13577627D01*
X15206444Y-13577627D02*
X15215968Y-13549055D01*
X15215968Y-13549055D02*
X15225491Y-13530008D01*
X15225491Y-13530008D02*
X15244539Y-13501436D01*
X15244539Y-13501436D02*
X15254063Y-13491912D01*
X15358825Y-13606198D02*
X15339777Y-13596674D01*
X15339777Y-13596674D02*
X15330253Y-13587150D01*
X15330253Y-13587150D02*
X15320729Y-13568103D01*
X15320729Y-13568103D02*
X15320729Y-13558579D01*
X15320729Y-13558579D02*
X15330253Y-13539531D01*
X15330253Y-13539531D02*
X15339777Y-13530008D01*
X15339777Y-13530008D02*
X15358825Y-13520484D01*
X15358825Y-13520484D02*
X15396920Y-13520484D01*
X15396920Y-13520484D02*
X15415968Y-13530008D01*
X15415968Y-13530008D02*
X15425491Y-13539531D01*
X15425491Y-13539531D02*
X15435015Y-13558579D01*
X15435015Y-13558579D02*
X15435015Y-13568103D01*
X15435015Y-13568103D02*
X15425491Y-13587150D01*
X15425491Y-13587150D02*
X15415968Y-13596674D01*
X15415968Y-13596674D02*
X15396920Y-13606198D01*
X15396920Y-13606198D02*
X15358825Y-13606198D01*
X15358825Y-13606198D02*
X15339777Y-13615722D01*
X15339777Y-13615722D02*
X15330253Y-13625246D01*
X15330253Y-13625246D02*
X15320729Y-13644293D01*
X15320729Y-13644293D02*
X15320729Y-13682388D01*
X15320729Y-13682388D02*
X15330253Y-13701436D01*
X15330253Y-13701436D02*
X15339777Y-13710960D01*
X15339777Y-13710960D02*
X15358825Y-13720484D01*
X15358825Y-13720484D02*
X15396920Y-13720484D01*
X15396920Y-13720484D02*
X15415968Y-13710960D01*
X15415968Y-13710960D02*
X15425491Y-13701436D01*
X15425491Y-13701436D02*
X15435015Y-13682388D01*
X15435015Y-13682388D02*
X15435015Y-13644293D01*
X15435015Y-13644293D02*
X15425491Y-13625246D01*
X15425491Y-13625246D02*
X15415968Y-13615722D01*
X15415968Y-13615722D02*
X15396920Y-13606198D01*
X15673110Y-13720484D02*
X15673110Y-13520484D01*
X15758825Y-13720484D02*
X15758825Y-13615722D01*
X15758825Y-13615722D02*
X15749301Y-13596674D01*
X15749301Y-13596674D02*
X15730253Y-13587150D01*
X15730253Y-13587150D02*
X15701682Y-13587150D01*
X15701682Y-13587150D02*
X15682634Y-13596674D01*
X15682634Y-13596674D02*
X15673110Y-13606198D01*
X15882634Y-13720484D02*
X15863587Y-13710960D01*
X15863587Y-13710960D02*
X15854063Y-13701436D01*
X15854063Y-13701436D02*
X15844539Y-13682388D01*
X15844539Y-13682388D02*
X15844539Y-13625246D01*
X15844539Y-13625246D02*
X15854063Y-13606198D01*
X15854063Y-13606198D02*
X15863587Y-13596674D01*
X15863587Y-13596674D02*
X15882634Y-13587150D01*
X15882634Y-13587150D02*
X15911206Y-13587150D01*
X15911206Y-13587150D02*
X15930253Y-13596674D01*
X15930253Y-13596674D02*
X15939777Y-13606198D01*
X15939777Y-13606198D02*
X15949301Y-13625246D01*
X15949301Y-13625246D02*
X15949301Y-13682388D01*
X15949301Y-13682388D02*
X15939777Y-13701436D01*
X15939777Y-13701436D02*
X15930253Y-13710960D01*
X15930253Y-13710960D02*
X15911206Y-13720484D01*
X15911206Y-13720484D02*
X15882634Y-13720484D01*
X16063587Y-13720484D02*
X16044539Y-13710960D01*
X16044539Y-13710960D02*
X16035015Y-13691912D01*
X16035015Y-13691912D02*
X16035015Y-13520484D01*
X16215968Y-13710960D02*
X16196920Y-13720484D01*
X16196920Y-13720484D02*
X16158825Y-13720484D01*
X16158825Y-13720484D02*
X16139777Y-13710960D01*
X16139777Y-13710960D02*
X16130253Y-13691912D01*
X16130253Y-13691912D02*
X16130253Y-13615722D01*
X16130253Y-13615722D02*
X16139777Y-13596674D01*
X16139777Y-13596674D02*
X16158825Y-13587150D01*
X16158825Y-13587150D02*
X16196920Y-13587150D01*
X16196920Y-13587150D02*
X16215968Y-13596674D01*
X16215968Y-13596674D02*
X16225491Y-13615722D01*
X16225491Y-13615722D02*
X16225491Y-13634769D01*
X16225491Y-13634769D02*
X16130253Y-13653817D01*
X16301682Y-13710960D02*
X16320730Y-13720484D01*
X16320730Y-13720484D02*
X16358825Y-13720484D01*
X16358825Y-13720484D02*
X16377872Y-13710960D01*
X16377872Y-13710960D02*
X16387396Y-13691912D01*
X16387396Y-13691912D02*
X16387396Y-13682388D01*
X16387396Y-13682388D02*
X16377872Y-13663341D01*
X16377872Y-13663341D02*
X16358825Y-13653817D01*
X16358825Y-13653817D02*
X16330253Y-13653817D01*
X16330253Y-13653817D02*
X16311206Y-13644293D01*
X16311206Y-13644293D02*
X16301682Y-13625246D01*
X16301682Y-13625246D02*
X16301682Y-13615722D01*
X16301682Y-13615722D02*
X16311206Y-13596674D01*
X16311206Y-13596674D02*
X16330253Y-13587150D01*
X16330253Y-13587150D02*
X16358825Y-13587150D01*
X16358825Y-13587150D02*
X16377872Y-13596674D01*
X16454063Y-13796674D02*
X16463587Y-13787150D01*
X16463587Y-13787150D02*
X16482634Y-13758579D01*
X16482634Y-13758579D02*
X16492158Y-13739531D01*
X16492158Y-13739531D02*
X16501682Y-13710960D01*
X16501682Y-13710960D02*
X16511206Y-13663341D01*
X16511206Y-13663341D02*
X16511206Y-13625246D01*
X16511206Y-13625246D02*
X16501682Y-13577627D01*
X16501682Y-13577627D02*
X16492158Y-13549055D01*
X16492158Y-13549055D02*
X16482634Y-13530008D01*
X16482634Y-13530008D02*
X16463587Y-13501436D01*
X16463587Y-13501436D02*
X16454063Y-13491912D01*
M02*
